<svg width="12" height="6" viewBox="0 0 12 6" fill="none" xmlns="http://www.w3.org/2000/svg">
<path d="M11.0148 0.964285C11.0148 0.883928 10.9746 0.793526 10.9143 0.733259L10.4121 0.231026C10.3518 0.170759 10.2614 0.13058 10.1811 0.13058C10.1007 0.13058 10.0103 0.170759 9.95006 0.231026L6.00251 4.17857L2.05497 0.231026C1.9947 0.170759 1.9043 0.13058 1.82394 0.13058C1.73354 0.13058 1.65318 0.170759 1.59291 0.231026L1.09068 0.733259C1.03041 0.793526 0.990234 0.883928 0.990234 0.964285C0.990234 1.04464 1.03041 1.13504 1.09068 1.19531L5.77148 5.87612C5.83175 5.93638 5.92215 5.97656 6.00251 5.97656C6.08287 5.97656 6.17327 5.93638 6.23354 5.87612L10.9143 1.19531C10.9746 1.13504 11.0148 1.04464 11.0148 0.964285Z" fill="#19352A"/>
</svg>
