<svg width="1148" height="446" viewBox="0 0 1148 446" fill="none" xmlns="http://www.w3.org/2000/svg">
<g clip-path="url(#clip0_227_100865)">
<g opacity="0.05">
<rect x="-330" y="-82" width="20" height="716" transform="rotate(-30 -330 -82)" fill="#007683"/>
<rect x="-289.066" y="-82" width="20" height="716" transform="rotate(-30 -289.066 -82)" fill="#007683"/>
<rect x="-248.133" y="-82" width="20" height="716" transform="rotate(-30 -248.133 -82)" fill="#007683"/>
<rect x="-207.199" y="-82" width="20" height="716" transform="rotate(-30 -207.199 -82)" fill="#007683"/>
<rect x="-166.266" y="-82" width="20" height="716" transform="rotate(-30 -166.266 -82)" fill="#007683"/>
<rect x="-125.332" y="-82" width="20" height="716" transform="rotate(-30 -125.332 -82)" fill="#007683"/>
<rect x="-84.3984" y="-82" width="20" height="716" transform="rotate(-30 -84.3984 -82)" fill="#007683"/>
<rect x="-43.4648" y="-82" width="20" height="716" transform="rotate(-30 -43.4648 -82)" fill="#007683"/>
<rect x="-2.53125" y="-82" width="20" height="716" transform="rotate(-30 -2.53125 -82)" fill="#007683"/>
<rect x="38.4023" y="-82" width="20" height="716" transform="rotate(-30 38.4023 -82)" fill="#007683"/>
<rect x="79.3359" y="-82" width="20" height="716" transform="rotate(-30 79.3359 -82)" fill="#007683"/>
<rect x="120.271" y="-82" width="20" height="716" transform="rotate(-30 120.271 -82)" fill="#007683"/>
<rect x="161.205" y="-82" width="20" height="716" transform="rotate(-30 161.205 -82)" fill="#007683"/>
<rect x="202.139" y="-82" width="20" height="716" transform="rotate(-30 202.139 -82)" fill="#007683"/>
<rect x="243.072" y="-82" width="20" height="716" transform="rotate(-30 243.072 -82)" fill="#007683"/>
<rect x="284.006" y="-82" width="20" height="716" transform="rotate(-30 284.006 -82)" fill="#007683"/>
<rect x="324.939" y="-82" width="20" height="716" transform="rotate(-30 324.939 -82)" fill="#007683"/>
<rect x="365.873" y="-82" width="20" height="716" transform="rotate(-30 365.873 -82)" fill="#007683"/>
<rect x="406.807" y="-82" width="20" height="716" transform="rotate(-30 406.807 -82)" fill="#007683"/>
<rect x="447.74" y="-82" width="20" height="716" transform="rotate(-30 447.74 -82)" fill="#007683"/>
<rect x="488.674" y="-82" width="20" height="716" transform="rotate(-30 488.674 -82)" fill="#007683"/>
<rect x="529.607" y="-82" width="20" height="716" transform="rotate(-30 529.607 -82)" fill="#007683"/>
<rect x="570.541" y="-82" width="20" height="716" transform="rotate(-30 570.541 -82)" fill="#007683"/>
<rect x="611.475" y="-82" width="20" height="716" transform="rotate(-30 611.475 -82)" fill="#007683"/>
<rect x="652.408" y="-82" width="20" height="716" transform="rotate(-30 652.408 -82)" fill="#007683"/>
<rect x="693.342" y="-82" width="20" height="716" transform="rotate(-30 693.342 -82)" fill="#007683"/>
<rect x="734.275" y="-82" width="20" height="716" transform="rotate(-30 734.275 -82)" fill="#007683"/>
<rect x="775.211" y="-82" width="20" height="716" transform="rotate(-30 775.211 -82)" fill="#007683"/>
<rect x="816.145" y="-82" width="20" height="716" transform="rotate(-30 816.145 -82)" fill="#007683"/>
<rect x="857.078" y="-82" width="20" height="716" transform="rotate(-30 857.078 -82)" fill="#007683"/>
<rect x="898.012" y="-82" width="20" height="716" transform="rotate(-30 898.012 -82)" fill="#007683"/>
<rect x="938.945" y="-82" width="20" height="716" transform="rotate(-30 938.945 -82)" fill="#007683"/>
<rect x="979.879" y="-82" width="20" height="716" transform="rotate(-30 979.879 -82)" fill="#007683"/>
<rect x="1020.81" y="-82" width="20" height="716" transform="rotate(-30 1020.81 -82)" fill="#007683"/>
<rect x="1061.75" y="-82" width="20" height="716" transform="rotate(-30 1061.75 -82)" fill="#007683"/>
<rect x="1102.68" y="-82" width="20" height="716" transform="rotate(-30 1102.68 -82)" fill="#007683"/>
</g>
</g>
<defs>
<clipPath id="clip0_227_100865">
<rect width="1148" height="446" fill="white"/>
</clipPath>
</defs>
</svg>
