<svg width="269" height="265" viewBox="0 0 269 265" fill="none" xmlns="http://www.w3.org/2000/svg">
<circle cx="136.5" cy="132.5" r="132.5" fill="#D1F1DA"/>
<path d="M183.674 232.046L137.281 203.819L137.289 199.398L183.706 227.634L221.631 206.405L223.482 209.769L183.674 232.046Z" fill="#FAD264"/>
<path d="M253.06 217.799L197.992 185.896C191.783 182.293 186.747 172.643 186.747 164.331V17.1634C186.747 12.9353 183.283 11.9984 185.382 10.4849C185.462 10.4208 193.786 6.68117 193.874 6.64113C195.082 6.08705 196.407 5.83823 197.732 5.9164C199.058 5.99457 200.345 6.39736 201.48 7.08958L256.547 38.9927C262.764 42.5963 267.8 52.2457 267.8 60.5578V207.702C267.8 212.122 266.38 215.269 264.113 216.71C263.978 216.791 254.664 221.115 254.536 221.163C252.477 221.859 255.781 219.377 253.06 217.799Z" fill="#007683"/>
<path d="M253.06 217.801L197.992 185.898C191.783 182.294 186.747 172.645 186.747 164.333V17.1647C186.747 12.9366 183.283 11.9997 185.382 10.4862C185.462 10.4221 193.651 6.73052 193.738 6.69849C194.945 6.14116 196.27 5.88984 197.596 5.96664C198.922 6.04344 200.209 6.446 201.344 7.13892L256.412 39.0421C262.629 42.6456 267.665 52.3031 267.665 60.6072V207.775C267.665 212.195 266.244 215.342 263.978 216.784C263.842 216.872 254.664 221.14 254.512 221.188C252.477 221.861 255.781 219.378 253.06 217.801Z" fill="#007683"/>
<path d="M253.06 217.8L197.992 185.897C191.783 182.293 186.747 172.644 186.747 164.332V17.164C186.747 12.9359 183.283 11.999 185.382 10.4855C185.462 10.4214 193.515 6.77786 193.603 6.74583C194.81 6.18969 196.135 5.93972 197.461 6.01792C198.788 6.09611 200.074 6.50007 201.208 7.19427L256.276 39.0974C262.493 42.693 267.529 52.3504 267.529 60.6625V207.83C267.529 212.243 266.108 215.39 263.842 216.831C263.706 216.919 254.664 221.139 254.512 221.187C252.477 221.86 255.781 219.378 253.06 217.8Z" fill="#007683"/>
<path d="M253.06 217.8L197.992 185.897C191.783 182.293 186.747 172.644 186.747 164.331V17.1636C186.747 12.9355 183.283 11.9986 185.382 10.4851C185.462 10.421 193.363 6.83352 193.467 6.79348C194.675 6.2394 196 5.99057 197.325 6.06874C198.651 6.14691 199.938 6.54971 201.073 7.24192L256.14 39.1451C262.358 42.7406 267.393 52.3981 267.393 60.7102V207.878C267.393 212.298 265.973 215.445 263.706 216.887C263.571 216.967 254.664 221.139 254.512 221.187C252.477 221.86 255.781 219.377 253.06 217.8Z" fill="#007683"/>
<path d="M253.06 217.799L197.992 185.896C191.783 182.292 186.747 172.643 186.747 164.331V17.163C186.747 12.9348 183.283 11.9979 185.382 10.4844C185.462 10.4204 193.244 6.88092 193.363 6.84889C194.57 6.29155 195.895 6.04023 197.221 6.11703C198.547 6.19383 199.834 6.5964 200.969 7.28932L256.037 39.1925C262.254 42.796 267.29 52.4535 267.29 60.7576V207.925C267.29 212.346 265.869 215.493 263.603 216.934C263.467 217.022 254.696 221.138 254.544 221.186C252.477 221.859 255.781 219.377 253.06 217.799Z" fill="#007683"/>
<path d="M253.06 217.801L197.992 185.897C191.783 182.294 186.747 172.644 186.747 164.332V17.1645C186.747 12.9364 183.283 11.9995 185.382 10.486C185.462 10.4219 193.108 6.93052 193.196 6.89849C194.403 6.34321 195.727 6.09303 197.053 6.16981C198.379 6.24658 199.666 6.64798 200.801 7.33892L255.869 39.2501C262.086 42.8456 267.122 52.5031 267.122 60.8152V207.983C267.122 212.395 265.701 215.542 263.435 216.984C263.299 217.072 254.656 221.14 254.512 221.188C252.477 221.861 255.781 219.378 253.06 217.801Z" fill="#007683"/>
<path d="M253.06 217.8L197.992 185.897C191.783 182.293 186.747 172.644 186.747 164.332V17.1638C186.747 12.9357 183.283 11.9988 185.382 10.4853C185.462 10.4212 192.972 6.98587 193.06 6.94583C194.268 6.39174 195.593 6.14291 196.918 6.22108C198.244 6.29926 199.531 6.70205 200.666 7.39426L255.733 39.2974C261.95 42.893 266.986 52.5504 266.986 60.8625V208.03C266.986 212.443 265.566 215.598 263.299 217.039C263.164 217.119 254.664 221.139 254.52 221.187C252.477 221.86 255.781 219.377 253.06 217.8Z" fill="#007683"/>
<path d="M253.06 217.799L197.992 185.896C191.783 182.293 186.747 172.643 186.747 164.331V17.1632C186.747 12.935 183.283 11.9981 185.382 10.4846C185.462 10.4206 192.837 7.03326 192.924 7.00123C194.131 6.4439 195.456 6.19258 196.782 6.26938C198.108 6.34617 199.395 6.74873 200.53 7.44166L255.598 39.3448C261.815 42.9484 266.851 52.5978 266.851 60.9099V208.078C266.851 212.498 265.422 215.645 263.164 217.087C263.028 217.175 254.664 221.138 254.512 221.187C252.477 221.859 255.781 219.377 253.06 217.799Z" fill="#007683"/>
<path d="M253.06 217.8L197.992 185.897C191.783 182.293 186.747 172.644 186.747 164.332V17.1639C186.747 12.9358 183.283 11.9989 185.382 10.4854C185.462 10.4214 192.701 7.08209 192.789 7.05006C193.995 6.49273 195.32 6.24141 196.646 6.3182C197.972 6.395 199.26 6.79757 200.394 7.49049L255.462 39.4017C261.679 42.9972 266.715 52.6546 266.715 60.9668V208.135C266.715 212.547 265.286 215.694 263.028 217.135C262.892 217.223 254.664 221.139 254.512 221.187C252.477 221.86 255.781 219.378 253.06 217.8Z" fill="#007683"/>
<path d="M253.06 217.8L197.992 185.897C191.783 182.293 186.747 172.644 186.747 164.332V17.164C186.747 12.9359 183.283 11.999 185.382 10.4855C185.462 10.4214 192.565 7.13821 192.653 7.09817C193.861 6.54408 195.186 6.29526 196.511 6.37343C197.837 6.4516 199.124 6.85439 200.259 7.54661L255.326 39.4498C261.543 43.0453 266.579 52.7027 266.579 61.0149V208.183C266.579 212.595 265.151 215.75 262.892 217.183C262.757 217.272 254.664 221.139 254.512 221.187C252.477 221.86 255.781 219.378 253.06 217.8Z" fill="#007683"/>
<path d="M253.06 217.799L197.992 185.896C191.783 182.292 186.747 172.643 186.747 164.331V17.1628C186.747 12.9347 183.283 11.9978 185.382 10.4843C185.462 10.4202 192.429 7.18509 192.517 7.14505C193.725 6.59096 195.05 6.34213 196.376 6.4203C197.702 6.49847 198.988 6.90127 200.123 7.59348L255.191 39.4967C261.408 43.1002 266.444 52.7496 266.444 61.0617V208.23C266.444 212.65 265.015 215.797 262.757 217.238C262.621 217.318 254.664 221.138 254.512 221.186C252.477 221.859 255.781 219.376 253.06 217.799Z" fill="#007683"/>
<path d="M253.06 217.8L197.992 185.897C191.783 182.294 186.747 172.644 186.747 164.332V17.1641C186.747 12.936 183.283 11.9991 185.382 10.4856C185.462 10.4215 192.294 7.23443 192.382 7.2024C193.588 6.64507 194.913 6.39375 196.239 6.47055C197.565 6.54735 198.853 6.9499 199.987 7.64283L255.055 39.554C261.272 43.1495 266.308 52.807 266.308 61.1191V208.287C266.308 212.699 264.879 215.846 262.621 217.288C262.485 217.376 254.64 221.139 254.512 221.188C252.477 221.86 255.781 219.378 253.06 217.8Z" fill="#007683"/>
<path d="M253.06 217.799L197.992 185.896C191.783 182.292 186.747 172.643 186.747 164.33V17.1626C186.747 12.9345 183.283 11.9976 185.382 10.4841C185.462 10.4201 192.158 7.28099 192.246 7.28099C193.453 6.72485 194.778 6.47488 196.105 6.55307C197.431 6.63127 198.718 7.03523 199.852 7.72943L254.919 39.6326C261.136 43.2281 266.172 52.8856 266.172 61.1977V208.333C266.172 212.746 264.744 215.893 262.485 217.334C262.349 217.422 254.664 221.138 254.504 221.186C252.477 221.859 255.781 219.376 253.06 217.799Z" fill="#007683"/>
<path d="M253.06 217.799L197.992 185.896C191.783 182.293 186.747 172.643 186.747 164.331V17.1634C186.747 12.9353 183.283 11.9984 185.382 10.4849C185.462 10.4208 192.022 7.33782 192.11 7.28177C193.318 6.72768 194.643 6.47885 195.969 6.55702C197.295 6.63519 198.581 7.03799 199.716 7.7302L254.784 39.6334C261.001 43.2369 266.037 52.8863 266.037 61.1985V208.382C266.037 212.803 264.608 215.95 262.349 217.391C262.214 217.471 254.664 221.139 254.512 221.187C252.477 221.859 255.781 219.377 253.06 217.799Z" fill="#007683"/>
<path d="M253.06 217.8L197.992 185.897C191.783 182.294 186.747 172.644 186.747 164.332V17.1643C186.747 12.9362 183.283 11.9993 185.382 10.4858C185.462 10.4217 191.887 7.38677 191.975 7.35474C193.181 6.79741 194.506 6.54609 195.832 6.62289C197.158 6.69969 198.445 7.10225 199.58 7.79517L254.648 39.6984C260.865 43.3019 265.901 52.9593 265.901 61.2634V208.431C265.901 212.852 264.472 215.999 262.214 217.44C262.078 217.528 254.664 221.14 254.512 221.188C252.477 221.86 255.781 219.378 253.06 217.8Z" fill="#007683"/>
<path d="M253.06 217.8L197.992 185.897C191.783 182.293 186.747 172.644 186.747 164.331V17.1636C186.747 12.9355 183.283 11.9986 185.382 10.4851C185.462 10.421 191.767 7.43411 191.839 7.40208C193.046 6.84594 194.371 6.59597 195.698 6.67417C197.024 6.75236 198.31 7.15632 199.445 7.85052L254.512 39.7537C260.729 43.3492 265.765 53.0066 265.765 61.3188V208.503C265.765 212.915 264.337 216.062 262.078 217.503C261.942 217.592 254.664 221.155 254.512 221.203C252.477 221.86 255.781 219.377 253.06 217.8Z" fill="#007683"/>
<path d="M253.06 217.799L197.992 185.896C191.783 182.293 186.747 172.643 186.747 164.331V17.1632C186.747 12.9351 183.283 11.9982 185.382 10.4847C185.462 10.4206 191.615 7.48977 191.703 7.44973C192.911 6.89565 194.236 6.64682 195.562 6.72499C196.887 6.80316 198.174 7.20596 199.309 7.89817L254.377 39.8013C260.594 43.3969 265.63 53.0543 265.63 61.3664V208.502C265.63 212.923 264.201 216.07 261.942 217.511C261.807 217.591 254.664 221.107 254.512 221.155C252.477 221.859 255.781 219.377 253.06 217.799Z" fill="#007683"/>
<path d="M253.06 217.801L197.992 185.897C191.783 182.294 186.747 172.644 186.747 164.332V17.1645C186.747 12.9364 183.283 11.9995 185.382 10.486C185.462 10.4219 191.48 7.53912 191.568 7.50709C192.774 6.94976 194.099 6.69844 195.425 6.77524C196.751 6.85203 198.038 7.2546 199.173 7.94752L254.241 39.8507C260.458 43.4542 265.494 53.1037 265.494 61.4158V208.584C265.494 213.004 264.065 216.151 261.807 217.592C261.671 217.68 254.624 221.14 254.512 221.188C252.477 221.861 255.781 219.378 253.06 217.801Z" fill="#007683"/>
<path d="M253.06 217.8L197.992 185.897C191.783 182.294 186.747 172.644 186.747 164.332V17.1641C186.747 12.936 183.283 11.9991 185.382 10.4856C185.462 10.4215 191.344 7.58677 191.432 7.55474C192.639 6.99946 193.963 6.74928 195.289 6.82606C196.615 6.90283 197.902 7.30423 199.038 7.99517L254.105 39.9064C260.322 43.5019 265.358 53.1593 265.358 61.4714V208.639C265.358 213.052 263.93 216.199 261.671 217.64C261.535 217.728 254.664 221.139 254.488 221.188C252.477 221.86 255.781 219.378 253.06 217.8Z" fill="#007683"/>
<path d="M253.06 217.799L197.992 185.896C191.783 182.293 186.747 172.643 186.747 164.331V17.1634C186.747 12.9353 183.283 11.9984 185.382 10.4849C185.462 10.4208 191.208 7.64212 191.296 7.60208C192.504 7.04799 193.829 6.79916 195.155 6.87733C196.48 6.95551 197.767 7.3583 198.902 8.05051L253.97 39.9537C260.179 43.5492 265.223 53.2066 265.223 61.5188V208.687C265.223 213.099 263.794 216.254 261.535 217.695C261.4 217.775 254.664 221.139 254.512 221.187C252.477 221.859 255.781 219.377 253.06 217.799Z" fill="#007683"/>
<path d="M253.06 217.799L197.992 185.896C191.783 182.292 186.747 172.643 186.747 164.331V17.1628C186.747 12.9346 183.283 11.9977 185.382 10.4842C185.462 10.4202 191.073 7.68951 191.161 7.65748C192.367 7.10015 193.692 6.84883 195.018 6.92563C196.344 7.00242 197.631 7.40498 198.766 8.09791L253.834 40.0011C260.043 43.6046 265.087 53.254 265.087 61.5662V208.734C265.087 213.154 263.658 216.301 261.4 217.743C261.264 217.823 254.664 221.138 254.512 221.186C252.477 221.859 255.781 219.376 253.06 217.799Z" fill="#007683"/>
<path d="M253.06 217.8L197.992 185.896C191.783 182.293 186.747 172.643 186.747 164.331V17.1635C186.747 12.9354 183.283 11.9985 185.382 10.485C185.462 10.421 190.969 7.73834 191.025 7.70631C192.232 7.14898 193.556 6.89766 194.882 6.97445C196.209 7.05125 197.496 7.45382 198.631 8.14674L253.698 40.0579C259.907 43.6534 264.951 53.3109 264.951 61.623V208.791C264.951 213.203 263.523 216.35 261.264 217.792C261.128 217.88 254.664 221.139 254.512 221.187C252.477 221.86 255.781 219.377 253.06 217.8Z" fill="#007683"/>
<path d="M247.8 220.291L192.732 188.388C186.515 184.792 181.447 175.135 181.447 166.863V19.6551C181.447 11.343 186.483 7.52322 192.7 11.1267L247.768 43.0299C253.985 46.6254 259.021 56.2829 259.021 64.595V211.763C259.053 220.075 254.017 223.895 247.8 220.291Z" fill="#007683"/>
<path d="M252.268 220.515C250.882 220.462 249.533 220.045 248.358 219.305L193.29 187.402C187.4 183.991 182.604 174.75 182.604 166.806V19.6543C182.604 14.3291 184.822 10.8457 188.27 10.8457C189.657 10.8979 191.005 11.3149 192.181 12.0549L247.248 43.9581C253.138 47.3694 257.935 56.6104 257.935 64.5542V211.762C257.935 217.087 255.708 220.515 252.268 220.515Z" fill="#19352A"/>
<path d="M185.205 168.696V22.0969C185.205 15.9949 188.9 13.1922 193.457 15.8348L247.072 46.8971C251.63 49.5317 255.325 56.6186 255.325 62.7206V209.304C255.325 215.406 251.63 218.209 247.072 215.566L193.457 184.504C188.9 181.885 185.205 174.798 185.205 168.696Z" fill="#19352A"/>
<path d="M193.781 17.0728C189.48 14.5824 186 16.5763 186 21.5172V169.774C186 174.715 189.48 180.745 193.781 183.235L246.152 213.577C250.445 216.059 253.933 214.073 253.933 209.125V60.8756C253.933 55.9268 250.445 49.8969 246.152 47.4065L193.781 17.0728Z" fill="#2B5D66"/>
<path d="M263.275 112.961C261.679 113.874 260.418 112.905 260.418 110.791V98.7956C260.418 96.6816 261.695 94.2312 263.275 93.3103C264.871 92.3974 266.14 93.3663 266.14 95.4804V107.492C266.14 109.59 264.855 112.049 263.275 112.961Z" fill="#F99746"/>
<path opacity="0.8" d="M225.158 36.1191L236.65 42.7656L214.527 67.9583L210.72 99.7493L199.763 114.019L192.181 131.789L187.4 143.408V121.971L193.003 107.469L201.399 97.1708L205.126 82.4284L211.335 63.0495L225.158 36.1191Z" fill="url(#paint0_linear_224_100856)"/>
<path opacity="0.8" d="M253.609 89.1856V87.3278L237.344 77.7184V43.0445L235.748 42.1156V76.7815L221.063 68.2292L216.099 55.2885L187.033 38.7363V40.5941L194.599 42.5561V92.9573L187.033 88.553V90.4108L196.203 95.72V74.2671L235.716 96.9853V119.511L221.351 111.167H221.263L206.379 127.327L187.033 116.284V118.142L197.544 124.012V143.351L187.033 156.211V157.965L198.206 144.832L214.902 173.452L199.124 185.712L200.625 186.585L227.352 167.766L235.716 172.619L243.458 210.712H245.054L237.312 173.54L245.405 178.169L245.533 177.936V176.391L237.312 171.666V155.651L253.577 165.26V163.418L237.312 153.809V122.298L253.577 131.947V130.09L237.312 120.416V97.9142L253.577 107.524V105.666L237.312 96.0564V79.5762L253.609 89.1856ZM199.116 124.917L205.876 128.832L206.171 129.001L221.063 112.849L221.351 113.001V144.48L221.151 144.352L199.116 142.614V124.917ZM235.716 170.769L227.129 165.837L216.115 172.467L199.611 144.183L221.055 146.185L225.565 148.828V148.876H225.652L235.716 154.706V170.769ZM235.716 152.848L222.947 145.433V113.954L235.716 121.369V152.848ZM235.716 95.1274L196.147 72.4092V45.8633L214.775 56.4016L219.755 69.3342L235.716 78.6393V95.1274Z" fill="#AFB6E5"/>
<path d="M223.562 209.985L219.74 207.639V108.982L234.624 117.519V97.8674L195.047 74.4926L198.088 71.834L238.455 95.6813V124.141L223.562 115.597V209.985Z" fill="#F99746"/>
<g style="mix-blend-mode:multiply" opacity="0.03">
<path d="M222.46 73.3468C211.191 79.8732 191.295 78.1515 191.295 78.1515C191.427 74.364 192.514 70.672 194.454 67.4203C196.394 64.1687 199.124 61.4634 202.388 59.5573C210.313 54.9688 219.515 55.201 225.054 59.0048C230.593 62.8085 230.377 68.7583 222.46 73.3468Z" fill="#FEFEFF"/>
</g>
<g style="mix-blend-mode:multiply" opacity="0.06">
<path d="M222.196 73.2751C211.111 79.6813 191.398 78.0798 191.398 78.0798C191.398 78.0798 191.359 66.1721 202.444 59.7499C210.241 55.2334 219.323 55.4416 224.79 59.1893C230.257 62.937 229.994 68.7587 222.196 73.2751Z" fill="#FDFDFF"/>
</g>
<g style="mix-blend-mode:multiply" opacity="0.09">
<path d="M221.935 73.1704C211.025 79.4966 191.504 77.9751 191.504 77.9751C191.504 77.9751 191.592 66.1716 202.502 59.8454C210.171 55.401 219.142 55.6012 224.505 59.2848C229.868 62.9684 229.604 68.7501 221.935 73.1704Z" fill="#FDFBFF"/>
</g>
<g style="mix-blend-mode:multiply" opacity="0.13">
<path d="M221.671 73.1233C210.945 79.3374 191.6 77.928 191.6 77.928C191.6 77.928 191.823 66.2286 202.557 60.0145C210.099 55.6423 218.95 55.8184 224.233 59.446C229.516 63.0735 229.221 68.7511 221.671 73.1233Z" fill="#FCFAFF"/>
</g>
<g style="mix-blend-mode:multiply" opacity="0.16">
<path d="M221.416 73.0422C210.857 79.1602 191.703 77.8469 191.703 77.8469C191.703 77.8469 192.054 66.2515 202.605 60.1416C210.035 55.8414 218.766 56.0015 223.962 59.565C229.157 63.1285 228.838 68.75 221.416 73.0422Z" fill="#FBF9FF"/>
</g>
<g style="mix-blend-mode:multiply" opacity="0.19">
<path d="M221.152 72.9699C210.777 78.9838 191.807 77.7746 191.807 77.7746C191.807 77.7746 192.285 66.2834 202.661 60.2695C209.963 56.0414 218.582 56.1855 223.682 59.6929C228.782 63.2004 228.447 68.7418 221.152 72.9699Z" fill="#FAF8FF"/>
</g>
<g style="mix-blend-mode:multiply" opacity="0.22">
<path d="M220.889 72.8989C210.689 78.8006 191.91 77.7036 191.91 77.7036C191.91 77.7036 192.517 66.3245 202.716 60.4147C209.899 56.2586 218.391 56.4108 223.41 59.8301C228.43 63.2494 228.063 68.7428 220.889 72.8989Z" fill="#FAF6FF"/>
</g>
<g style="mix-blend-mode:multiply" opacity="0.25">
<path d="M220.625 72.8171C210.609 78.6228 192.014 77.6218 192.014 77.6218C192.014 77.6218 192.748 66.3468 202.772 60.5411C209.819 56.4571 218.207 56.5372 223.139 59.9405C228.071 63.3439 227.672 68.7331 220.625 72.8171Z" fill="#F9F5FF"/>
</g>
<g style="mix-blend-mode:multiply" opacity="0.28">
<path d="M220.369 72.7462C210.521 78.4478 192.117 77.5509 192.117 77.5509C192.117 77.5509 192.979 66.38 202.827 60.6784C209.747 56.6745 217.991 56.7546 222.859 60.0778C227.728 63.4011 227.289 68.7343 220.369 72.7462Z" fill="#F8F4FF"/>
</g>
<g style="mix-blend-mode:multiply" opacity="0.31">
<path d="M220.106 72.6661C210.441 78.2716 192.221 77.4708 192.221 77.4708C192.221 77.4708 193.218 66.404 202.883 60.8065C209.683 56.8667 217.831 56.9387 222.588 60.1979C227.344 63.4571 226.937 68.7263 220.106 72.6661Z" fill="#F7F3FF"/>
</g>
<g style="mix-blend-mode:multiply" opacity="0.34">
<path d="M219.842 72.5929C210.353 78.0863 192.316 77.4376 192.316 77.4376C192.316 77.4376 193.45 66.4829 202.939 60.9896C209.611 57.1218 217.648 57.1698 222.316 60.373C226.985 63.5761 226.514 68.7251 219.842 72.5929Z" fill="#F6F1FF"/>
</g>
<g style="mix-blend-mode:multiply" opacity="0.38">
<path d="M219.58 72.5145C210.267 77.9118 192.445 77.3753 192.445 77.3753C192.445 77.3753 193.682 66.5247 202.996 61.1594C209.54 57.3637 217.457 57.4038 222.038 60.5428C226.619 63.6819 226.14 68.7188 219.58 72.5145Z" fill="#F6F0FF"/>
</g>
<g style="mix-blend-mode:multiply" opacity="0.41">
<path d="M219.315 72.4408C210.185 77.734 192.523 77.3016 192.523 77.3016C192.523 77.3016 193.912 66.5631 203.042 61.2859C209.467 57.5623 217.272 57.5783 221.765 60.6613C226.258 63.7443 225.74 68.7172 219.315 72.4408Z" fill="#F5EFFF"/>
</g>
<g style="mix-blend-mode:multiply" opacity="0.44">
<path d="M219.061 72.3698C210.099 77.5589 192.629 77.2466 192.629 77.2466C192.629 77.2466 194.145 66.6042 203.1 61.4151C209.405 57.7715 217.082 57.7635 221.456 60.7905C225.829 63.8174 225.342 68.7182 219.061 72.3698Z" fill="#F4EEFF"/>
</g>
<g style="mix-blend-mode:multiply" opacity="0.47">
<path d="M218.798 72.2896C210.019 77.3746 192.732 77.1664 192.732 77.1664C192.732 77.1664 194.376 66.6361 203.155 61.5511C209.333 57.9716 216.898 57.9556 221.216 60.9185C225.534 63.8814 224.975 68.7101 218.798 72.2896Z" fill="#F3ECFF"/>
</g>
<g style="mix-blend-mode:multiply" opacity="0.5">
<path d="M218.534 72.2096C209.931 77.1985 192.836 77.1024 192.836 77.1024C192.836 77.1024 194.608 66.6922 203.211 61.6953C209.261 58.1879 216.715 58.1479 220.944 61.0547C225.174 63.9616 224.584 68.7102 218.534 72.2096Z" fill="#F3EBFF"/>
</g>
<g style="mix-blend-mode:multiply" opacity="0.53">
<path d="M218.271 72.1377C209.851 77.0145 192.939 77.0305 192.939 77.0305C192.939 77.0305 194.839 66.7164 203.267 61.8156C209.188 58.3882 216.523 58.3322 220.665 61.175C224.807 64.0177 224.2 68.7023 218.271 72.1377Z" fill="#F2EAFF"/>
</g>
<g style="mix-blend-mode:multiply" opacity="0.56">
<path d="M218.015 72.0578C209.763 76.8625 193.043 76.9666 193.043 76.9666C193.043 76.9666 195.078 66.7646 203.322 61.9599C209.116 58.6046 216.339 58.5245 220.393 61.3113C224.448 64.098 223.809 68.7025 218.015 72.0578Z" fill="#F1E9FF"/>
</g>
<g style="mix-blend-mode:multiply" opacity="0.59">
<path d="M217.752 71.9852C209.683 76.6617 193.139 76.902 193.139 76.902C193.139 76.902 195.309 66.7881 203.378 62.1195C209.052 58.8283 216.147 58.7402 220.138 61.4629C224.128 64.1856 223.426 68.694 217.752 71.9852Z" fill="#F0E7FF"/>
</g>
<g style="mix-blend-mode:multiply" opacity="0.63">
<path d="M217.488 71.9053C209.595 76.4778 193.242 76.8302 193.242 76.8302C193.242 76.8302 195.541 66.8284 203.434 62.2559C209.02 59.0528 215.964 58.9327 219.842 61.5993C223.721 64.2659 223.043 68.6942 217.488 71.9053Z" fill="#EFE6FF"/>
</g>
<g style="mix-blend-mode:multiply" opacity="0.66">
<path d="M217.224 71.8332C209.515 76.3016 193.346 76.766 193.346 76.766C193.346 76.766 195.74 66.8684 203.481 62.4C208.908 59.2609 215.772 59.1328 219.571 61.7353C223.37 64.3379 222.651 68.6941 217.224 71.8332Z" fill="#EFE5FF"/>
</g>
<g style="mix-blend-mode:multiply" opacity="0.69">
<path d="M216.971 71.7618C209.429 76.1261 193.451 76.6946 193.451 76.6946C193.451 76.6946 196.005 66.9091 203.539 62.5448C208.838 59.4698 215.59 59.3417 219.301 61.8722C223.012 64.4026 222.27 68.6868 216.971 71.7618Z" fill="#EEE4FF"/>
</g>
<g style="mix-blend-mode:multiply" opacity="0.72">
<path d="M216.707 71.6821C209.349 75.9422 193.562 76.6309 193.562 76.6309C193.562 76.6309 196.244 66.9495 203.602 62.6813C208.782 59.6864 215.414 59.4782 219.029 62.0086C222.645 64.5391 221.878 68.6872 216.707 71.6821Z" fill="#EDE2FF"/>
</g>
<g style="mix-blend-mode:multiply" opacity="0.75">
<path d="M216.443 71.6088C209.261 75.7649 193.658 76.5577 193.658 76.5577C193.658 76.5577 196.467 66.9483 203.65 62.8243C208.702 59.9014 215.214 59.7172 218.75 62.1436C222.285 64.57 221.495 68.678 216.443 71.6088Z" fill="#ECE1FF"/>
</g>
<g style="mix-blend-mode:multiply" opacity="0.78">
<path d="M216.18 71.5693C209.181 75.6292 193.762 76.5341 193.762 76.5341C193.762 76.5341 196.699 67.0608 203.706 63.0089C208.63 60.1501 215.031 59.9499 218.478 62.3202C221.926 64.6905 221.104 68.6784 216.18 71.5693Z" fill="#EBE0FF"/>
</g>
<g style="mix-blend-mode:multiply" opacity="0.81">
<path d="M215.924 71.4564C209.093 75.4042 193.857 76.4212 193.857 76.4212C193.857 76.4212 196.93 67.0601 203.762 63.1042C208.55 60.3255 214.839 60.1093 218.199 62.4155C221.559 64.7218 220.721 68.6696 215.924 71.4564Z" fill="#EBDFFF"/>
</g>
<g style="mix-blend-mode:multiply" opacity="0.84">
<path d="M215.661 71.3771C209.013 75.2288 193.961 76.3579 193.961 76.3579C193.961 76.3579 197.153 67.1009 203.817 63.2491C208.486 60.5425 214.655 60.3023 217.927 62.5525C221.2 64.8027 220.338 68.6704 215.661 71.3771Z" fill="#EADDFF"/>
</g>
<g style="mix-blend-mode:multiply" opacity="0.88">
<path d="M215.397 71.3047C208.925 75.0524 194.064 76.2856 194.064 76.2856C194.064 76.2856 197.4 67.1407 203.865 63.393C208.422 60.7504 214.471 60.5022 217.656 62.6803C220.84 64.8584 219.946 68.6702 215.397 71.3047Z" fill="#E9DCFF"/>
</g>
<g style="mix-blend-mode:multiply" opacity="0.91">
<path d="M215.134 71.2245C208.845 74.876 194.168 76.2214 194.168 76.2214C194.168 76.2214 197.632 67.1725 203.921 63.5289C208.35 60.9664 214.296 60.6942 217.376 62.8163C220.457 64.9383 219.563 68.662 215.134 71.2245Z" fill="#E8DBFF"/>
</g>
<g style="mix-blend-mode:multiply" opacity="0.94">
<path d="M214.878 71.1516C208.757 74.6911 194.271 76.1485 194.271 76.1485C194.271 76.1485 197.863 67.2118 203.976 63.6723C208.278 61.1819 214.096 60.8856 217.105 62.9516C220.113 65.0176 219.172 68.6612 214.878 71.1516Z" fill="#E8DAFF"/>
</g>
<g style="mix-blend-mode:multiply" opacity="0.97">
<path d="M214.616 71.0715C208.679 74.5149 194.377 76.0844 194.377 76.0844C194.377 76.0844 198.096 67.2758 204.034 63.8084C208.208 61.4061 213.906 61.0858 216.803 63.0877C219.7 65.0897 218.79 68.6532 214.616 71.0715Z" fill="#E7D8FF"/>
</g>
<g style="mix-blend-mode:multiply" opacity="0.5">
<path d="M214.353 71.0002C208.591 74.3395 194.48 76.0211 194.48 76.0211C194.48 76.0211 198.327 67.2926 204.057 63.9534C208.112 61.6071 213.69 61.2787 216.524 63.2246C219.357 65.1705 218.407 68.6539 214.353 71.0002Z" fill="#E6D7FF"/>
</g>
<path d="M198.829 38.2317C193.418 35.0926 189.036 27.5252 189.036 21.2791C189.036 18.8127 189.731 16.9469 190.896 15.7617C190.704 15.7617 188.949 16.5625 188.773 16.5625C186.163 17.075 184.439 19.5094 184.439 23.4012C184.439 29.6313 188.821 37.2227 194.232 40.3537C197.193 42.0674 199.818 42.0834 201.63 40.7301C201.822 40.594 203.569 39.6811 203.737 39.5129C202.009 39.5985 200.296 39.1514 198.829 38.2317Z" fill="#8DDCA4"/>
<path d="M199.874 2.79771C193.856 -0.693705 188.461 -0.797808 184.71 1.82075L180.385 3.84673L180.92 6.62545C179.902 9.11051 179.405 11.779 179.459 14.4651C179.459 23.3458 184.192 37.3595 189.1 49.5074L194.216 76.3015L199.858 73.4748C199.858 73.4748 220.249 56.5382 220.249 38.0962C220.265 25.1235 211.135 9.32408 199.874 2.79771ZM194.216 40.3864C188.805 37.2554 184.423 29.664 184.423 23.4339C184.423 17.2038 188.821 14.7133 194.216 17.8364C199.611 20.9595 204.008 28.5589 204.008 34.781C204.008 41.003 199.643 43.5415 194.216 40.3864Z" fill="#007683"/>
<path d="M194.217 5.62514C182.972 -0.901239 173.834 4.30385 173.834 17.2925C173.834 35.7105 194.233 76.3022 194.233 76.3022C194.233 76.3022 214.632 59.3657 214.632 40.9236C214.632 27.959 205.494 12.1515 194.217 5.62514ZM194.217 40.3871C188.806 37.256 184.425 29.6646 184.425 23.4345C184.425 17.2045 188.822 14.714 194.217 17.8371C199.612 20.9601 204.01 28.5595 204.01 34.7816C204.01 41.0037 199.644 43.5422 194.217 40.3871Z" fill="#007683"/>
<path d="M195.525 4.9202C189.643 1.50887 184.352 1.3327 180.633 3.76708C184.24 2.16552 188.997 2.59794 194.2 5.6249C205.461 12.1513 214.599 27.9587 214.599 40.9234C214.599 56.7228 199.627 71.4172 195.341 75.301L195.493 75.5973C195.493 75.5973 215.892 58.6607 215.892 40.2187C215.924 27.246 206.786 11.4466 195.525 4.9202Z" fill="#8DDCA4"/>
<path style="mix-blend-mode:color-dodge" d="M194.815 40.21C189.404 37.0789 185.023 29.4875 185.023 23.2574C185.023 20.2145 186.076 18.0684 187.784 17.0273C185.669 17.8281 184.32 20.1664 184.32 23.6098C184.32 29.8399 188.71 37.4233 194.113 40.5623C196.874 42.1639 199.364 42.276 201.144 41.195C199.436 41.8756 197.233 41.6114 194.815 40.21Z" fill="url(#paint1_radial_224_100856)"/>
<path d="M24.041 103.841L48.598 115.9L91.9978 90.948L71.3833 79.8572C70.8707 79.5754 70.2957 79.4277 69.7113 79.4277C69.1269 79.4277 68.5519 79.5754 68.0393 79.8572L24.041 103.841Z" fill="#2B5D66"/>
<path d="M12.0859 133.83V151.087L48.5982 173.509V115.9L27.5049 103.801C27.1081 103.564 26.6665 103.414 26.2084 103.359C25.7504 103.305 25.2859 103.346 24.8449 103.482C24.4039 103.618 23.9959 103.844 23.6473 104.147C23.2986 104.45 23.0169 104.823 22.8201 105.242L14.552 122.819C12.93 126.262 12.0879 130.022 12.0859 133.83Z" fill="#007683"/>
<path d="M48.5977 115.9V173.484L91.9974 148.347V90.9473L48.5977 115.9Z" fill="#2B5D66"/>
<path d="M38.208 136.255L40.6741 137.705C40.9454 137.863 41.1706 138.089 41.3274 138.362C41.4843 138.634 41.5672 138.943 41.568 139.258V139.378C41.5774 139.528 41.5447 139.677 41.4739 139.809C41.403 139.941 41.2966 140.05 41.167 140.124C41.0373 140.198 40.8894 140.235 40.7402 140.229C40.591 140.223 40.4465 140.175 40.323 140.091L38.0883 138.786C37.8284 138.632 37.6128 138.413 37.4631 138.151C37.3133 137.888 37.2345 137.591 37.2344 137.288V136.816C37.2342 136.701 37.2641 136.589 37.3211 136.49C37.3782 136.391 37.4603 136.309 37.5591 136.252C37.658 136.195 37.7701 136.165 37.884 136.166C37.998 136.167 38.1098 136.197 38.208 136.255Z" fill="#007683"/>
<path d="M38.0885 138.787L40.3231 140.092C40.442 140.17 40.5797 140.216 40.7219 140.223C40.8642 140.23 41.0057 140.199 41.1319 140.133C41.2582 140.067 41.3644 139.968 41.4397 139.847C41.515 139.725 41.5566 139.586 41.5601 139.443C41.5617 139.464 41.5617 139.486 41.5601 139.507V139.932C41.5711 140.082 41.5397 140.232 41.4695 140.365C41.3992 140.498 41.293 140.609 41.163 140.684C41.033 140.759 40.8845 140.796 40.7345 140.791C40.5846 140.785 40.4392 140.737 40.3151 140.652L38.0805 139.347C37.8204 139.192 37.605 138.971 37.4554 138.708C37.3057 138.444 37.2268 138.145 37.2266 137.842V137.289C37.2275 137.592 37.3075 137.89 37.4587 138.153C37.6099 138.416 37.827 138.634 38.0885 138.787Z" fill="#2B5D66"/>
<path d="M26.8353 108.574C26.5612 108.408 26.2554 108.302 25.9378 108.263C25.6202 108.224 25.2979 108.253 24.9921 108.347C24.6863 108.442 24.4038 108.6 24.1631 108.811C23.9223 109.023 23.7288 109.283 23.5951 109.574L18.639 120.297C18.4125 120.806 18.3836 121.381 18.5578 121.909C18.732 122.438 19.0968 122.883 19.5807 123.156L41.6796 135.968C41.9175 136.091 42.1823 136.151 42.4495 136.144C42.7167 136.137 42.9779 136.063 43.2091 135.928C43.4403 135.793 43.634 135.602 43.7726 135.373C43.9111 135.144 43.99 134.883 44.002 134.615V120.713C44.003 120.155 43.8556 119.606 43.5751 119.123C43.2946 118.64 42.891 118.241 42.4059 117.967L26.8353 108.574Z" fill="#A2C2DD"/>
<path d="M42.4769 135.359C42.348 135.355 42.222 135.319 42.1098 135.255L20.0109 122.443C19.6988 122.265 19.4634 121.978 19.3499 121.636C19.2365 121.294 19.253 120.923 19.3964 120.593L24.3205 109.886C24.4387 109.627 24.6288 109.408 24.868 109.255C25.1072 109.101 25.3854 109.02 25.6693 109.021C25.9372 109.021 26.1998 109.096 26.4275 109.238L42.022 118.655C42.3889 118.858 42.695 119.156 42.9083 119.518C43.1217 119.88 43.2345 120.292 43.2351 120.713V134.599C43.2362 134.7 43.217 134.8 43.1786 134.894C43.1403 134.987 43.0835 135.072 43.0116 135.143C42.8665 135.279 42.6758 135.357 42.4769 135.359Z" fill="#C4D9ED"/>
<path d="M25.5227 129.185C25.5907 129.187 25.6578 129.169 25.7169 129.136C25.7759 129.102 25.8247 129.052 25.8579 128.993C25.8851 128.949 25.9031 128.9 25.911 128.849C25.9189 128.798 25.9164 128.746 25.9037 128.696C25.891 128.646 25.8685 128.599 25.8373 128.558C25.8061 128.516 25.767 128.482 25.7222 128.456L23.0646 126.855C22.371 126.432 21.7975 125.837 21.3992 125.127C21.0009 124.418 20.7911 123.617 20.7901 122.803V112.393C20.7879 111.615 20.9778 110.849 21.3426 110.163C21.7075 109.477 22.236 108.892 22.8811 108.461L25.4988 106.707C25.5796 106.647 25.6341 106.557 25.6509 106.458C25.6677 106.358 25.6454 106.256 25.5888 106.172C25.5322 106.088 25.4456 106.03 25.347 106.009C25.2485 105.988 25.1456 106.005 25.0598 106.059L22.4501 107.804C21.6959 108.307 21.0775 108.989 20.6499 109.789C20.2224 110.59 19.9991 111.484 20 112.393V122.803C20.0037 123.753 20.2499 124.686 20.7152 125.513C21.1804 126.34 21.8492 127.033 22.6576 127.528L25.3232 129.129C25.3828 129.167 25.4522 129.187 25.5227 129.185Z" fill="#2B5D66"/>
<path d="M18.5183 123.691L20.4098 122.594C20.8692 122.26 21.2452 121.824 21.5083 121.32C21.7714 120.815 21.9144 120.257 21.9261 119.688V113.954C21.9261 112.841 21.2398 112.352 20.4098 112.809L18.5183 113.906C18.0568 114.236 17.6791 114.67 17.4157 115.174C17.1523 115.677 17.0106 116.236 17.002 116.805V122.538C17.0419 123.619 17.6803 124.172 18.5183 123.691Z" fill="#2B5D66"/>
<g style="mix-blend-mode:color-dodge">
<path d="M18.5164 114.28L20.4078 113.183C20.5815 113.05 20.7974 112.986 21.015 113.002C21.2326 113.019 21.4367 113.114 21.589 113.271C21.3563 113.258 21.1253 113.317 20.9266 113.439L19.0351 114.536C18.5757 114.87 18.1997 115.307 17.9366 115.811C17.6735 116.315 17.5305 116.874 17.5187 117.443V123.193C17.4947 123.575 17.6143 123.952 17.8539 124.25C17.3511 124.21 17 123.729 17 122.928V117.195C17.0061 116.623 17.1466 116.062 17.4101 115.555C17.6736 115.049 18.0527 114.612 18.5164 114.28Z" fill="#2B5D66"/>
</g>
<path d="M20.402 153.322V159.344L10.3302 152.937C10.129 152.811 9.96335 152.635 9.84884 152.426C9.73433 152.217 9.67477 151.982 9.67579 151.744V146.139L20.402 153.322Z" fill="#007683"/>
<path d="M12.0391 146.105V144.352C11.7824 144.51 11.5158 144.652 11.241 144.776C8.71108 146.033 9.4533 146.674 11.1931 147.731C12.2705 148.379 20.3631 153.336 20.3631 153.336L21.9592 152.287L12.0391 146.105Z" fill="#007683"/>
<path d="M16.7383 146.826V158.702L23.1629 155.082L22.7319 143.23L16.7383 146.826Z" fill="#2B5D66"/>
<path d="M45.3499 164.364C45.3499 167.808 44.1608 170.25 42.2374 171.427L36.3635 174.87C34.3603 175.992 35.6453 173.445 32.5966 171.667C26.4753 168.12 21.5112 159.527 21.5112 152.449C21.5112 148.965 18.3189 148.933 20.2662 147.772L26.5152 144.305C28.5104 143.216 31.2478 143.416 34.2566 145.161C40.3859 148.717 45.3499 157.309 45.3499 164.364Z" fill="#19352A"/>
<path d="M35.9892 174.986C40.2929 172.461 40.2491 164.352 35.8914 156.872C31.5336 149.393 24.5122 145.376 20.2085 147.9C15.9048 150.424 15.9486 158.534 20.3064 166.014C24.6641 173.493 31.6855 177.51 35.9892 174.986Z" fill="#2B5D66"/>
<path d="M33.7987 171.56C36.8657 169.761 36.8346 163.982 33.7293 158.652C30.6239 153.322 25.6202 150.459 22.5533 152.258C19.4863 154.057 19.5174 159.836 22.6227 165.167C25.7281 170.497 30.7318 173.359 33.7987 171.56Z" fill="#007683"/>
<path d="M36.0121 166.061C36.0676 167.416 35.7174 168.758 35.0066 169.912C33.6578 170.889 31.6785 170.857 29.4758 169.584C25.4056 167.182 22.1016 161.504 22.1016 156.82C22.1016 153.432 23.8254 151.502 26.3154 151.582C26.9389 151.782 27.5385 152.051 28.1031 152.383C32.4686 154.85 36.0121 160.992 36.0121 166.061Z" fill="#19352A"/>
<path d="M23.595 151.359C22.1824 152.16 21.3125 153.938 21.3125 156.436C21.3125 161.457 24.848 167.583 29.2135 170.106C30.5437 170.989 32.1552 171.34 33.7306 171.091C32.2941 171.931 30.3068 171.819 28.1041 170.538C23.7386 168.016 20.2031 161.89 20.2031 156.869C20.235 153.77 21.5439 151.824 23.595 151.359Z" fill="#007683"/>
<path d="M31.1206 162.683C31.1206 163.996 30.1948 164.525 29.0455 163.86C28.445 163.47 27.9448 162.943 27.5856 162.323C27.2264 161.702 27.0184 161.005 26.9785 160.289C26.9785 158.967 27.9043 158.439 29.0455 159.103C29.6477 159.494 30.1495 160.022 30.51 160.644C30.8706 161.266 31.0798 161.965 31.1206 162.683Z" fill="url(#paint2_radial_224_100856)"/>
<path style="mix-blend-mode:screen" d="M28.6386 148.443C25.7017 146.746 23.052 146.514 21.0488 147.515C22.9004 146.994 25.1989 147.378 27.6809 148.82C33.8022 152.367 38.7743 160.96 38.7743 168.039C38.7743 171.706 37.4255 174.237 35.2707 175.318C37.9762 174.517 39.7319 171.85 39.7319 167.662C39.7319 160.543 34.7599 151.951 28.6386 148.443Z" fill="url(#paint3_radial_224_100856)"/>
<path d="M28.2154 154.633C28.2371 154.991 28.3414 155.338 28.5201 155.648C28.6988 155.958 28.947 156.222 29.245 156.419C29.8196 156.747 30.2825 156.483 30.2825 155.826C30.2624 155.468 30.1579 155.119 29.9776 154.808C29.7973 154.498 29.5462 154.235 29.245 154.041C28.6624 153.712 28.2154 153.977 28.2154 154.633ZM28.2154 166.765C28.2353 167.123 28.3388 167.471 28.5177 167.781C28.6965 168.092 28.9457 168.355 29.245 168.551C29.8196 168.879 30.2825 168.615 30.2825 167.958C30.2624 167.6 30.1579 167.251 29.9776 166.94C29.7973 166.63 29.5462 166.367 29.245 166.173C28.6624 165.844 28.2154 166.108 28.2154 166.765ZM26.2522 154.425C25.8531 153.728 25.1987 153.352 24.7917 153.584C24.3846 153.816 24.3926 154.569 24.7917 155.266C25.1907 155.963 25.8531 156.339 26.2522 156.107C26.6512 155.874 26.6193 155.13 26.2362 154.425H26.2522ZM32.2059 168.158C32.6049 168.855 33.2593 169.24 33.6663 169.007C34.0734 168.775 34.0654 168.022 33.6663 167.326C33.2673 166.629 32.6049 166.253 32.2059 166.477C31.8068 166.701 31.8228 167.462 32.2059 168.158ZM22.9082 157.644C22.928 158.002 23.0315 158.35 23.2104 158.66C23.3892 158.971 23.6384 159.234 23.9377 159.43C24.5124 159.758 24.9752 159.494 24.9752 158.837C24.9552 158.479 24.8507 158.13 24.6704 157.819C24.49 157.509 24.239 157.246 23.9377 157.052C23.427 156.723 22.9321 156.988 22.9321 157.644H22.9082ZM33.4429 163.746C33.4629 164.105 33.5674 164.454 33.7478 164.764C33.9281 165.075 34.1792 165.338 34.4804 165.532C35.047 165.868 35.5099 165.604 35.5099 164.947C35.4901 164.589 35.3866 164.241 35.2077 163.931C35.0289 163.621 34.7797 163.357 34.4804 163.162C33.9297 162.857 33.4668 163.09 33.4668 163.746H33.4429ZM24.7518 163.842C25.1588 164.539 25.8132 164.923 26.2123 164.691C26.6113 164.459 26.6193 163.706 26.2123 163.009C25.8052 162.313 25.1588 161.928 24.7518 162.161C24.3448 162.393 24.3767 163.146 24.7757 163.842H24.7518ZM32.2059 159.582C32.6049 160.279 33.2593 160.655 33.6663 160.383C34.0734 160.111 34.0654 159.406 33.6663 158.701C33.2673 157.997 32.6049 157.628 32.2059 157.86C31.8068 158.093 31.8228 158.853 32.2059 159.582Z" fill="#007683"/>
<path d="M32.4301 162.683C32.4684 163.054 32.4089 163.429 32.2577 163.771C32.1065 164.112 31.8687 164.408 31.5681 164.628L30.2832 165.429C29.7325 165.742 30.0837 165.037 29.2457 164.548C28.3575 163.971 27.6176 163.192 27.0864 162.273C26.5553 161.355 26.2478 160.323 26.1891 159.263C26.1891 158.302 25.3032 158.294 25.8459 157.974L27.2266 157.173C27.5738 157.022 27.9542 156.964 28.3305 157.005C28.7068 157.046 29.0662 157.184 29.3734 157.405C30.2598 157.983 30.9982 158.761 31.5292 159.678C32.0602 160.595 32.3688 161.624 32.4301 162.683Z" fill="#007683"/>
<path d="M31.0645 163.483C31.0645 165.429 29.6918 166.205 28.0078 165.229C27.1195 164.651 26.3797 163.872 25.8486 162.953C25.3174 162.035 25.0099 161.004 24.9512 159.943C24.9512 157.997 26.3159 157.213 28.0078 158.19C28.8949 158.77 29.6337 159.551 30.1647 160.471C30.6956 161.39 31.0038 162.422 31.0645 163.483Z" fill="#19352A"/>
<path d="M41.9976 171.924V161.449L34.0487 147.692L22.8516 141.206L29.6113 137.338L40.8483 143.848L48.7972 157.606V168.08L41.9976 171.924Z" fill="#2B5D66"/>
<path d="M41.9977 161.449L34.0488 147.691L40.8485 143.848L48.7974 157.605L41.9977 161.449Z" fill="#2B5D66"/>
<path d="M40.1226 170.907V161.954L32.6845 149.077L22.8042 143.352L16.7388 146.827V158.703L14.8633 157.622V145.73L22.8122 141.182L34.0492 147.692L41.9981 161.449V171.988L40.1226 170.907Z" fill="#2B5D66"/>
<path style="mix-blend-mode:color-dodge" d="M41.7976 161.201L33.8567 147.452L22.7793 141.037L23.2023 140.789L34.4473 147.299L42.3882 161.057V171.675L41.7976 171.339V161.201Z" fill="url(#paint4_radial_224_100856)"/>
<path style="mix-blend-mode:color-dodge" d="M16.5469 157.982V146.579L22.6123 143.111L22.7719 143.207L17.1374 146.435V158.318L16.5469 157.982Z" fill="url(#paint5_radial_224_100856)"/>
<g style="mix-blend-mode:multiply">
<path d="M12.0859 138.354V143.903L13.7539 144.864V139.387L12.0859 138.354Z" fill="#81120B"/>
</g>
<path d="M12.0859 143.905L13.7539 144.865V140.453L12.0859 143.905Z" fill="url(#paint6_linear_224_100856)"/>
<path style="mix-blend-mode:multiply" d="M12.0859 143.367V143.904L13.7539 144.865V144.4L12.0859 143.367Z" fill="url(#paint7_linear_224_100856)"/>
<path d="M12.1586 142.478C12.1985 142.999 12.5816 143.175 13.0046 142.879C13.2291 142.706 13.4097 142.483 13.5317 142.226C13.6538 141.97 13.7138 141.689 13.7069 141.405C13.667 140.885 13.2839 140.709 12.861 141.005C12.637 141.178 12.4567 141.402 12.3347 141.658C12.2127 141.914 12.1524 142.195 12.1586 142.478Z" fill="url(#paint8_linear_224_100856)"/>
<path d="M91.2469 184.624V195.187L55.7402 174.518V163.996L91.2469 184.624Z" fill="#2B5D66"/>
<path d="M91.248 184.624V195.186L101.224 189.485V178.898L91.248 184.624Z" fill="url(#paint9_linear_224_100856)"/>
<path d="M101.223 178.897L91.2469 184.623L55.7402 163.995L65.7242 158.277L101.223 178.897Z" fill="url(#paint10_linear_224_100856)"/>
<path d="M85.398 193.44L83.5863 194.505L54.1211 177.465L55.9487 176.424L85.398 193.44Z" fill="#2B5D66"/>
<path d="M54.082 166.647V177.489L55.9495 176.44V165.525L54.082 166.647Z" fill="#2B5D66"/>
<path d="M51.4004 163.658V178.953L86.2686 199.237V183.806L51.4004 163.658ZM54.1219 168.375L83.5551 185.391V194.504L54.1219 177.384V168.375Z" fill="#007683"/>
<path d="M86.252 183.806V199.229L88.5425 198.068V182.549L86.252 183.806Z" fill="#2B5D66"/>
<path d="M88.5432 182.549L86.2527 183.807L51.4004 163.651L53.7148 162.426L88.5432 182.549Z" fill="#2B5D66"/>
<path d="M94.8555 182.982V203.018L98.3032 201.08V180.916L94.8555 182.982Z" fill="#2B5D66"/>
<path d="M124.408 209.472C124.408 212.899 123.235 215.325 121.319 216.495L115.206 220.05C113.211 221.163 114.488 218.625 111.455 216.847C105.366 213.324 100.433 204.779 100.433 197.764C100.433 194.297 97.2411 194.273 99.1964 193.112L105.677 189.508C107.664 188.435 110.386 188.627 113.378 190.365C119.476 193.921 124.408 202.465 124.408 209.472Z" fill="#2B5D66"/>
<path d="M114.85 220.192C119.13 217.681 119.088 209.616 114.755 202.179C110.421 194.741 103.438 190.747 99.1574 193.258C94.8766 195.769 94.9191 203.834 99.2523 211.272C103.586 218.709 110.569 222.703 114.85 220.192Z" fill="#19352A"/>
<path style="mix-blend-mode:screen" d="M107.528 193.76C104.607 192.07 101.942 191.838 99.9863 192.831C101.822 192.319 104.104 192.703 106.579 194.136C112.668 197.66 117.6 206.204 117.6 213.219C117.6 216.863 116.259 219.377 114.12 220.426C116.81 219.673 118.558 216.983 118.558 212.819C118.558 205.836 113.61 197.291 107.528 193.76Z" fill="url(#paint11_radial_224_100856)"/>
<path d="M106.914 199.07C102.979 196.796 99.7871 198.622 99.7871 203.146C99.7871 207.671 102.979 213.204 106.914 215.478C110.849 217.752 114.041 215.927 114.041 211.402C114.041 206.878 110.841 201.344 106.914 199.07Z" fill="#19352A"/>
<path d="M109.444 213.844C105.517 211.57 102.317 206.036 102.317 201.512C102.275 200.33 102.568 199.161 103.163 198.141C101.136 198.413 99.7871 200.207 99.7871 203.146C99.7871 207.67 102.979 213.203 106.914 215.478C109.627 217.079 111.998 216.663 113.195 214.773C111.876 214.891 110.556 214.564 109.444 213.844Z" fill="#007683"/>
<path style="mix-blend-mode:multiply" d="M111.853 210.77C111.853 213.564 109.882 214.693 107.456 213.284C106.178 212.452 105.114 211.33 104.35 210.008C103.586 208.686 103.144 207.202 103.059 205.677C103.059 202.882 105.03 201.761 107.456 203.162C108.733 203.995 109.796 205.117 110.56 206.439C111.324 207.761 111.767 209.244 111.853 210.77Z" fill="url(#paint12_linear_224_100856)"/>
<path d="M111.495 209.167C111.495 211.569 109.835 212.49 107.776 211.297C106.693 210.592 105.791 209.641 105.144 208.521C104.496 207.401 104.121 206.143 104.049 204.85C104.049 202.488 105.717 201.535 107.776 202.72C108.858 203.425 109.758 204.377 110.404 205.497C111.051 206.617 111.424 207.874 111.495 209.167Z" fill="#007683"/>
<path d="M110.481 209.872C110.481 212.274 108.821 213.195 106.762 212.002C105.679 211.297 104.778 210.346 104.13 209.226C103.482 208.106 103.107 206.848 103.035 205.556C103.035 203.193 104.703 202.24 106.762 203.425C107.844 204.131 108.745 205.082 109.391 206.202C110.037 207.322 110.411 208.579 110.481 209.872Z" fill="#19352A"/>
<path d="M123.651 199.558V219.594L120.099 217.528V201.592L94.8798 187.074V203.01L91.3203 200.952V180.916L123.651 199.558Z" fill="#2B5D66"/>
<path d="M123.682 199.589V219.633L127.129 217.695V197.523L123.682 199.589Z" fill="#2B5D66"/>
<path d="M128.567 202.505V215.958L127.25 214.901V201.488L128.567 202.505Z" fill="url(#paint13_linear_224_100856)"/>
<path d="M128.559 202.506V215.959L171.328 191.319V177.85L128.559 202.506Z" fill="#1E425C"/>
<path d="M171.328 177.849L128.559 202.505L127.25 201.488L170.027 176.84L171.328 177.849Z" fill="url(#paint14_linear_224_100856)"/>
<path d="M127.075 198.726V213.148L125.67 212.019V197.637L127.075 198.726Z" fill="url(#paint15_linear_224_100856)"/>
<path d="M127.074 198.725V213.147L172.916 186.737V172.299L127.074 198.725Z" fill="#2B5D66"/>
<path d="M172.916 172.3L127.075 198.726L125.67 197.637L171.52 171.219L172.916 172.3Z" fill="url(#paint16_linear_224_100856)"/>
<path d="M127.776 150.446V206.405L51.1602 161.609V105.811L127.776 150.446Z" fill="#007683"/>
<g style="mix-blend-mode:multiply">
<path d="M123.849 152.719L55.0859 112.656V159.342L123.849 199.557V152.719Z" fill="#E5E9FF"/>
</g>
<g style="mix-blend-mode:multiply">
<path d="M123.849 152.719V156.843L56.4586 117.581V160.143L55.0859 159.342V112.656L123.849 152.719Z" fill="#CED3F4"/>
</g>
<path d="M127.76 150.446V206.404L173.179 180.475V124.404L127.76 150.446Z" fill="#007683"/>
<path d="M169.253 178.185V131.188L131.68 152.737V199.638L169.253 178.185Z" fill="#2B5D66"/>
<path d="M173.019 124.596L127.6 150.637L51 106.001L96.4508 80L173.019 124.596Z" fill="#2B5D66"/>
<g style="mix-blend-mode:multiply">
<path d="M131.68 156.316L169.166 178.241L169.253 178.185V131.188L131.68 152.737V156.316Z" fill="#AFB6E5"/>
</g>
<g style="mix-blend-mode:multiply">
<path d="M159.898 192.951L159.946 191.646C159.948 191.33 159.866 191.02 159.71 190.746C159.554 190.472 159.328 190.244 159.056 190.086C158.784 189.928 158.475 189.844 158.161 189.844C157.846 189.843 157.537 189.926 157.265 190.084L145.533 196.867C144.636 197.386 143.89 198.132 143.372 199.032C142.854 199.932 142.58 200.953 142.58 201.992V203.009L159.898 192.951Z" fill="#AFB6E5"/>
</g>
<path d="M145.805 197.891V201.047L157.161 194.616V191.373L145.805 197.891Z" fill="#007683"/>
<path style="mix-blend-mode:color-dodge" d="M157.161 191.373V191.846L146.188 198.148V200.838L145.805 201.047V197.891L157.161 191.373Z" fill="url(#paint17_radial_224_100856)"/>
<path d="M165.303 185.977V189.076L172.438 184.968V181.861L165.303 185.977Z" fill="url(#paint18_linear_224_100856)"/>
<path d="M168.846 183.951V187.05L172.437 184.968V181.861L168.846 183.951Z" fill="url(#paint19_linear_224_100856)"/>
<path d="M167.672 185.928L166.746 187.898C166.746 187.898 165.341 186.729 165.621 186.12C165.9 185.512 167.672 185.928 167.672 185.928Z" fill="url(#paint20_linear_224_100856)"/>
<path d="M166.443 187.329C166.443 187.826 166.795 188.026 167.241 187.778C167.472 187.63 167.664 187.429 167.803 187.193C167.941 186.956 168.022 186.69 168.04 186.416C168.04 185.92 167.688 185.72 167.241 185.968C167.011 186.116 166.819 186.316 166.68 186.553C166.542 186.789 166.46 187.055 166.443 187.329Z" fill="url(#paint21_linear_224_100856)"/>
<path d="M171.647 183.567L170.713 185.537C170.713 185.537 169.308 184.368 169.588 183.759C169.867 183.15 171.647 183.567 171.647 183.567Z" fill="url(#paint22_linear_224_100856)"/>
<path d="M170.41 184.968C170.41 185.464 170.761 185.665 171.208 185.416C171.439 185.268 171.631 185.068 171.769 184.831C171.908 184.595 171.989 184.329 172.006 184.055C172.006 183.558 171.655 183.358 171.208 183.607C170.978 183.755 170.786 183.955 170.647 184.191C170.508 184.428 170.427 184.694 170.41 184.968Z" fill="url(#paint23_linear_224_100856)"/>
<path style="mix-blend-mode:color-dodge" d="M166.34 186.977C166.994 188.483 169.812 188.707 172.629 187.482C175.446 186.257 177.202 184.023 176.547 182.517C175.893 181.012 173.076 180.787 170.259 182.013C167.441 183.238 165.686 185.472 166.34 186.977Z" fill="url(#paint24_radial_224_100856)"/>
<path d="M127.305 207.741V210.84L134.448 206.732V203.625L127.305 207.741Z" fill="url(#paint25_linear_224_100856)"/>
<path d="M130.857 205.715V208.814L134.449 206.732V203.625L130.857 205.715Z" fill="url(#paint26_linear_224_100856)"/>
<path d="M129.683 207.703L128.773 209.664C128.773 209.664 127.369 208.495 127.648 207.887C127.927 207.278 129.683 207.703 129.683 207.703Z" fill="url(#paint27_linear_224_100856)"/>
<path d="M128.447 209.087C128.447 209.591 128.798 209.792 129.245 209.535C129.475 209.389 129.668 209.19 129.807 208.955C129.945 208.72 130.026 208.455 130.043 208.182C130.043 207.685 129.692 207.485 129.245 207.733C129.016 207.881 128.824 208.08 128.686 208.315C128.547 208.55 128.466 208.814 128.447 209.087Z" fill="url(#paint28_linear_224_100856)"/>
<path d="M133.649 205.299L132.764 207.301C132.764 207.301 131.359 206.132 131.638 205.524C131.918 204.915 133.649 205.299 133.649 205.299Z" fill="url(#paint29_linear_224_100856)"/>
<path d="M132.42 206.725C132.42 207.23 132.771 207.43 133.218 207.174C133.448 207.028 133.64 206.829 133.779 206.594C133.918 206.358 133.999 206.093 134.016 205.821C134.016 205.324 133.665 205.124 133.218 205.372C132.989 205.519 132.797 205.719 132.658 205.954C132.52 206.189 132.438 206.453 132.42 206.725Z" fill="url(#paint30_linear_224_100856)"/>
<path style="mix-blend-mode:color-dodge" d="M126.922 209.559C127.576 211.064 130.394 211.289 133.211 210.055C136.028 208.822 137.784 206.604 137.13 205.099C136.475 203.593 133.658 203.361 130.841 204.594C128.023 205.827 126.268 208.045 126.922 209.559Z" fill="url(#paint31_radial_224_100856)"/>
<path d="M137.465 163.754V180.875L153.921 171.306V154.049L137.465 163.754Z" fill="url(#paint32_linear_224_100856)"/>
<path d="M137.48 163.755V180.876L121.854 171.819V154.562L137.48 163.755Z" fill="url(#paint33_linear_224_100856)"/>
<path d="M121.854 154.562L137.48 163.755L153.92 154.049L138.262 144.904L121.854 154.562Z" fill="url(#paint34_linear_224_100856)"/>
<path opacity="0.5" d="M121.854 154.561L137.48 163.754L153.92 154.049L137.48 163.49L121.854 154.561Z" fill="url(#paint35_linear_224_100856)"/>
<path d="M144.439 159.712V164.3L148.159 162.17V157.438L144.439 159.712Z" fill="url(#paint36_linear_224_100856)"/>
<path d="M128.838 150.509L144.464 159.71L148.16 157.436L132.501 148.291L128.838 150.509Z" fill="url(#paint37_linear_224_100856)"/>
<path d="M140.594 169.969L139.285 174.021L140.131 173.532V178.361L141.049 177.824V172.996L141.895 172.507L140.594 169.969Z" fill="url(#paint38_linear_224_100856)"/>
<path d="M145.063 170.673L143.762 168.127L142.453 172.179L143.299 171.69V176.519L144.217 175.991V171.162L145.063 170.673Z" fill="url(#paint39_linear_224_100856)"/>
<path d="M153.625 172.475V183.382L164.104 177.288V166.293L153.625 172.475Z" fill="url(#paint40_linear_224_100856)"/>
<path d="M153.642 172.475V183.381L143.689 177.608V166.621L153.642 172.475Z" fill="url(#paint41_linear_224_100856)"/>
<path d="M143.689 166.623L153.642 172.476L164.104 166.294L154.136 160.473L143.689 166.623Z" fill="url(#paint42_linear_224_100856)"/>
<path opacity="0.5" d="M143.689 166.621L153.642 172.475L164.104 166.293L153.642 172.307L143.689 166.621Z" fill="url(#paint43_linear_224_100856)"/>
<path d="M158.07 169.904V172.827L160.441 171.466V168.455L158.07 169.904Z" fill="url(#paint44_linear_224_100856)"/>
<path d="M148.135 164.042L158.087 169.904L160.441 168.455L150.473 162.633L148.135 164.042Z" fill="url(#paint45_linear_224_100856)"/>
<path d="M155.621 176.432L154.791 179.01L155.326 178.698V181.781L155.908 181.437V178.362L156.451 178.049L155.621 176.432Z" fill="url(#paint46_linear_224_100856)"/>
<path d="M158.471 176.879L157.641 175.262L156.811 177.84L157.345 177.528V180.611L157.928 180.267V177.192L158.471 176.879Z" fill="url(#paint47_linear_224_100856)"/>
<path d="M107.927 174.181C103.872 171.827 100.568 166.109 100.568 161.441C100.568 156.772 103.872 154.874 107.927 157.228C111.981 159.583 115.293 165.292 115.293 169.969C115.293 174.645 112.013 176.535 107.927 174.181ZM107.927 158.902C104.671 157.02 102.021 158.534 102.021 162.281C102.137 164.33 102.732 166.323 103.758 168.098C104.784 169.873 106.212 171.381 107.927 172.499C111.183 174.389 113.832 172.876 113.832 169.12C113.716 167.071 113.121 165.079 112.095 163.304C111.069 161.529 109.641 160.021 107.927 158.902Z" fill="#8DDCA4"/>
<path d="M112.364 169.209L107.225 166.214V159.808C107.225 159.343 107.552 159.159 107.951 159.391C108.164 159.528 108.341 159.713 108.469 159.931C108.596 160.15 108.671 160.396 108.685 160.649V165.349L112.388 167.495C112.602 167.632 112.78 167.819 112.908 168.039C113.036 168.259 113.109 168.506 113.122 168.76C113.099 169.265 112.811 169.441 112.364 169.209Z" fill="#8DDCA4"/>
<path d="M61.168 131.627L63.4665 132.964C64.1713 133.351 64.7545 133.928 65.1504 134.63C65.5338 135.354 65.7261 136.164 65.7091 136.984V142.59C65.7091 143.487 65.5255 144.055 65.1504 144.295C64.7753 144.536 64.2167 144.447 63.4665 144.015L61.168 142.686V131.627ZM63.4425 142.397C63.6899 142.542 63.8735 142.566 64.0091 142.478C64.1448 142.389 64.2087 142.149 64.2087 141.773V136.039C64.2187 135.715 64.1502 135.394 64.0091 135.102C63.8785 134.858 63.6822 134.656 63.4425 134.518L62.6444 134.077V141.957L63.4425 142.397Z" fill="#8DDCA4"/>
<path d="M66.7227 134.83L70.8328 137.232V138.834L68.231 137.329V140.243L70.2981 141.437V143.038L68.231 141.845V145.232L70.8328 146.738V148.339L66.7227 145.937V134.83Z" fill="#8DDCA4"/>
<path d="M71.6955 137.713L73.1959 138.586V148.035L75.6779 149.468V151.07L71.6875 148.764L71.6955 137.713Z" fill="#8DDCA4"/>
<path d="M76.4043 140.436L77.9047 141.308V152.343L76.4043 151.47V140.436Z" fill="#8DDCA4"/>
<path d="M78.6309 141.734L80.1552 142.607L81.1368 151.736L82.1264 143.728L83.5071 144.529L82.0546 154.723L80.0594 153.562L78.6309 141.734Z" fill="#8DDCA4"/>
<path d="M84.2559 144.992L88.358 147.395V148.996L85.7642 147.491V150.405L87.8313 151.607V153.208L85.7642 152.007V155.394L88.358 156.9V158.501L84.2559 156.099V144.992Z" fill="#8DDCA4"/>
<path d="M89.2285 147.867L91.4552 149.156C92.1528 149.53 92.7394 150.083 93.1551 150.758C93.5248 151.44 93.7092 152.208 93.6898 152.984V153.657C93.6898 154.802 93.3546 155.339 92.7002 155.258C93.0699 155.588 93.3454 156.011 93.4983 156.484C93.6581 157.032 93.7335 157.602 93.7217 158.173V160.111C93.7064 160.378 93.7064 160.645 93.7217 160.912C93.7424 161.135 93.7879 161.355 93.8574 161.569L92.3251 160.68C92.2724 160.494 92.235 160.303 92.2133 160.111C92.2133 159.946 92.2133 159.657 92.2133 159.246V157.252C92.233 156.849 92.1593 156.446 91.9979 156.075C91.8294 155.768 91.5739 155.517 91.2636 155.355L90.7449 155.05V159.775L89.2445 158.902L89.2285 147.867ZM91.2796 153.785C91.5749 153.961 91.8063 154.001 91.958 153.905C92.1096 153.809 92.1814 153.561 92.1814 153.144V152.288C92.1935 151.955 92.1308 151.624 91.9979 151.319C91.8693 151.061 91.6662 150.849 91.4153 150.71L90.7289 150.318V153.465L91.2796 153.785Z" fill="#8DDCA4"/>
<path d="M95.8997 158.053L94.0801 150.662L95.6762 151.591L96.7058 156.236L97.7353 152.784L99.1958 153.633L97.3762 158.91V163.659L95.8678 162.786L95.8997 158.053Z" fill="#8DDCA4"/>
<path d="M234.806 160.408C231.534 161.345 227.711 164.708 225.492 165.91C223.274 167.111 220.935 168.664 220.632 168.64C220.329 168.616 218.781 168.056 218.238 168.264C217.853 168.414 217.507 168.65 217.224 168.953C217.073 169.355 217.073 169.799 217.224 170.202C217.224 170.266 217.847 170.202 217.847 170.202C217.288 170.576 216.858 171.113 216.612 171.74C216.367 172.367 216.319 173.054 216.474 173.709C216.474 174.214 216.69 174.63 216.905 174.646C217.018 174.667 217.135 174.667 217.248 174.646C217.248 174.646 217.312 175.487 217.727 175.663L218.142 175.839C218.142 175.839 218.461 176.304 218.693 176.344C218.879 176.336 219.057 176.262 219.196 176.136C219.196 176.136 219.196 176.256 219.587 176.136C219.978 176.015 220.209 175.103 220.552 174.758C221.115 174.246 221.603 173.659 222.005 173.013C222.308 172.372 222.532 171.483 223.282 171.083C224.032 170.682 229.211 168.496 230.464 168.072C232.978 167.215 237.28 164.348 237.28 164.348L234.806 160.408Z" fill="#FFD4C0"/>
<g style="mix-blend-mode:multiply" opacity="0.5">
<path d="M219.268 169.089C218.964 169.008 218.646 168.989 218.334 169.033C218.217 169.227 218.11 169.428 218.015 169.634C217.951 169.788 217.838 169.916 217.694 169.999C217.549 170.081 217.381 170.114 217.217 170.09C217.228 170.129 217.244 170.167 217.265 170.202C217.337 170.338 217.672 170.322 217.863 170.202L218.015 170.09C218.112 170.269 218.161 170.471 218.159 170.675C218.198 171.131 219.667 172.476 220.305 172.388C220.944 172.3 221.103 172.012 221.247 170.787C221.391 169.562 219.97 169.458 219.268 169.089Z" fill="#F1D5BE"/>
</g>
<g style="mix-blend-mode:multiply" opacity="0.5">
<path d="M218.159 175.79C218.175 175.461 218.154 175.13 218.095 174.805L217.928 174.325L218.582 173.252C218.722 173.032 218.819 172.787 218.869 172.531L219.277 173.132L218.478 174.325V176.159L218.159 175.79Z" fill="#F1D5BE"/>
</g>
<g style="mix-blend-mode:multiply" opacity="0.5">
<path d="M219.1 176.214C219.157 175.994 219.157 175.762 219.1 175.542C219.048 175.419 219.014 175.289 218.996 175.157L219.706 173.756L220.209 174.244C219.919 174.458 219.677 174.731 219.499 175.045C219.422 175.443 219.39 175.849 219.403 176.254L219.1 176.214Z" fill="#F1D5BE"/>
</g>
<g style="mix-blend-mode:multiply" opacity="0.5">
<path d="M217.154 175.022C217.154 175.022 217.281 174.309 217.385 173.933C217.489 173.557 217.728 172.884 217.72 172.828C217.879 172.598 218.052 172.379 218.239 172.171L217.656 171.715C217.61 171.926 217.543 172.133 217.457 172.331C217.277 172.608 217.14 172.911 217.05 173.228C217.05 173.629 216.882 174.173 216.914 174.397C216.97 174.614 217.051 174.824 217.154 175.022Z" fill="#F1D5BE"/>
</g>
<path d="M221.383 167.983L223.33 171.482L236.698 165.733L232.995 160.271L221.383 167.983Z" fill="#8DDCA4"/>
<path d="M238.765 146.299C240.673 146.707 243.003 146.403 241.271 151.392C239.875 155.396 241.175 175.151 240.098 182.622C239.827 184.496 235.533 185.025 235.533 185.025C235.533 185.025 230.322 167.544 230.369 162.29C230.417 157.037 233.003 147.876 233.003 147.876L238.765 146.299Z" fill="#E5E9FF"/>
<path d="M235.757 152.832L235.086 152.032L236.395 150.814H236.698L237.704 152.464L236.906 152.969L235.797 169.689L234.998 178.001C234.152 175.29 233.722 172.466 233.722 169.625C233.674 164.524 235.757 152.832 235.757 152.832Z" fill="url(#paint48_linear_224_100856)"/>
<path d="M237.433 222.323L237.664 223.661C237.716 223.972 237.666 224.293 237.522 224.574C237.379 224.855 237.149 225.082 236.866 225.222C236.626 225.347 236.378 225.457 236.124 225.551C235.589 225.719 232.038 227.953 230.538 228.241C229.037 228.529 227.808 228.041 227.784 227.577C227.76 227.112 228.175 226.359 229.636 225.406C230.757 224.505 231.685 223.386 232.365 222.115L237.433 222.323Z" fill="#390604"/>
<path d="M237.552 223.837C237.336 224.109 235.285 224.469 234.208 225.302C233.131 226.135 231.199 227.496 229.93 227.705C228.661 227.913 227.895 227.328 228.007 226.904C228.166 226.263 229.22 225.679 230.146 224.974C230.894 224.287 231.542 223.497 232.069 222.628L237.336 222.283L237.552 223.837Z" fill="#390604"/>
<path d="M231.504 179.402C231.504 179.402 230.131 200.663 230.131 202.681C230.131 203.962 231.974 220.963 232.142 222.476C232.31 223.99 237.521 223.758 237.481 222.244C237.481 221.099 237.01 204.515 237.01 204.515L241.551 182.365L240.753 180.123L231.504 179.402Z" fill="#5377F8"/>
<g style="mix-blend-mode:multiply">
<path d="M236.994 204.499C236.994 204.499 237.441 221.083 237.465 222.228C237.465 222.789 236.779 223.173 235.869 223.357L233.475 203.546L237.912 181.637L241.543 182.349L236.994 204.499Z" fill="#CED3F4"/>
</g>
<path d="M248.846 228.001V229.443C248.852 229.683 248.81 229.922 248.721 230.145C248.631 230.368 248.497 230.571 248.327 230.74L247.864 231.204C247.086 232.291 246.108 233.218 244.983 233.935C243.331 235.008 241.336 234.736 240.849 234.359C240.362 233.983 240.362 233.559 241.583 231.957L244.552 227.953L248.846 228.001Z" fill="#390604"/>
<path d="M248.725 229.323C247.85 230.119 247.049 230.993 246.331 231.934C245.413 233.391 242.971 234.504 241.367 233.968C239.763 233.431 241.926 231.742 242.365 231.013C242.804 230.284 244.041 228.443 244.041 228.443L248.829 228.395L248.725 229.323Z" fill="#390604"/>
<path d="M239.109 180.34C239.109 180.34 243.563 227.354 243.898 228.539C244.161 229.548 248.798 229.548 248.87 227.802C248.942 225.912 250.027 188.964 250.243 187.074C250.555 184.601 250.59 182.1 250.346 179.619L239.109 180.34Z" fill="url(#paint49_linear_224_100856)"/>
<g style="mix-blend-mode:multiply">
<path d="M245.158 180.771L250.338 179.73C250.563 182.175 250.526 184.637 250.226 187.074C250.011 188.963 248.925 225.912 248.853 227.801C248.853 228.386 248.287 228.77 247.584 228.995L245.158 180.771Z" fill="#CED3F4"/>
</g>
<path d="M242.173 148.444C242.268 149.917 240.233 152.448 238.438 153.328C238.35 153.368 236.49 150.926 236.49 150.926C236.49 150.926 234.224 152.824 234.208 152.776C233.763 151.555 233.539 150.264 233.545 148.964C233.466 147.587 235.325 146.354 237.711 146.209C240.098 146.065 242.101 147.042 242.173 148.444Z" fill="white"/>
<path d="M234.919 145.801C233.422 145.904 232.009 146.534 230.928 147.579C229.723 148.812 229.484 153.224 229.468 154.689C229.452 156.155 229.635 172.987 229.859 176.631C230.026 179.522 230.202 182.316 230.29 183.886C230.41 185.768 233.865 186.593 234.224 185.624C234.584 184.655 233.921 176.615 233.426 173.468C233.059 170.889 232.915 156.339 233.203 149.789C233.378 146.778 234.919 145.801 234.919 145.801Z" fill="#007683"/>
<path d="M239.436 146.266C239.436 146.266 242.269 146.882 241.599 149.02C240.929 151.158 238.997 154.77 237.609 159.831C236.012 165.653 236.332 183.254 237.297 186.257C237.952 188.275 251.79 188.491 251.551 184.447C251.471 183.19 250.753 155.619 250.067 153.553C249.173 150.758 244.887 148.86 242.086 147.411C241.254 146.919 240.364 146.534 239.436 146.266Z" fill="#007683"/>
<path d="M234.12 142.374C234 141.477 235.142 140.572 236.682 140.356C238.222 140.14 239.563 140.684 239.699 141.573C239.699 141.573 241.151 148.068 241.151 148.076C241.303 149.157 239.93 150.254 238.078 150.478C236.227 150.702 234.599 150.086 234.447 149.004L234.112 142.342L234.12 142.374Z" fill="#996740"/>
<g style="mix-blend-mode:multiply">
<path d="M239.045 144.801C239.392 143.543 239.5 142.231 239.365 140.933C238.988 140.657 238.557 140.463 238.101 140.363C237.644 140.264 237.172 140.262 236.715 140.357C235.175 140.573 234.033 141.478 234.153 142.375L234.488 149.037C234.534 149.274 234.641 149.495 234.8 149.678C236.795 148.893 238.519 146.491 239.045 144.801Z" fill="#F1D5BE"/>
</g>
<path d="M231.966 137.794C230.641 140.26 231.806 148.316 234.36 148.34C236.914 148.364 239.3 145.257 239.946 143.199C240.593 141.141 240.609 136.793 238.398 135.744C237.273 135.164 235.966 135.054 234.761 135.438C233.556 135.822 232.551 136.669 231.966 137.794Z" fill="#996740"/>
<g style="mix-blend-mode:multiply">
<path d="M247.855 171.555L245.093 159.655L247.44 152.408L249.395 152.248C249.697 152.639 249.931 153.077 250.089 153.545C250.76 155.643 251.494 183.174 251.574 184.439C251.669 186.089 249.227 187.066 246.25 187.506L246.386 181.645C246.386 181.645 243.625 184.383 242.029 184.48C240.432 184.576 238.166 183.887 238.078 182.414C238.078 182.013 241.27 182.414 241.27 182.414L244.295 178.978L247.855 171.555Z" fill="#CED3F4"/>
</g>
<path d="M237.224 139.939C237.564 141.395 237.783 142.876 237.879 144.368C237.743 145.12 235.923 145.969 235.923 145.969C235.125 145.468 234.225 145.153 233.29 145.048C232.825 145.037 232.362 145.113 231.925 145.273C231.925 145.273 232.092 147.499 233.768 148.38C235.444 149.26 238.014 146.946 238.629 145.921C239.147 145.056 238.629 142.718 238.812 141.917C238.916 141.437 239.291 141.036 239.682 141.205C240.424 141.517 239.682 143.655 240.329 144.135C240.975 144.616 241.246 143.086 241.302 141.237C241.358 139.387 241.917 134.678 237.831 134.262C233.744 133.845 230.823 135.984 230.4 137.377C229.882 139.051 230.544 140.58 233.545 140.468C234.79 140.46 236.027 140.282 237.224 139.939ZM234.742 146.45C234.372 146.573 233.977 146.603 233.593 146.538C232.731 146.442 232.635 146.193 232.635 146.193C232.635 146.193 232.452 145.585 233.234 145.665L234.032 145.769C234.209 145.787 234.375 145.863 234.504 145.987C234.632 146.11 234.716 146.273 234.742 146.45Z" fill="url(#paint50_linear_224_100856)"/>
<path d="M211.057 186.978V203.202L226.643 194.137V177.785L211.057 186.978Z" fill="url(#paint51_linear_224_100856)"/>
<path d="M211.08 186.978V203.202L196.275 194.617V178.273L211.08 186.978Z" fill="url(#paint52_linear_224_100856)"/>
<path d="M196.275 178.274L211.08 186.978L226.642 177.785L211.814 169.129L196.275 178.274Z" fill="url(#paint53_linear_224_100856)"/>
<path opacity="0.5" d="M196.275 178.274L211.08 186.978L226.642 177.785L211.072 186.73L196.275 178.274Z" fill="url(#paint54_linear_224_100856)"/>
<path d="M217.672 183.15V187.498L221.191 185.48V181.004L217.672 183.15Z" fill="url(#paint55_linear_224_100856)"/>
<path d="M202.893 174.438L217.689 183.15L221.193 181.004L206.364 172.34L202.893 174.438Z" fill="url(#paint56_linear_224_100856)"/>
<path d="M214.024 192.863L212.787 196.699L213.585 196.243V200.815L214.455 200.311V195.738L215.253 195.274L214.024 192.863Z" fill="url(#paint57_linear_224_100856)"/>
<path d="M218.255 193.535L217.026 191.125L215.789 194.961L216.587 194.496V199.077L217.457 198.572V194L218.255 193.535Z" fill="url(#paint58_linear_224_100856)"/>
<path d="M184.033 252.874C183.865 253.449 183.838 254.056 183.953 254.644C184.224 254.98 184.601 255.213 185.022 255.305C185.443 255.396 185.882 255.341 186.267 255.148C187.185 254.7 187.584 253.747 187.927 253.499C188.271 253.251 190.242 253.026 191.702 251.785C193.163 250.544 192.971 249.167 191.503 249.143C189.745 249.196 188.02 249.627 186.443 250.408C185.55 251.137 184.742 251.964 184.033 252.874Z" fill="#390604"/>
<path d="M184.728 254.22C185.782 254.444 187.122 253.523 187.729 253.003C188.335 252.482 189.445 252.755 190.865 251.633C192.286 250.512 192.773 249.736 192.126 249.367C191.48 248.999 189.134 249.095 187.298 250.096C185.462 251.097 184.233 251.81 184.233 251.81C184.233 251.81 183.786 253.179 184.01 253.475C184.233 253.772 184.13 254.1 184.728 254.22Z" fill="#390604"/>
<path d="M185.78 203.834C185.78 203.834 184.073 204.843 184.352 208.855C184.432 209.968 183.873 253.002 183.873 253.002C183.873 253.002 185.469 253.579 186.172 253.314C187.08 252.883 187.935 252.345 188.717 251.713L195.054 207.069L185.78 203.834Z" fill="#8DDCA4"/>
<path d="M196.65 256.95C196.65 256.95 196.06 258.552 196.786 258.888C197.648 259.306 198.639 259.369 199.547 259.064C200.457 258.696 200.832 258.328 201.798 258.328C202.764 258.328 206.523 256.63 207.241 255.797C207.959 254.964 207.241 254.003 205.445 254.124C203.649 254.244 201.072 254.444 200.617 254.596C200.162 254.748 196.65 256.95 196.65 256.95Z" fill="#390604"/>
<path d="M197.456 258.15C199.14 258.335 199.683 257.902 201.239 257.614C202.795 257.326 207.217 255.676 207.137 254.763C207.057 253.85 206.036 254.05 205.182 254.123C204.328 254.195 201.582 254.371 201.367 254.371C201.151 254.371 196.706 256.213 196.706 256.213C196.706 256.213 196.379 257.534 196.706 257.734C197.033 257.934 197.001 258.078 197.456 258.15Z" fill="#390604"/>
<path d="M190.833 201.031C189.47 203.776 189.185 206.934 190.035 209.88C191.383 215.117 197.034 235.185 197.034 235.185C197.034 235.185 196.699 254.211 196.699 256.718C196.699 257.518 198.295 257.831 200.011 257.27C202.133 256.574 202.102 255.981 202.213 254.996C202.325 254.011 204.671 237.611 204.472 232.766C204.2 226.4 202.995 207.085 202.995 207.085L190.833 201.031Z" fill="#8DDCA4"/>
<g style="mix-blend-mode:multiply">
<path d="M202.197 254.997C202.293 254.124 204.655 237.612 204.456 232.767C204.184 226.401 202.979 207.086 202.979 207.086L197.393 204.355L197.967 212.059C197.967 212.059 198.151 213.028 198.438 214.573C199.484 220.179 201.91 233.432 201.91 235.097C201.91 236.763 200.792 249.616 200.25 257.191C202.077 256.55 202.069 255.942 202.197 254.997Z" fill="#CED3F4"/>
</g>
<path d="M189.029 173.948C186.898 174.349 184.751 174.957 184.36 180.09C184.041 184.303 183.123 212.306 183.123 212.306C183.123 212.306 186.906 215.749 196.834 215.413C203.61 215.181 203.737 213.467 203.737 213.467C203.737 213.467 204.097 196.138 204.296 186.881C204.384 182.557 203.809 181.444 202.397 180.267C200.317 178.632 198.133 177.134 195.86 175.782C194.025 174.709 190.864 173.612 189.029 173.948Z" fill="#007683"/>
<g style="mix-blend-mode:multiply">
<path d="M203.738 213.468C203.738 213.468 204.089 196.163 204.297 186.906L204.249 186.458L197.864 186.113C196.898 195.595 196.795 213.684 196.795 213.684C196.795 213.684 196.994 215.366 191.535 215.206C193.296 215.409 195.071 215.479 196.842 215.414C203.61 215.182 203.738 213.468 203.738 213.468Z" fill="#CED3F4"/>
</g>
<path d="M198.206 177.89C198.142 178.971 196.355 179.731 194.216 179.587C192.077 179.443 190.409 178.466 190.481 177.385C190.553 176.304 192.332 175.543 194.471 175.687C196.61 175.832 198.294 176.809 198.206 177.89Z" fill="white"/>
<path d="M191.073 176.937C191.037 177.057 191.029 177.184 191.052 177.308C191.074 177.432 191.125 177.549 191.2 177.649C191.608 178.074 192.096 178.412 192.636 178.645C193.176 178.877 193.757 178.999 194.345 179.003C195.373 179.1 196.408 178.894 197.322 178.41C197.43 178.343 197.524 178.253 197.595 178.146C197.667 178.04 197.715 177.92 197.737 177.793L198.152 175.535C198.152 175.535 199.915 175.695 200.458 175.047C201.001 174.398 203.052 166.022 200.61 163.836C198.168 161.65 192.669 162.066 191.671 165.87C190.674 169.673 192.326 171.796 192.469 172.692C192.541 173.421 191.496 175.992 191.073 176.937Z" fill="#996740"/>
<path d="M192.404 173.349C192.404 173.349 194.383 174.078 195.237 173.861C196.769 173.477 196.833 169.97 197.855 169.201C198.469 168.744 198.972 169.313 198.9 169.938C198.828 170.562 198.9 170.81 199.132 170.875C199.363 170.939 200.401 167.928 200.401 167.928C200.401 167.928 204.391 166.23 203.274 162.723C201.933 163.579 193.697 158.991 191.183 165.069C189.172 169.866 191.486 173.053 192.404 173.349Z" fill="url(#paint59_linear_224_100856)"/>
<g style="mix-blend-mode:multiply">
<path d="M191.551 216.127C192.022 217.729 192.532 219.482 193.043 221.228L188.718 251.746C188.718 251.746 188.095 252.242 187.385 252.699C188.167 246.461 191.128 219.907 191.551 216.127Z" fill="#CED3F4"/>
</g>
<path d="M221.742 192.223C222.436 191.638 223.097 191.016 223.721 190.357C224.224 189.797 224.783 189.292 225.046 189.557C225.565 190.085 223.45 192.383 223.45 192.383L221.742 192.223Z" fill="#996740"/>
<path d="M220.96 195.481C220.96 195.481 223.674 195.801 225.022 195.281C226.371 194.76 228.366 192.278 228.023 191.557C227.84 191.165 227.481 191.621 227.481 191.621C227.481 191.621 227.999 191.085 227.904 190.732C227.808 190.38 227.6 190.468 227.185 190.732C226.395 191.331 225.477 191.736 224.504 191.918C223.378 192.022 222.556 191.517 221.83 192.094C221.25 192.467 220.572 192.657 219.883 192.638L220.96 195.481Z" fill="#996740"/>
<path d="M199.006 180.29C198.484 180.552 198.019 180.915 197.637 181.358C197.256 181.801 196.966 182.316 196.784 182.872C196.602 183.428 196.532 184.015 196.578 184.599C196.624 185.183 196.784 185.751 197.05 186.272C198.327 189.195 203.738 199.389 206.564 199.886C209.389 200.382 222.238 196.162 222.238 196.162C222.338 195.295 222.338 194.419 222.238 193.551C222.213 193.279 222.121 193.018 221.97 192.79C221.82 192.563 221.616 192.376 221.376 192.246C221.376 192.246 211.847 194.016 209.405 193.359C208.208 193.031 207.13 188.555 204.72 183.422C203.236 180.403 201.145 179.041 199.006 180.29Z" fill="#8DDCA4"/>
<path d="M247.328 175.062C245.732 177 244.702 178.698 244.439 179.01C244.176 179.323 243.553 179.763 242.564 180.612C241.574 181.461 241.039 181.917 241.039 181.917C240.683 181.931 240.329 181.866 240.002 181.725C239.612 181.468 239.159 181.327 238.693 181.317C238.342 181.389 238.461 181.469 238.461 181.469C238.392 181.41 238.305 181.378 238.214 181.378C238.123 181.378 238.036 181.41 237.967 181.469C237.903 181.517 237.86 181.588 237.846 181.667C237.833 181.746 237.85 181.827 237.895 181.893C237.981 182.008 238.08 182.113 238.19 182.205C238.16 182.215 238.133 182.231 238.109 182.252C238.086 182.273 238.067 182.298 238.053 182.327C238.04 182.355 238.032 182.386 238.031 182.418C238.03 182.449 238.035 182.48 238.046 182.51C238.374 182.953 238.823 183.29 239.339 183.479C239.986 183.759 241.031 184.28 241.351 184.119C241.67 183.959 242.875 183.727 243.234 183.543C243.593 183.359 247.424 180.099 249.036 178.738L247.328 175.062Z" fill="#996740"/>
<g style="mix-blend-mode:multiply" opacity="0.5">
<path d="M246.283 180.988C245.581 181.048 244.887 181.187 244.216 181.405C243.653 181.815 243.003 182.089 242.317 182.205C241.862 182.205 241.295 181.925 241.191 182.245C241.088 182.566 241.726 182.774 242.381 182.79C243.023 182.719 243.649 182.54 244.232 182.262C243.689 182.636 243.071 182.884 242.421 182.99C241.592 182.901 240.783 182.676 240.026 182.326C239.452 181.957 239.021 181.525 238.837 181.565C238.654 181.605 238.989 182.021 239.348 182.286C239.684 182.562 240.057 182.789 240.457 182.958C240.832 183.086 242.429 183.391 242.429 183.391C241.694 183.659 240.905 183.744 240.13 183.639C239.522 183.482 238.985 183.124 238.606 182.622C238.542 182.542 238.558 182.31 238.51 182.262C238.462 182.213 238.326 182.101 238.191 182.141C238.124 182.172 238.07 182.226 238.039 182.294C238.056 182.395 238.091 182.493 238.143 182.582C238.476 182.932 238.882 183.206 239.332 183.383C239.986 183.663 241.032 184.183 241.351 184.023C241.67 183.863 242.875 183.631 243.235 183.447C243.442 183.335 244.759 182.245 246.156 181.044L246.283 180.988Z" fill="#F1D5BE"/>
</g>
<g style="mix-blend-mode:multiply" opacity="0.5">
<path d="M243.881 179.531C243.554 179.804 243.083 180.148 242.564 180.636L242.253 180.917C241.91 181.221 241.631 181.453 241.455 181.621L241.878 181.709C242.405 181.813 243.41 181.189 244.272 180.484C245.134 179.779 244.496 179.595 243.881 179.531Z" fill="#F1D5BE"/>
</g>
<g style="mix-blend-mode:multiply" opacity="0.5">
<path d="M238.047 182.117C237.93 182.008 237.856 181.86 237.84 181.701C237.847 181.624 237.871 181.55 237.912 181.484C237.912 181.484 238.822 182.822 239.508 183.086C240.336 183.307 241.183 183.449 242.038 183.51C241.824 183.675 241.556 183.753 241.288 183.727C240.63 183.716 239.984 183.558 239.396 183.262C238.914 182.92 238.463 182.537 238.047 182.117Z" fill="#F1D5BE"/>
</g>
<path d="M242.9 179.115C242.781 179.379 243.108 179.675 243.403 179.715C243.855 179.775 244.299 179.882 244.728 180.036C244.793 180.145 244.881 180.239 244.986 180.311C245.091 180.383 245.21 180.431 245.335 180.453C245.46 180.474 245.588 180.468 245.711 180.434C245.833 180.401 245.947 180.342 246.045 180.26C246.843 179.691 246.364 179.195 245.622 179.131C244.88 179.067 243.22 178.37 242.9 179.115Z" fill="#996740"/>
<path d="M244.719 151.111C242.125 152.625 243.841 157.83 245.27 160.809C246.698 163.788 249.987 171.075 249.987 171.075L244.743 178.282L247.002 181.037C247.002 181.037 255.565 173.285 255.837 171.852C256.228 169.722 252.125 157.486 251.048 154.619C249.971 151.752 246.667 149.974 244.719 151.111Z" fill="#8DDCA4"/>
<path d="M198.702 169.265C198.702 169.265 203.786 167.303 204.289 164.812C204.792 162.322 201.033 160.72 197.96 162.202C194.888 163.683 198.702 169.265 198.702 169.265Z" fill="#5277F7"/>
<path d="M198.702 168.999C198.702 168.999 203.786 167.037 204.289 164.547C204.792 162.056 201.033 160.455 197.96 161.936C194.888 163.418 198.702 168.999 198.702 168.999Z" fill="url(#paint60_linear_224_100856)"/>
<path d="M192.244 161.361C188.629 163.659 189.427 169.265 190.489 170.258C191.55 171.251 198.23 171.547 202.069 166.446C203.378 164.7 198.876 157.205 192.244 161.361Z" fill="url(#paint61_linear_224_100856)"/>
<path d="M192.421 161.648L192.229 161.761C188.558 163.987 189.46 169.24 190.489 170.257C191.016 170.769 192.987 171.058 195.278 170.625C193.258 168.087 192.24 164.891 192.421 161.648Z" fill="url(#paint62_linear_224_100856)"/>
<rect x="121" y="150" width="10" height="50" fill="#007683"/>
<rect x="127.191" y="151.086" width="18.0077" height="3.87426" transform="rotate(-30.8269 127.191 151.086)" fill="#007683"/>
<defs>
<linearGradient id="paint0_linear_224_100856" x1="308.637" y1="-105.627" x2="179.119" y2="140.566" gradientUnits="userSpaceOnUse">
<stop stop-color="#F36DD4"/>
<stop offset="0.15" stop-color="#BB6DF3"/>
<stop offset="0.46" stop-color="#836DF3"/>
<stop offset="0.72" stop-color="#5277F7"/>
<stop offset="1" stop-color="#66CCFF"/>
</linearGradient>
<radialGradient id="paint1_radial_224_100856" cx="0" cy="0" r="1" gradientUnits="userSpaceOnUse" gradientTransform="translate(8675.16 2912.44) scale(223.248 330.115)">
<stop stop-color="white"/>
<stop offset="1"/>
</radialGradient>
<radialGradient id="paint2_radial_224_100856" cx="0" cy="0" r="1" gradientUnits="userSpaceOnUse" gradientTransform="translate(29.0456 161.482) rotate(180) scale(2.37829 2.38635)">
<stop stop-color="#EEEBF2"/>
<stop offset="0.58" stop-color="#D4D1D8"/>
<stop offset="0.94" stop-color="#A5A6B9"/>
<stop offset="1" stop-color="#9D9EB3"/>
</radialGradient>
<radialGradient id="paint3_radial_224_100856" cx="0" cy="0" r="1" gradientUnits="userSpaceOnUse" gradientTransform="translate(-71385.4 7977.9) scale(280.434 426.251)">
<stop stop-color="white"/>
<stop offset="1"/>
</radialGradient>
<radialGradient id="paint4_radial_224_100856" cx="0" cy="0" r="1" gradientUnits="userSpaceOnUse" gradientTransform="translate(-90367.1 8444.54) rotate(180) scale(183.343 288.786)">
<stop stop-color="white"/>
<stop offset="1"/>
</radialGradient>
<radialGradient id="paint5_radial_224_100856" cx="0" cy="0" r="1" gradientUnits="userSpaceOnUse" gradientTransform="translate(-26309.4 4139.92) rotate(180) scale(37.4125 91.3931)">
<stop stop-color="white"/>
<stop offset="1"/>
</radialGradient>
<linearGradient id="paint6_linear_224_100856" x1="14.544" y1="142.247" x2="12.2503" y2="143.434" gradientUnits="userSpaceOnUse">
<stop stop-color="#FF9E6E"/>
<stop offset="0.33" stop-color="#FFBC9B"/>
<stop offset="1" stop-color="white"/>
</linearGradient>
<linearGradient id="paint7_linear_224_100856" x1="477.805" y1="519.287" x2="478.941" y2="526.636" gradientUnits="userSpaceOnUse">
<stop stop-color="#AFB6E5"/>
<stop offset="0.21" stop-color="#B6BCE8"/>
<stop offset="0.5" stop-color="#C8CDF1"/>
<stop offset="0.58" stop-color="#CED3F4"/>
<stop offset="0.88" stop-color="#DEE2FC"/>
<stop offset="1" stop-color="#E5E9FF"/>
</linearGradient>
<linearGradient id="paint8_linear_224_100856" x1="15.6919" y1="142.528" x2="14.0558" y2="142.659" gradientUnits="userSpaceOnUse">
<stop offset="0.04" stop-color="#FF9E6E"/>
<stop offset="0.3" stop-color="#FFAD73"/>
<stop offset="0.82" stop-color="#FFD680"/>
<stop offset="1" stop-color="#FFE585"/>
</linearGradient>
<linearGradient id="paint9_linear_224_100856" x1="46905" y1="5276.04" x2="47349.6" y2="5215.01" gradientUnits="userSpaceOnUse">
<stop offset="0.1" stop-color="#33065C"/>
<stop offset="0.54" stop-color="#430D8B"/>
<stop offset="1" stop-color="#4513A3"/>
</linearGradient>
<linearGradient id="paint10_linear_224_100856" x1="217367" y1="5662.95" x2="216515" y2="8464.98" gradientUnits="userSpaceOnUse">
<stop offset="0.1" stop-color="#33065C"/>
<stop offset="0.54" stop-color="#430D8B"/>
<stop offset="1" stop-color="#4513A3"/>
</linearGradient>
<radialGradient id="paint11_radial_224_100856" cx="0" cy="0" r="1" gradientUnits="userSpaceOnUse" gradientTransform="translate(-61747.1 9558.05) scale(277.271 420.787)">
<stop stop-color="white"/>
<stop offset="1"/>
</radialGradient>
<linearGradient id="paint12_linear_224_100856" x1="120.082" y1="201.657" x2="101.284" y2="211.366" gradientUnits="userSpaceOnUse">
<stop stop-color="#8770B8"/>
<stop offset="1" stop-color="white"/>
</linearGradient>
<linearGradient id="paint13_linear_224_100856" x1="-2626.6" y1="5078.65" x2="-2644.42" y2="5078.17" gradientUnits="userSpaceOnUse">
<stop stop-color="#AFB6E5"/>
<stop offset="0.21" stop-color="#B6BCE8"/>
<stop offset="0.5" stop-color="#C8CDF1"/>
<stop offset="0.58" stop-color="#CED3F4"/>
<stop offset="0.88" stop-color="#DEE2FC"/>
<stop offset="1" stop-color="#E5E9FF"/>
</linearGradient>
<linearGradient id="paint14_linear_224_100856" x1="-201501" y1="7973.65" x2="-201421" y2="8236.54" gradientUnits="userSpaceOnUse">
<stop stop-color="#AFB6E5"/>
<stop offset="0.21" stop-color="#B6BCE8"/>
<stop offset="0.5" stop-color="#C8CDF1"/>
<stop offset="0.58" stop-color="#CED3F4"/>
<stop offset="0.88" stop-color="#DEE2FC"/>
<stop offset="1" stop-color="#E5E9FF"/>
</linearGradient>
<linearGradient id="paint15_linear_224_100856" x1="-3039.37" y1="5355.25" x2="-3059.72" y2="5354.7" gradientUnits="userSpaceOnUse">
<stop stop-color="#4513A3"/>
<stop offset="0.54" stop-color="#430D8B"/>
<stop offset="1" stop-color="#33065C"/>
</linearGradient>
<linearGradient id="paint16_linear_224_100856" x1="145.837" y1="178.362" x2="149.809" y2="185.894" gradientUnits="userSpaceOnUse">
<stop stop-color="#25054D"/>
<stop offset="1" stop-color="#45108A"/>
</linearGradient>
<radialGradient id="paint17_radial_224_100856" cx="0" cy="0" r="1" gradientUnits="userSpaceOnUse" gradientTransform="translate(-46672.4 3264.54) rotate(180) scale(74.9545 63.8449)">
<stop stop-color="white"/>
<stop offset="1"/>
</radialGradient>
<linearGradient id="paint18_linear_224_100856" x1="3524.18" y1="2391.41" x2="3587.96" y2="2391.41" gradientUnits="userSpaceOnUse">
<stop stop-color="#FF9E6E"/>
<stop offset="0.33" stop-color="#FFBC9B"/>
<stop offset="1" stop-color="white"/>
</linearGradient>
<linearGradient id="paint19_linear_224_100856" x1="1875.49" y1="1764.37" x2="1891.65" y2="1764.37" gradientUnits="userSpaceOnUse">
<stop offset="0.02" stop-color="#836DF3"/>
<stop offset="0.54" stop-color="#BB6DF3"/>
<stop offset="0.69" stop-color="#CA6DEA"/>
<stop offset="1" stop-color="#F36DD4"/>
</linearGradient>
<linearGradient id="paint20_linear_224_100856" x1="2944.94" y1="835.235" x2="2950.41" y2="835.235" gradientUnits="userSpaceOnUse">
<stop offset="0.04" stop-color="#FF9E6E"/>
<stop offset="0.3" stop-color="#FFAD73"/>
<stop offset="0.82" stop-color="#FFD680"/>
<stop offset="1" stop-color="#FFE585"/>
</linearGradient>
<linearGradient id="paint21_linear_224_100856" x1="513.757" y1="808.881" x2="510.628" y2="808.881" gradientUnits="userSpaceOnUse">
<stop offset="0.04" stop-color="#FF9E6E"/>
<stop offset="0.3" stop-color="#FFAD73"/>
<stop offset="0.82" stop-color="#FFD680"/>
<stop offset="1" stop-color="#FFE585"/>
</linearGradient>
<linearGradient id="paint22_linear_224_100856" x1="2974.21" y1="826.657" x2="2979.7" y2="826.657" gradientUnits="userSpaceOnUse">
<stop offset="0.02" stop-color="#836DF3"/>
<stop offset="0.54" stop-color="#BB6DF3"/>
<stop offset="0.69" stop-color="#CA6DEA"/>
<stop offset="1" stop-color="#F36DD4"/>
</linearGradient>
<linearGradient id="paint23_linear_224_100856" x1="517.739" y1="800.562" x2="514.611" y2="800.562" gradientUnits="userSpaceOnUse">
<stop offset="0.02" stop-color="#836DF3"/>
<stop offset="0.54" stop-color="#BB6DF3"/>
<stop offset="0.69" stop-color="#CA6DEA"/>
<stop offset="1" stop-color="#F36DD4"/>
</linearGradient>
<radialGradient id="paint24_radial_224_100856" cx="0" cy="0" r="1" gradientUnits="userSpaceOnUse" gradientTransform="translate(-16002.6 -2717.92) rotate(156.179) scale(73.1255 26.0563)">
<stop stop-color="#FFE4A7"/>
<stop offset="0.06" stop-color="#DCC590"/>
<stop offset="0.16" stop-color="#A9976F"/>
<stop offset="0.26" stop-color="#7C6F51"/>
<stop offset="0.37" stop-color="#564D38"/>
<stop offset="0.48" stop-color="#363124"/>
<stop offset="0.59" stop-color="#1E1B14"/>
<stop offset="0.71" stop-color="#0D0C09"/>
<stop offset="0.84" stop-color="#030302"/>
<stop offset="1"/>
</radialGradient>
<linearGradient id="paint25_linear_224_100856" x1="3149.86" y1="2609.19" x2="3213.79" y2="2609.19" gradientUnits="userSpaceOnUse">
<stop offset="0.02" stop-color="#836DF3"/>
<stop offset="0.54" stop-color="#BB6DF3"/>
<stop offset="0.69" stop-color="#CA6DEA"/>
<stop offset="1" stop-color="#F36DD4"/>
</linearGradient>
<linearGradient id="paint26_linear_224_100856" x1="1666.56" y1="1927.19" x2="1682.72" y2="1927.19" gradientUnits="userSpaceOnUse">
<stop stop-color="#FF9E6E"/>
<stop offset="0.33" stop-color="#FFBC9B"/>
<stop offset="1" stop-color="white"/>
</linearGradient>
<linearGradient id="paint27_linear_224_100856" x1="2778.66" y1="913.308" x2="2784.09" y2="913.308" gradientUnits="userSpaceOnUse">
<stop offset="0.02" stop-color="#836DF3"/>
<stop offset="0.54" stop-color="#BB6DF3"/>
<stop offset="0.69" stop-color="#CA6DEA"/>
<stop offset="1" stop-color="#F36DD4"/>
</linearGradient>
<linearGradient id="paint28_linear_224_100856" x1="475.783" y1="884.616" x2="472.655" y2="884.616" gradientUnits="userSpaceOnUse">
<stop offset="0.02" stop-color="#836DF3"/>
<stop offset="0.54" stop-color="#BB6DF3"/>
<stop offset="0.69" stop-color="#CA6DEA"/>
<stop offset="1" stop-color="#F36DD4"/>
</linearGradient>
<linearGradient id="paint29_linear_224_100856" x1="2749.3" y1="909.967" x2="2754.66" y2="909.967" gradientUnits="userSpaceOnUse">
<stop offset="0.04" stop-color="#FF9E6E"/>
<stop offset="0.3" stop-color="#FFAD73"/>
<stop offset="0.82" stop-color="#FFD680"/>
<stop offset="1" stop-color="#FFE585"/>
</linearGradient>
<linearGradient id="paint30_linear_224_100856" x1="479.737" y1="876.291" x2="476.608" y2="876.291" gradientUnits="userSpaceOnUse">
<stop offset="0.04" stop-color="#FF9E6E"/>
<stop offset="0.3" stop-color="#FFAD73"/>
<stop offset="0.82" stop-color="#FFD680"/>
<stop offset="1" stop-color="#FFE585"/>
</linearGradient>
<radialGradient id="paint31_radial_224_100856" cx="0" cy="0" r="1" gradientUnits="userSpaceOnUse" gradientTransform="translate(-16495.5 -2445.78) rotate(156.179) scale(73.1258 26.0634)">
<stop stop-color="#FFE4A7"/>
<stop offset="0.06" stop-color="#DCC590"/>
<stop offset="0.16" stop-color="#A9976F"/>
<stop offset="0.26" stop-color="#7C6F51"/>
<stop offset="0.37" stop-color="#564D38"/>
<stop offset="0.48" stop-color="#363124"/>
<stop offset="0.59" stop-color="#1E1B14"/>
<stop offset="0.71" stop-color="#0D0C09"/>
<stop offset="0.84" stop-color="#030302"/>
<stop offset="1"/>
</radialGradient>
<linearGradient id="paint32_linear_224_100856" x1="117.026" y1="176.078" x2="160.138" y2="163.21" gradientUnits="userSpaceOnUse">
<stop offset="0.04" stop-color="#E67A45"/>
<stop offset="0.33" stop-color="#EC894D"/>
<stop offset="0.89" stop-color="#FCB262"/>
<stop offset="1" stop-color="#FFBA66"/>
</linearGradient>
<linearGradient id="paint33_linear_224_100856" x1="-56055.5" y1="7826.06" x2="-54957.5" y2="7679.82" gradientUnits="userSpaceOnUse">
<stop offset="0.04" stop-color="#FF9E6E"/>
<stop offset="0.3" stop-color="#FFAD73"/>
<stop offset="0.82" stop-color="#FFD680"/>
<stop offset="1" stop-color="#FFE585"/>
</linearGradient>
<linearGradient id="paint34_linear_224_100856" x1="-116600" y1="4411.51" x2="-116898" y2="5380.02" gradientUnits="userSpaceOnUse">
<stop offset="0.04" stop-color="#FF9E6E"/>
<stop offset="0.3" stop-color="#FFAD73"/>
<stop offset="0.82" stop-color="#FFD680"/>
<stop offset="1" stop-color="#FFE585"/>
</linearGradient>
<linearGradient id="paint35_linear_224_100856" x1="-116639" y1="2373.69" x2="-116720" y2="2881.33" gradientUnits="userSpaceOnUse">
<stop stop-color="#AFB6E5"/>
<stop offset="0.14" stop-color="#B6BCE8"/>
<stop offset="0.35" stop-color="#C8CDF1"/>
<stop offset="0.58" stop-color="#E5E9FF"/>
<stop offset="0.86" stop-color="#F5F6FF"/>
<stop offset="1" stop-color="white"/>
</linearGradient>
<linearGradient id="paint36_linear_224_100856" x1="-13826.1" y1="2050.23" x2="-13775.9" y2="2042.08" gradientUnits="userSpaceOnUse">
<stop offset="0.04" stop-color="#E67A45"/>
<stop offset="0.33" stop-color="#EC894D"/>
<stop offset="0.89" stop-color="#FCB262"/>
<stop offset="1" stop-color="#FFBA66"/>
</linearGradient>
<linearGradient id="paint37_linear_224_100856" x1="-72511.7" y1="3072.17" x2="-72560" y2="3227.88" gradientUnits="userSpaceOnUse">
<stop offset="0.04" stop-color="#E67A45"/>
<stop offset="0.33" stop-color="#EC894D"/>
<stop offset="0.89" stop-color="#FCB262"/>
<stop offset="1" stop-color="#FFBA66"/>
</linearGradient>
<linearGradient id="paint38_linear_224_100856" x1="-7427.19" y1="-24158.3" x2="-7405.57" y2="-24155.7" gradientUnits="userSpaceOnUse">
<stop offset="0.04" stop-color="#E67A45"/>
<stop offset="0.33" stop-color="#EC894D"/>
<stop offset="0.89" stop-color="#FCB262"/>
<stop offset="1" stop-color="#FFBA66"/>
</linearGradient>
<linearGradient id="paint39_linear_224_100856" x1="-7414.06" y1="-24168.1" x2="-7392.43" y2="-24165.6" gradientUnits="userSpaceOnUse">
<stop offset="0.04" stop-color="#E67A45"/>
<stop offset="0.33" stop-color="#EC894D"/>
<stop offset="0.89" stop-color="#FCB262"/>
<stop offset="1" stop-color="#FFBA66"/>
</linearGradient>
<linearGradient id="paint40_linear_224_100856" x1="-39273.8" y1="5289.66" x2="-38894.1" y2="5219.89" gradientUnits="userSpaceOnUse">
<stop offset="0.04" stop-color="#E67A45"/>
<stop offset="0.33" stop-color="#EC894D"/>
<stop offset="0.89" stop-color="#FCB262"/>
<stop offset="1" stop-color="#FFBA66"/>
</linearGradient>
<linearGradient id="paint41_linear_224_100856" x1="-34058.9" y1="5159.87" x2="-33613.7" y2="5100.6" gradientUnits="userSpaceOnUse">
<stop offset="0.04" stop-color="#FF9E6E"/>
<stop offset="0.3" stop-color="#FFAD73"/>
<stop offset="0.82" stop-color="#FFD680"/>
<stop offset="1" stop-color="#FFE585"/>
</linearGradient>
<linearGradient id="paint42_linear_224_100856" x1="-72696.5" y1="3238.35" x2="-72817.6" y2="3630.93" gradientUnits="userSpaceOnUse">
<stop offset="0.04" stop-color="#FF9E6E"/>
<stop offset="0.3" stop-color="#FFAD73"/>
<stop offset="0.82" stop-color="#FFD680"/>
<stop offset="1" stop-color="#FFE585"/>
</linearGradient>
<linearGradient id="paint43_linear_224_100856" x1="-72712.6" y1="1760.71" x2="-72745.3" y2="1966.53" gradientUnits="userSpaceOnUse">
<stop stop-color="#AFB6E5"/>
<stop offset="0.14" stop-color="#B6BCE8"/>
<stop offset="0.35" stop-color="#C8CDF1"/>
<stop offset="0.58" stop-color="#E5E9FF"/>
<stop offset="0.86" stop-color="#F5F6FF"/>
<stop offset="1" stop-color="white"/>
</linearGradient>
<linearGradient id="paint44_linear_224_100856" x1="-8706.64" y1="1427.23" x2="-8686.26" y2="1423.93" gradientUnits="userSpaceOnUse">
<stop offset="0.04" stop-color="#E67A45"/>
<stop offset="0.33" stop-color="#EC894D"/>
<stop offset="0.89" stop-color="#FCB262"/>
<stop offset="1" stop-color="#FFBA66"/>
</linearGradient>
<linearGradient id="paint45_linear_224_100856" x1="-45900.5" y1="2164.52" x2="-45920.1" y2="2227.61" gradientUnits="userSpaceOnUse">
<stop offset="0.04" stop-color="#E67A45"/>
<stop offset="0.33" stop-color="#EC894D"/>
<stop offset="0.89" stop-color="#FCB262"/>
<stop offset="1" stop-color="#FFBA66"/>
</linearGradient>
<linearGradient id="paint46_linear_224_100856" x1="-3263.79" y1="-14850.5" x2="-3255.01" y2="-14849.5" gradientUnits="userSpaceOnUse">
<stop offset="0.04" stop-color="#E67A45"/>
<stop offset="0.33" stop-color="#EC894D"/>
<stop offset="0.89" stop-color="#FCB262"/>
<stop offset="1" stop-color="#FFBA66"/>
</linearGradient>
<linearGradient id="paint47_linear_224_100856" x1="-3257.84" y1="-14855.4" x2="-3249.07" y2="-14854.4" gradientUnits="userSpaceOnUse">
<stop offset="0.04" stop-color="#E67A45"/>
<stop offset="0.33" stop-color="#EC894D"/>
<stop offset="0.89" stop-color="#FCB262"/>
<stop offset="1" stop-color="#FFBA66"/>
</linearGradient>
<linearGradient id="paint48_linear_224_100856" x1="-28746.9" y1="7811.44" x2="-28798.6" y2="7806.76" gradientUnits="userSpaceOnUse">
<stop offset="0.01" stop-color="#273B98"/>
<stop offset="0.23" stop-color="#2F2BA2"/>
<stop offset="0.4" stop-color="#361CAC"/>
<stop offset="0.77" stop-color="#440B89"/>
<stop offset="1" stop-color="#4E0070"/>
</linearGradient>
<linearGradient id="paint49_linear_224_100856" x1="-95058.6" y1="18036.7" x2="-95646.1" y2="15179.2" gradientUnits="userSpaceOnUse">
<stop offset="0.01" stop-color="#5277F7"/>
<stop offset="0.39" stop-color="#7670F4"/>
<stop offset="0.53" stop-color="#836DF3"/>
<stop offset="0.65" stop-color="#8C6DF3"/>
<stop offset="0.85" stop-color="#A46DF3"/>
<stop offset="1" stop-color="#BB6DF3"/>
</linearGradient>
<linearGradient id="paint50_linear_224_100856" x1="241.853" y1="144.792" x2="229.54" y2="137.334" gradientUnits="userSpaceOnUse">
<stop stop-color="#FF7370"/>
<stop offset="0.37" stop-color="#FF9E6E"/>
<stop offset="1" stop-color="#FFE585"/>
</linearGradient>
<linearGradient id="paint51_linear_224_100856" x1="-57437.3" y1="8379.79" x2="-56597.2" y2="8225.54" gradientUnits="userSpaceOnUse">
<stop offset="0.04" stop-color="#E67A45"/>
<stop offset="0.33" stop-color="#EC894D"/>
<stop offset="0.89" stop-color="#FCB262"/>
<stop offset="1" stop-color="#FFBA66"/>
</linearGradient>
<linearGradient id="paint52_linear_224_100856" x1="-51450.7" y1="8152.61" x2="-50465.4" y2="8021.41" gradientUnits="userSpaceOnUse">
<stop offset="0.04" stop-color="#FF9E6E"/>
<stop offset="0.3" stop-color="#FFAD73"/>
<stop offset="0.82" stop-color="#FFD680"/>
<stop offset="1" stop-color="#FFE585"/>
</linearGradient>
<linearGradient id="paint53_linear_224_100856" x1="-107395" y1="4776.79" x2="-107663" y2="5645.22" gradientUnits="userSpaceOnUse">
<stop offset="0.04" stop-color="#FF9E6E"/>
<stop offset="0.3" stop-color="#FFAD73"/>
<stop offset="0.82" stop-color="#FFD680"/>
<stop offset="1" stop-color="#FFE585"/>
</linearGradient>
<linearGradient id="paint54_linear_224_100856" x1="-107431" y1="2571.36" x2="-107503" y2="3026.84" gradientUnits="userSpaceOnUse">
<stop stop-color="#AFB6E5"/>
<stop offset="0.14" stop-color="#B6BCE8"/>
<stop offset="0.35" stop-color="#C8CDF1"/>
<stop offset="0.58" stop-color="#E5E9FF"/>
<stop offset="0.86" stop-color="#F5F6FF"/>
<stop offset="1" stop-color="white"/>
</linearGradient>
<linearGradient id="paint55_linear_224_100856" x1="-12680.5" y1="2161.73" x2="-12635.5" y2="2154.42" gradientUnits="userSpaceOnUse">
<stop offset="0.04" stop-color="#E67A45"/>
<stop offset="0.33" stop-color="#EC894D"/>
<stop offset="0.89" stop-color="#FCB262"/>
<stop offset="1" stop-color="#FFBA66"/>
</linearGradient>
<linearGradient id="paint56_linear_224_100856" x1="-66916.4" y1="3267.07" x2="-66959.6" y2="3406.67" gradientUnits="userSpaceOnUse">
<stop offset="0.04" stop-color="#E67A45"/>
<stop offset="0.33" stop-color="#EC894D"/>
<stop offset="0.89" stop-color="#FCB262"/>
<stop offset="1" stop-color="#FFBA66"/>
</linearGradient>
<linearGradient id="paint57_linear_224_100856" x1="-6512.26" y1="-22334.1" x2="-6492.89" y2="-22331.9" gradientUnits="userSpaceOnUse">
<stop offset="0.04" stop-color="#E67A45"/>
<stop offset="0.33" stop-color="#EC894D"/>
<stop offset="0.89" stop-color="#FCB262"/>
<stop offset="1" stop-color="#FFBA66"/>
</linearGradient>
<linearGradient id="paint58_linear_224_100856" x1="-6500.42" y1="-22343.1" x2="-6481.05" y2="-22340.8" gradientUnits="userSpaceOnUse">
<stop offset="0.04" stop-color="#E67A45"/>
<stop offset="0.33" stop-color="#EC894D"/>
<stop offset="0.89" stop-color="#FCB262"/>
<stop offset="1" stop-color="#FFBA66"/>
</linearGradient>
<linearGradient id="paint59_linear_224_100856" x1="210.275" y1="148.524" x2="205.981" y2="138.573" gradientUnits="userSpaceOnUse">
<stop offset="0.1" stop-color="#45108A"/>
<stop offset="1" stop-color="#7C1DC9"/>
</linearGradient>
<linearGradient id="paint60_linear_224_100856" x1="4059.6" y1="2305.19" x2="4131.52" y2="2305.19" gradientUnits="userSpaceOnUse">
<stop offset="0.01" stop-color="#5277F7"/>
<stop offset="0.39" stop-color="#7670F4"/>
<stop offset="0.53" stop-color="#836DF3"/>
<stop offset="0.65" stop-color="#8C6DF3"/>
<stop offset="0.85" stop-color="#A46DF3"/>
<stop offset="1" stop-color="#BB6DF3"/>
</linearGradient>
<linearGradient id="paint61_linear_224_100856" x1="6555.97" y1="3175.84" x2="6757.93" y2="3175.84" gradientUnits="userSpaceOnUse">
<stop offset="0.01" stop-color="#5277F7"/>
<stop offset="0.39" stop-color="#7670F4"/>
<stop offset="0.53" stop-color="#836DF3"/>
<stop offset="0.65" stop-color="#8C6DF3"/>
<stop offset="0.85" stop-color="#A46DF3"/>
<stop offset="1" stop-color="#BB6DF3"/>
</linearGradient>
<linearGradient id="paint62_linear_224_100856" x1="3053.86" y1="2772.35" x2="3166.92" y2="2732.99" gradientUnits="userSpaceOnUse">
<stop offset="0.01" stop-color="#5277F7"/>
<stop offset="0.39" stop-color="#7670F4"/>
<stop offset="0.53" stop-color="#836DF3"/>
<stop offset="0.65" stop-color="#8C6DF3"/>
<stop offset="0.85" stop-color="#A46DF3"/>
<stop offset="1" stop-color="#BB6DF3"/>
</linearGradient>
</defs>
</svg>
