<svg width="40" height="40" viewBox="0 0 40 40" fill="none" xmlns="http://www.w3.org/2000/svg">
<g clip-path="url(#clip0_7_2238)">
<path d="M34.9993 23.3333H4.99935C3.16102 23.3333 1.66602 21.8383 1.66602 20V3.33333C1.66602 1.495 3.16102 0 4.99935 0H34.9993C36.8377 0 38.3327 1.495 38.3327 3.33333V20C38.3327 21.8383 36.8377 23.3333 34.9993 23.3333ZM4.99935 1.66667C4.07935 1.66667 3.33268 2.415 3.33268 3.33333V20C3.33268 20.9183 4.07935 21.6667 4.99935 21.6667H34.9993C35.9193 21.6667 36.666 20.9183 36.666 20V3.33333C36.666 2.415 35.9193 1.66667 34.9993 1.66667H4.99935Z" fill="#8DDCA4"/>
<path d="M19.9998 39.9994C19.7864 39.9994 19.5731 39.9177 19.4098 39.7561L14.4098 34.7561C14.0848 34.4311 14.0848 33.9027 14.4098 33.5777C14.7348 33.2527 15.2631 33.2527 15.5881 33.5777L19.9998 37.9877L24.4098 33.5777C24.7348 33.2527 25.2631 33.2527 25.5881 33.5777C25.9131 33.9027 25.9131 34.4311 25.5881 34.7561L20.5881 39.7561C20.4264 39.9177 20.2131 39.9994 19.9998 39.9994Z" fill="#8DDCA4"/>
<path d="M19.9993 40C19.5393 40 19.166 39.6267 19.166 39.1667V25.8333C19.166 25.3733 19.5393 25 19.9993 25C20.4593 25 20.8327 25.3733 20.8327 25.8333V39.1667C20.8327 39.6267 20.4593 40 19.9993 40Z" fill="#8DDCA4"/>
<path d="M20.0006 18.3333C16.324 18.3333 13.334 15.3433 13.334 11.6667C13.334 7.99 16.324 5 20.0006 5C23.6773 5 26.6673 7.99 26.6673 11.6667C26.6673 15.3433 23.6773 18.3333 20.0006 18.3333ZM20.0006 6.66667C17.244 6.66667 15.0006 8.91 15.0006 11.6667C15.0006 14.4233 17.244 16.6667 20.0006 16.6667C22.7573 16.6667 25.0006 14.4233 25.0006 11.6667C25.0006 8.91 22.7573 6.66667 20.0006 6.66667Z" fill="#8DDCA4"/>
<path d="M9.16601 12.5007H7.49935C7.03935 12.5007 6.66602 12.1273 6.66602 11.6673C6.66602 11.2073 7.03935 10.834 7.49935 10.834H9.16601C9.62601 10.834 9.99935 11.2073 9.99935 11.6673C9.99935 12.1273 9.62601 12.5007 9.16601 12.5007Z" fill="#8DDCA4"/>
<path d="M32.5 12.5007H30.8333C30.3733 12.5007 30 12.1273 30 11.6673C30 11.2073 30.3733 10.834 30.8333 10.834H32.5C32.96 10.834 33.3333 11.2073 33.3333 11.6673C33.3333 12.1273 32.96 12.5007 32.5 12.5007Z" fill="#8DDCA4"/>
</g>
<defs>
<clipPath id="clip0_7_2238">
<rect width="40" height="40" fill="white"/>
</clipPath>
</defs>
</svg>
