<svg width="135" height="40" viewBox="0 0 135 40" fill="none" xmlns="http://www.w3.org/2000/svg">
<path d="M9.43001 39.1291C9.08569 39.1291 8.74969 39.1252 8.40807 39.1184C7.70037 39.1102 6.99433 39.0557 6.29574 38.9553C5.64433 38.856 5.0133 38.6713 4.42345 38.4072C3.839 38.1454 3.30594 37.8021 2.84469 37.3904C2.37676 36.9836 1.98718 36.5118 1.6914 35.9936C1.39236 35.4721 1.18541 34.9131 1.07775 34.3361C0.961494 33.7161 0.898592 33.0891 0.889592 32.4607C0.882427 32.2498 0.873047 31.5474 0.873047 31.5474V8.44202C0.873047 8.44202 0.883037 7.75046 0.889648 7.54729C0.898266 6.91984 0.960802 6.29388 1.07671 5.67483C1.18457 5.09623 1.39168 4.53561 1.69088 4.01238C1.98557 3.49459 2.37299 3.0224 2.8381 2.61414C3.30269 2.20199 3.83745 1.8569 4.42289 1.59145C5.01139 1.32828 5.64123 1.14488 6.29132 1.0474C6.99221 0.945946 7.7007 0.891094 8.41085 0.883306L9.43056 0.871094H125.57L126.602 0.883796C127.306 0.891197 128.008 0.945559 128.702 1.04642C129.359 1.14513 129.995 1.32981 130.59 1.59439C131.763 2.12934 132.718 2.9757 133.32 4.01482C133.614 4.53444 133.818 5.09048 133.924 5.66409C134.042 6.28822 134.107 6.9191 134.121 7.55169C134.124 7.83495 134.124 8.13921 134.124 8.44202C134.133 8.81709 134.133 9.1741 134.133 9.53403V30.4671C134.133 30.8305 134.133 31.185 134.124 31.5425C134.124 31.8678 134.124 32.1657 134.12 32.4724C134.107 33.0937 134.042 33.7133 133.927 34.3263C133.821 34.9075 133.615 35.4708 133.316 35.9966C133.018 36.5092 132.631 36.9769 132.169 37.3826C131.707 37.7965 131.173 38.1418 130.587 38.4053C129.994 38.6714 129.358 38.8568 128.702 38.9553C128.004 39.0562 127.297 39.1108 126.59 39.1184C126.259 39.1252 125.912 39.1291 125.576 39.1291L124.35 39.1311L9.43001 39.1291Z" fill="black"/>
<path d="M32.7973 20.3003C32.8081 19.4657 33.0298 18.6473 33.4418 17.9213C33.8538 17.1954 34.4428 16.5854 35.1539 16.1483C34.7021 15.5031 34.1062 14.9722 33.4134 14.5976C32.7205 14.2231 31.9499 14.0152 31.1627 13.9906C29.4835 13.8143 27.8555 14.9954 26.9998 14.9954C26.1275 14.9954 24.81 14.0081 23.3913 14.0373C22.4736 14.0669 21.5793 14.3338 20.7954 14.8118C20.0115 15.2899 19.3649 15.9629 18.9184 16.7651C16.9844 20.1136 18.427 25.0346 20.2796 27.7412C21.2065 29.0666 22.2898 30.547 23.7072 30.4945C25.0943 30.437 25.6123 29.61 27.2866 29.61C28.9454 29.61 29.4314 30.4945 30.8776 30.4611C32.366 30.437 33.3038 29.1299 34.1981 27.792C34.8641 26.8476 35.3766 25.8039 35.7166 24.6995C34.8518 24.3338 34.1139 23.7216 33.5948 22.9393C33.0757 22.157 32.7983 21.2392 32.7973 20.3003Z" fill="white"/>
<path d="M30.0649 12.2113C30.8764 11.2371 31.2763 9.98494 31.1794 8.7207C29.9396 8.85092 28.7943 9.44348 27.9719 10.3803C27.5697 10.838 27.2617 11.3704 27.0655 11.9472C26.8692 12.524 26.7886 13.1337 26.8281 13.7417C27.4483 13.7481 28.0618 13.6137 28.6225 13.3486C29.1831 13.0835 29.6763 12.6946 30.0649 12.2113Z" fill="white"/>
<path d="M50.3301 27.1397H45.5967L44.46 30.4961H42.4551L46.9385 18.0781H49.0215L53.5049 30.4961H51.4658L50.3301 27.1397ZM46.0869 25.5908H49.8389L47.9893 20.1436H47.9375L46.0869 25.5908Z" fill="white"/>
<path d="M63.1866 25.9695C63.1866 28.7829 61.6807 30.5905 59.4082 30.5905C58.8326 30.6207 58.2601 30.4881 57.7563 30.2079C57.2525 29.9278 56.8378 29.5114 56.5596 29.0065H56.5166V33.4909H54.6582V21.4421H56.4571V22.948H56.4912C56.7822 22.4455 57.2039 22.0313 57.7116 21.7495C58.2192 21.4676 58.7937 21.3287 59.3741 21.3474C61.6719 21.3474 63.1866 23.1638 63.1866 25.9695ZM61.2764 25.9695C61.2764 24.1365 60.3291 22.9314 58.8838 22.9314C57.4639 22.9314 56.5088 24.1618 56.5088 25.9695C56.5088 27.7937 57.4639 29.0154 58.8838 29.0154C60.3291 29.0154 61.2764 27.8191 61.2764 25.9695Z" fill="white"/>
<path d="M73.1514 25.9694C73.1514 28.7829 71.6455 30.5905 69.3731 30.5905C68.7974 30.6206 68.2249 30.488 67.7211 30.2079C67.2173 29.9278 66.8026 29.5114 66.5244 29.0065H66.4814V33.4909H64.623V21.4421H66.4219V22.948H66.456C66.747 22.4455 67.1687 22.0313 67.6764 21.7495C68.184 21.4676 68.7585 21.3287 69.3389 21.3474C71.6367 21.3474 73.1514 23.1638 73.1514 25.9694ZM71.2412 25.9694C71.2412 24.1364 70.294 22.9314 68.8487 22.9314C67.4287 22.9314 66.4737 24.1618 66.4737 25.9694C66.4737 27.7937 67.4287 29.0153 68.8487 29.0153C70.294 29.0153 71.2412 27.8191 71.2412 25.9694H71.2412Z" fill="white"/>
<path d="M79.7383 27.0362C79.876 28.2676 81.0723 29.0762 82.7071 29.0762C84.2735 29.0762 85.4004 28.2676 85.4004 27.1572C85.4004 26.1934 84.7207 25.6162 83.1114 25.2207L81.502 24.833C79.2217 24.2822 78.1631 23.2158 78.1631 21.4854C78.1631 19.3428 80.0303 17.8711 82.6817 17.8711C85.3057 17.8711 87.1045 19.3428 87.1651 21.4854H85.2891C85.1768 20.2461 84.1524 19.4981 82.6553 19.4981C81.1582 19.4981 80.1338 20.2549 80.1338 21.3565C80.1338 22.2344 80.7881 22.751 82.3887 23.1465L83.7568 23.4824C86.3047 24.0849 87.3633 25.1084 87.3633 26.9248C87.3633 29.248 85.5127 30.7031 82.5693 30.7031C79.8154 30.7031 77.9561 29.2822 77.8359 27.0361L79.7383 27.0362Z" fill="white"/>
<path d="M91.375 19.3008V21.4434H93.0967V22.915H91.375V27.9062C91.375 28.6816 91.7197 29.043 92.4766 29.043C92.6809 29.0394 92.885 29.0251 93.0879 29V30.4629C92.7476 30.5264 92.4018 30.5552 92.0557 30.5488C90.2227 30.5488 89.5078 29.8603 89.5078 28.1045V22.915H88.1914V21.4434H89.5078V19.3008H91.375Z" fill="white"/>
<path d="M94.0938 25.9707C94.0938 23.1221 95.7715 21.332 98.3877 21.332C101.013 21.332 102.683 23.122 102.683 25.9707C102.683 28.8272 101.021 30.6094 98.3877 30.6094C95.7548 30.6094 94.0938 28.8271 94.0938 25.9707ZM100.789 25.9707C100.789 24.0166 99.8935 22.8633 98.3877 22.8633C96.8818 22.8633 95.9873 24.0254 95.9873 25.9707C95.9873 27.9326 96.8818 29.0772 98.3877 29.0772C99.8935 29.0772 100.789 27.9326 100.789 25.9707H100.789Z" fill="white"/>
<path d="M104.213 21.442H105.985V22.983H106.028C106.148 22.5017 106.43 22.0764 106.827 21.7785C107.223 21.4806 107.71 21.3284 108.206 21.3473C108.42 21.3465 108.634 21.3698 108.843 21.4166V23.1549C108.572 23.0723 108.29 23.0343 108.008 23.0426C107.738 23.0316 107.469 23.0792 107.219 23.1821C106.969 23.285 106.744 23.4408 106.56 23.6386C106.376 23.8365 106.237 24.0719 106.153 24.3286C106.069 24.5852 106.041 24.8571 106.071 25.1256V30.4957H104.213L104.213 21.442Z" fill="white"/>
<path d="M117.413 27.8379C117.163 29.4814 115.562 30.6094 113.515 30.6094C110.881 30.6094 109.246 28.8447 109.246 26.0137C109.246 23.1738 110.89 21.332 113.437 21.332C115.941 21.332 117.517 23.0527 117.517 25.7978V26.4346H111.122V26.5469C111.093 26.8801 111.134 27.2157 111.244 27.5316C111.355 27.8474 111.531 28.1362 111.761 28.3787C111.991 28.6213 112.271 28.8121 112.581 28.9384C112.89 29.0647 113.223 29.1236 113.558 29.1113C113.997 29.1525 114.437 29.0508 114.814 28.8213C115.191 28.5919 115.484 28.247 115.648 27.8379L117.413 27.8379ZM111.131 25.1357H115.657C115.674 24.8361 115.628 24.5363 115.524 24.2551C115.419 23.9739 115.257 23.7174 115.049 23.5016C114.84 23.2858 114.59 23.1155 114.312 23.0013C114.035 22.8871 113.737 22.8314 113.437 22.8379C113.134 22.8361 112.834 22.8942 112.554 23.009C112.274 23.1237 112.019 23.2928 111.805 23.5064C111.591 23.72 111.421 23.974 111.305 24.2537C111.189 24.5333 111.13 24.8331 111.131 25.1357V25.1357Z" fill="white"/>
<path d="M45.8545 8.73138C46.2441 8.70342 46.6351 8.76228 46.9992 8.90371C47.3633 9.04515 47.6915 9.26563 47.9601 9.54925C48.2286 9.83288 48.4309 10.1726 48.5523 10.5438C48.6737 10.9151 48.7112 11.3087 48.6621 11.6962C48.6621 13.6025 47.6318 14.6982 45.8545 14.6982H43.6992V8.73138H45.8545ZM44.626 13.8544H45.751C46.0294 13.871 46.308 13.8254 46.5665 13.7208C46.8251 13.6161 47.057 13.4552 47.2455 13.2496C47.434 13.0441 47.5743 12.7991 47.6562 12.5324C47.738 12.2658 47.7594 11.9843 47.7187 11.7084C47.7564 11.4335 47.7329 11.1538 47.6498 10.8891C47.5667 10.6244 47.426 10.3814 47.238 10.1775C47.0499 9.97358 46.8191 9.81378 46.562 9.70954C46.3049 9.6053 46.028 9.55922 45.751 9.57459H44.626V13.8544Z" fill="white"/>
<path d="M49.7093 12.4458C49.681 12.1498 49.7148 11.8513 49.8086 11.5692C49.9025 11.2871 50.0542 11.0278 50.2542 10.8078C50.4541 10.5878 50.6978 10.4121 50.9697 10.2918C51.2415 10.1715 51.5355 10.1094 51.8328 10.1094C52.1301 10.1094 52.4241 10.1715 52.6959 10.2918C52.9678 10.4121 53.2115 10.5878 53.4114 10.8078C53.6114 11.0278 53.7631 11.2871 53.857 11.5692C53.9508 11.8513 53.9846 12.1498 53.9563 12.4458C53.9852 12.742 53.9517 13.041 53.8581 13.3235C53.7645 13.606 53.6129 13.8658 53.4129 14.0862C53.2129 14.3067 52.969 14.4828 52.6969 14.6033C52.4248 14.7239 52.1304 14.7861 51.8328 14.7861C51.5352 14.7861 51.2408 14.7239 50.9687 14.6033C50.6966 14.4828 50.4527 14.3067 50.2527 14.0862C50.0527 13.8658 49.9011 13.606 49.8075 13.3235C49.7139 13.041 49.6804 12.742 49.7093 12.4458ZM53.0423 12.4458C53.0423 11.4697 52.6038 10.8989 51.8343 10.8989C51.0618 10.8989 50.6273 11.4697 50.6273 12.4458C50.6273 13.4297 51.0618 13.9961 51.8343 13.9961C52.6038 13.996 53.0423 13.4257 53.0423 12.4458H53.0423Z" fill="white"/>
<path d="M59.6016 14.6982H58.6797L57.749 11.3818H57.6787L56.752 14.6982H55.8389L54.5977 10.1953H55.499L56.3057 13.6313H56.3721L57.2979 10.1953H58.1504L59.0762 13.6313H59.1465L59.9492 10.1953H60.8379L59.6016 14.6982Z" fill="white"/>
<path d="M61.8809 10.1949H62.7363V10.9102H62.8027C62.9154 10.6533 63.1054 10.4379 63.3463 10.2941C63.5871 10.1503 63.8669 10.0852 64.1465 10.1079C64.3656 10.0915 64.5856 10.1245 64.7902 10.2046C64.9948 10.2847 65.1787 10.4098 65.3284 10.5707C65.4781 10.7315 65.5897 10.924 65.6549 11.1338C65.7201 11.3436 65.7372 11.5654 65.7051 11.7827V14.6977H64.8164V12.0059C64.8164 11.2823 64.502 10.9224 63.8447 10.9224C63.696 10.9155 63.5475 10.9408 63.4094 10.9966C63.2714 11.0525 63.147 11.1375 63.0449 11.2459C62.9428 11.3543 62.8653 11.4834 62.8177 11.6246C62.7702 11.7657 62.7538 11.9154 62.7695 12.0635V14.6978H61.8809L61.8809 10.1949Z" fill="white"/>
<path d="M67.1211 8.4375H68.0098V14.6982H67.1211V8.4375Z" fill="white"/>
<path d="M69.2463 12.4439C69.2181 12.1479 69.2519 11.8494 69.3458 11.5673C69.4397 11.2852 69.5914 11.0259 69.7914 10.8059C69.9914 10.5859 70.2351 10.4101 70.507 10.2898C70.7788 10.1696 71.0728 10.1074 71.3701 10.1074C71.6674 10.1074 71.9614 10.1696 72.2333 10.2898C72.5052 10.4101 72.7489 10.5859 72.9489 10.8059C73.1488 11.0259 73.3006 11.2852 73.3945 11.5673C73.4883 11.8494 73.5222 12.1479 73.4939 12.4439C73.5227 12.7401 73.4892 13.0391 73.3956 13.3216C73.302 13.6042 73.1503 13.864 72.9503 14.0844C72.7503 14.3048 72.5064 14.4809 72.2342 14.6014C71.9621 14.722 71.6678 14.7842 71.3701 14.7842C71.0725 14.7842 70.7782 14.722 70.506 14.6014C70.2339 14.4809 69.99 14.3048 69.79 14.0844C69.59 13.864 69.4383 13.6042 69.3446 13.3216C69.251 13.0391 69.2175 12.7401 69.2463 12.4439ZM72.5793 12.4439C72.5793 11.4678 72.1409 10.897 71.3713 10.897C70.5989 10.897 70.1644 11.4678 70.1644 12.4439C70.1644 13.4278 70.5989 13.9942 71.3713 13.9942C72.1409 13.9942 72.5794 13.4239 72.5794 12.4439H72.5793Z" fill="white"/>
<path d="M74.4297 13.4258C74.4297 12.6152 75.0332 12.1479 76.1045 12.0815L77.3242 12.0112V11.6226C77.3242 11.147 77.0098 10.8784 76.4023 10.8784C75.9063 10.8784 75.5625 11.0605 75.4639 11.3789H74.6035C74.6943 10.6055 75.4219 10.1094 76.4434 10.1094C77.5723 10.1094 78.209 10.6714 78.209 11.6226V14.6992H77.3535V14.0664H77.2832C77.1405 14.2934 76.9401 14.4784 76.7025 14.6027C76.4648 14.7269 76.1985 14.7858 75.9307 14.7734C75.7416 14.7931 75.5506 14.7729 75.3698 14.7142C75.1891 14.6555 75.0226 14.5596 74.8812 14.4326C74.7398 14.3056 74.6265 14.1504 74.5488 13.977C74.471 13.8036 74.4304 13.6158 74.4297 13.4258ZM77.3242 13.041V12.6645L76.2246 12.7349C75.6045 12.7764 75.3232 12.9873 75.3232 13.3843C75.3232 13.7895 75.6748 14.0254 76.1582 14.0254C76.2999 14.0397 76.443 14.0254 76.579 13.9833C76.715 13.9412 76.8411 13.8722 76.9499 13.7804C77.0587 13.6885 77.1479 13.5757 77.2122 13.4487C77.2765 13.3217 77.3146 13.183 77.3242 13.041Z" fill="white"/>
<path d="M79.377 12.4448C79.377 11.022 80.1084 10.1206 81.2461 10.1206C81.5275 10.1077 81.8068 10.1751 82.0513 10.315C82.2959 10.4548 82.4955 10.6615 82.627 10.9106H82.6934V8.4375H83.582V14.6982H82.7305V13.9868H82.6602C82.5186 14.2343 82.3119 14.4383 82.0627 14.5768C81.8134 14.7153 81.531 14.783 81.2461 14.7724C80.1006 14.7725 79.377 13.8711 79.377 12.4448ZM80.295 12.4448C80.295 13.3999 80.7452 13.9746 81.4981 13.9746C82.2471 13.9746 82.71 13.3916 82.71 12.4487C82.71 11.5103 82.2422 10.919 81.4981 10.919C80.75 10.919 80.2949 11.4976 80.2949 12.4448H80.295Z" fill="white"/>
<path d="M87.2581 12.4458C87.2298 12.1498 87.2636 11.8513 87.3575 11.5692C87.4513 11.2871 87.6031 11.0278 87.803 10.8078C88.003 10.5878 88.2467 10.4121 88.5185 10.2918C88.7904 10.1715 89.0844 10.1094 89.3816 10.1094C89.6789 10.1094 89.9729 10.1715 90.2447 10.2918C90.5166 10.4121 90.7603 10.5878 90.9602 10.8078C91.1602 11.0278 91.3119 11.2871 91.4058 11.5692C91.4996 11.8513 91.5335 12.1498 91.5052 12.4458C91.534 12.742 91.5006 13.041 91.407 13.3235C91.3134 13.606 91.1617 13.8658 90.9617 14.0862C90.7617 14.3067 90.5178 14.4828 90.2457 14.6033C89.9736 14.7239 89.6793 14.7861 89.3816 14.7861C89.084 14.7861 88.7897 14.7239 88.5175 14.6033C88.2454 14.4828 88.0015 14.3067 87.8015 14.0862C87.6015 13.8658 87.4499 13.606 87.3563 13.3235C87.2627 13.041 87.2292 12.742 87.2581 12.4458ZM90.5911 12.4458C90.5911 11.4697 90.1526 10.8989 89.3831 10.8989C88.6106 10.8989 88.1761 11.4697 88.1761 12.4458C88.1761 13.4297 88.6107 13.9961 89.3831 13.9961C90.1526 13.996 90.5911 13.4257 90.5911 12.4458Z" fill="white"/>
<path d="M92.6973 10.1949H93.5527V10.9102H93.6191C93.7318 10.6533 93.9218 10.4379 94.1627 10.2941C94.4035 10.1503 94.6833 10.0852 94.9629 10.1079C95.182 10.0915 95.402 10.1245 95.6066 10.2046C95.8112 10.2847 95.9951 10.4098 96.1448 10.5707C96.2945 10.7315 96.4061 10.924 96.4713 11.1338C96.5365 11.3436 96.5536 11.5654 96.5215 11.7827V14.6977H95.6328V12.0059C95.6328 11.2823 95.3184 10.9224 94.6611 10.9224C94.5124 10.9155 94.3639 10.9408 94.2258 10.9966C94.0878 11.0525 93.9634 11.1375 93.8613 11.2459C93.7592 11.3543 93.6817 11.4834 93.6342 11.6246C93.5866 11.7657 93.5702 11.9154 93.5859 12.0635V14.6978H92.6973V10.1949Z" fill="white"/>
<path d="M101.544 9.07422V10.2158H102.52V10.9644H101.544V13.2798C101.544 13.7515 101.738 13.958 102.181 13.958C102.294 13.9576 102.407 13.9508 102.52 13.9375V14.6777C102.36 14.7063 102.198 14.7215 102.036 14.7231C101.048 14.7231 100.654 14.3755 100.654 13.5073V10.9643H99.9395V10.2158H100.654V9.07422H101.544Z" fill="white"/>
<path d="M103.732 8.4375H104.613V10.919H104.684C104.802 10.6596 104.997 10.443 105.243 10.2987C105.488 10.1543 105.773 10.0893 106.057 10.1123C106.275 10.1004 106.492 10.1368 106.695 10.2189C106.897 10.3009 107.079 10.4266 107.227 10.5869C107.375 10.7473 107.486 10.9383 107.552 11.1465C107.617 11.3546 107.636 11.5747 107.607 11.791V14.6982H106.718V12.0103C106.718 11.291 106.383 10.9268 105.755 10.9268C105.602 10.9142 105.449 10.9352 105.305 10.9883C105.161 11.0413 105.031 11.1252 104.923 11.2339C104.815 11.3426 104.732 11.4737 104.68 11.6178C104.628 11.7619 104.608 11.9157 104.621 12.0683V14.6982H103.732L103.732 8.4375Z" fill="white"/>
<path d="M112.789 13.4815C112.668 13.8931 112.406 14.249 112.05 14.4872C111.693 14.7253 111.264 14.8305 110.838 14.7842C110.541 14.7921 110.246 14.7353 109.974 14.6177C109.701 14.5002 109.457 14.3248 109.26 14.1036C109.062 13.8825 108.914 13.6209 108.827 13.3371C108.741 13.0533 108.717 12.754 108.757 12.46C108.718 12.1652 108.742 11.8652 108.829 11.5805C108.915 11.2959 109.062 11.0331 109.259 10.81C109.456 10.587 109.698 10.4088 109.97 10.2876C110.242 10.1664 110.536 10.105 110.834 10.1075C112.087 10.1075 112.842 10.9635 112.842 12.3775V12.6876H109.663V12.7374C109.649 12.9026 109.67 13.069 109.724 13.2257C109.778 13.3825 109.864 13.5262 109.977 13.6476C110.09 13.7691 110.227 13.8656 110.379 13.931C110.532 13.9964 110.696 14.0292 110.862 14.0274C111.075 14.0529 111.29 14.0146 111.481 13.9174C111.671 13.8202 111.829 13.6685 111.933 13.4815L112.789 13.4815ZM109.663 12.0303H111.937C111.948 11.8792 111.928 11.7274 111.877 11.5847C111.826 11.442 111.746 11.3115 111.641 11.2016C111.537 11.0918 111.411 11.005 111.271 10.9468C111.131 10.8886 110.98 10.8604 110.829 10.8638C110.675 10.8619 110.523 10.8908 110.38 10.9487C110.238 11.0067 110.108 11.0925 110 11.2012C109.891 11.3099 109.805 11.4393 109.747 11.5817C109.69 11.7241 109.661 11.8766 109.663 12.0303H109.663Z" fill="white"/>
</svg>
