<svg width="265" height="161" viewBox="0 0 265 161" fill="none" xmlns="http://www.w3.org/2000/svg">
<path d="M174.611 13.0318V69.3433C174.611 76.3222 168.867 81.9813 161.779 81.9813H104.62C97.5334 81.9813 91.7881 76.3222 91.7881 69.3433V13.0318C91.7881 6.05223 97.5334 0.393066 104.62 0.393066H161.779C168.867 0.393066 174.611 6.05223 174.611 13.0318Z" fill="#007683"/>
<path d="M174.612 16.9187V39.8721C174.162 39.9804 173.734 40.0961 173.314 40.2328C158.568 45.1002 147.737 54.441 141.329 68.3697C140.08 71.0828 139.303 74.1486 138.931 77.1941C138.808 78.2363 138.729 79.2758 138.695 80.2964C138.676 80.8575 138.661 81.4205 138.647 81.9816H113.598V62.4865C113.641 62.5217 113.689 62.5569 113.732 62.592V3.40562H113.598V0.393303H138.931V3.04219H138.845V34.6725C138.874 34.6488 138.903 34.6231 138.931 34.5994C149.546 25.4988 161.313 19.8864 174.612 16.9187Z" fill="#FFE081"/>
<path d="M138.931 81.9817V77.1942V34.5995V3.0423V0.392746H113.598V3.40574V62.4859V81.9817H138.647H138.931Z" fill="#8DDCA4"/>
<path d="M19.8686 138.775H0V107.59H5.3579V133.76H19.8686V138.775Z" fill="#007683"/>
<path d="M27.705 133.035C28.8805 134.252 30.3166 134.86 32.0138 134.86C33.7104 134.86 35.146 134.259 36.322 133.057C37.4975 131.855 38.0858 130.183 38.0858 128.042C38.0858 125.931 37.4975 124.281 36.322 123.094C35.146 121.906 33.7104 121.313 32.0138 121.313C30.3166 121.313 28.8805 121.906 27.705 123.094C26.5284 124.281 25.9412 125.931 25.9412 128.042C25.9412 130.153 26.5284 131.818 27.705 133.035ZM32.0138 116.694C35.2875 116.694 37.9885 117.765 40.1175 119.905C42.2453 122.046 43.31 124.759 43.31 128.042C43.31 131.327 42.2453 134.047 40.1175 136.202C37.9885 138.357 35.2875 139.434 32.0138 139.434C28.7692 139.434 26.0822 138.357 23.9543 136.202C21.8259 134.047 20.7617 131.327 20.7617 128.042C20.7617 124.759 21.8259 122.046 23.9543 119.905C26.0822 117.765 28.7692 116.694 32.0138 116.694Z" fill="#007683"/>
<path d="M53.5338 135.431C55.1415 135.431 56.4434 135 57.441 134.134C58.4376 133.27 58.9364 131.855 58.9364 129.89V128.922L53.2659 129.758C51.331 130.081 50.3635 131.048 50.3635 132.661C50.3635 133.423 50.646 134.076 51.2119 134.618C51.7773 135.161 52.5512 135.431 53.5338 135.431ZM45.1846 132.968C45.1846 131.151 45.7869 129.692 46.9931 128.592C48.1982 127.492 49.7831 126.796 51.7476 126.502L57.3292 125.667C58.4001 125.521 58.9364 125.007 58.9364 124.127C58.9364 123.16 58.5941 122.376 57.9096 121.775C57.2246 121.174 56.1974 120.873 54.8284 120.873C53.5187 120.873 52.4768 121.232 51.7029 121.95C50.9289 122.669 50.4827 123.6 50.3635 124.743L45.6314 123.688C45.8389 121.753 46.7767 120.103 48.4437 118.74C50.1108 117.376 52.2235 116.694 54.7836 116.694C57.9388 116.694 60.2679 117.442 61.7716 118.937C63.2743 120.433 64.0264 122.354 64.0264 124.699V135.344C64.0264 136.751 64.1159 137.895 64.2938 138.774H59.4721C59.3228 138.335 59.249 137.426 59.249 136.047C57.8202 138.306 55.5878 139.434 52.5512 139.434C50.3485 139.434 48.5701 138.796 47.2162 137.521C45.8613 136.246 45.1846 134.728 45.1846 132.968Z" fill="#007683"/>
<path d="M71.9295 127.998C71.9295 130.051 72.4652 131.701 73.5367 132.946C74.6082 134.193 76.0219 134.816 77.7784 134.816C79.4751 134.816 80.8592 134.185 81.9312 132.924C83.0026 131.664 83.5378 130.007 83.5378 127.954C83.5378 125.931 83.0167 124.319 81.9754 123.116C80.9335 121.914 79.5489 121.313 77.8231 121.313C76.0968 121.313 74.6826 121.922 73.5814 123.138C72.4803 124.355 71.9295 125.975 71.9295 127.998ZM88.5389 106.93V134.86C88.5389 136.297 88.6128 137.602 88.7621 138.774H83.8062C83.657 137.954 83.5826 137.03 83.5826 136.003C83.0468 136.971 82.2131 137.763 81.0828 138.379C79.951 138.995 78.6564 139.303 77.1979 139.303C74.1021 139.303 71.5872 138.232 69.6523 136.092C67.7169 133.951 66.75 131.254 66.75 127.998C66.75 124.861 67.7247 122.207 69.6747 120.037C71.6237 117.868 74.1021 116.782 77.109 116.782C78.8343 116.782 80.2267 117.09 81.2831 117.706C82.34 118.322 83.0765 119.041 83.4931 119.861V106.93H88.5389Z" fill="#007683"/>
<path d="M117.337 139.435C112.901 139.435 109.128 137.954 106.018 134.992C102.907 132.03 101.353 128.101 101.353 123.204C101.353 118.337 102.93 114.407 106.085 111.416C109.24 108.425 112.975 106.929 117.292 106.929C121.102 106.929 124.235 107.883 126.69 109.789C129.146 111.695 130.761 114.114 131.535 117.046L126.49 118.717C125.983 116.694 124.956 115.052 123.409 113.791C121.861 112.531 119.821 111.9 117.292 111.9C114.464 111.9 112.016 112.889 109.947 114.869C107.878 116.848 106.844 119.627 106.844 123.204C106.844 126.694 107.871 129.428 109.925 131.407C111.978 133.386 114.449 134.376 117.337 134.376C119.807 134.376 121.846 133.716 123.454 132.397C125.061 131.077 126.162 129.45 126.757 127.514L131.669 129.098C130.895 132.001 129.265 134.449 126.78 136.443C124.294 138.438 121.146 139.435 117.337 139.435Z" fill="#007683"/>
<path d="M139.325 133.035C140.501 134.252 141.937 134.86 143.634 134.86C145.331 134.86 146.766 134.259 147.942 133.057C149.118 131.855 149.706 130.183 149.706 128.042C149.706 125.931 149.118 124.281 147.942 123.094C146.766 121.906 145.331 121.313 143.634 121.313C141.937 121.313 140.501 121.906 139.325 123.094C138.149 124.281 137.561 125.931 137.561 128.042C137.561 130.153 138.149 131.818 139.325 133.035ZM143.634 116.694C146.908 116.694 149.609 117.765 151.738 119.905C153.865 122.046 154.93 124.759 154.93 128.042C154.93 131.327 153.865 134.047 151.738 136.202C149.609 138.357 146.908 139.434 143.634 139.434C140.389 139.434 137.702 138.357 135.574 136.202C133.446 134.047 132.382 131.327 132.382 128.042C132.382 124.759 133.446 122.046 135.574 119.905C137.702 117.765 140.389 116.694 143.634 116.694Z" fill="#007683"/>
<path d="M163.325 126.415V138.775H158.146V117.354H163.191V120.213C163.875 119.04 164.79 118.168 165.936 117.596C167.082 117.024 168.31 116.738 169.62 116.738C172.18 116.738 174.129 117.53 175.469 119.113C176.809 120.697 177.478 122.735 177.478 125.227V138.775H172.299V126.107C172.299 124.671 171.942 123.519 171.227 122.654C170.513 121.79 169.382 121.357 167.834 121.357C166.405 121.357 165.296 121.834 164.508 122.786C163.719 123.739 163.325 124.949 163.325 126.415Z" fill="#007683"/>
<path d="M187.167 126.415V138.775H181.988V117.354H187.034V120.213C187.718 119.04 188.633 118.168 189.779 117.596C190.925 117.024 192.153 116.738 193.463 116.738C196.023 116.738 197.972 117.53 199.312 119.113C200.652 120.697 201.321 122.735 201.321 125.227V138.775H196.142V126.107C196.142 124.671 195.784 123.519 195.07 122.654C194.355 121.79 193.225 121.357 191.677 121.357C190.248 121.357 189.139 121.834 188.351 122.786C187.562 123.739 187.167 124.949 187.167 126.415Z" fill="#007683"/>
<path d="M209.446 125.711H220.118C220.057 124.362 219.574 123.234 218.666 122.325C217.758 121.416 216.456 120.961 214.76 120.961C213.211 120.961 211.961 121.438 211.009 122.391C210.056 123.344 209.535 124.45 209.446 125.711ZM220.698 131.297L225.073 132.661C224.449 134.625 223.28 136.246 221.569 137.521C219.856 138.797 217.751 139.434 215.251 139.434C212.154 139.434 209.528 138.394 207.37 136.311C205.212 134.23 204.133 131.444 204.133 127.954C204.133 124.671 205.182 121.973 207.281 119.861C209.379 117.75 211.857 116.694 214.715 116.694C218.048 116.694 220.653 117.699 222.528 119.707C224.404 121.716 225.342 124.421 225.342 127.822C225.342 128.732 225.297 129.274 225.208 129.45H209.312C209.372 131.062 209.974 132.397 211.121 133.452C212.266 134.508 213.643 135.036 215.251 135.036C218.048 135.036 219.864 133.79 220.698 131.297Z" fill="#007683"/>
<path d="M237.977 121.401C236.31 121.401 234.896 121.995 233.735 123.182C232.574 124.369 231.994 125.99 231.994 128.042C231.994 130.125 232.581 131.766 233.758 132.969C234.933 134.172 236.369 134.772 238.067 134.772C239.584 134.772 240.797 134.369 241.705 133.562C242.613 132.756 243.215 131.84 243.514 130.813L248.068 132.441C247.472 134.347 246.318 135.989 244.607 137.367C242.895 138.746 240.716 139.434 238.067 139.434C234.881 139.434 232.209 138.35 230.052 136.18C227.893 134.01 226.814 131.297 226.814 128.042C226.814 124.759 227.879 122.046 230.007 119.905C232.135 117.765 234.777 116.694 237.932 116.694C240.641 116.694 242.851 117.383 244.562 118.762C246.274 120.14 247.383 121.796 247.889 123.732L243.246 125.403C242.948 124.29 242.375 123.344 241.526 122.566C240.678 121.79 239.495 121.401 237.977 121.401Z" fill="#007683"/>
<path d="M257.442 110.8V117.354H261.952V121.885H257.442V131.825C257.442 132.764 257.666 133.445 258.112 133.87C258.559 134.296 259.258 134.509 260.211 134.509C260.806 134.509 261.401 134.45 261.997 134.332V138.554C261.223 138.877 260.166 139.038 258.826 139.038C256.802 139.038 255.21 138.474 254.05 137.345C252.888 136.217 252.308 134.655 252.308 132.661V121.885H248.289V117.354H249.406C250.506 117.354 251.34 117.046 251.906 116.43C252.471 115.814 252.754 115.008 252.754 114.011V110.8H257.442Z" fill="#007683"/>
<path d="M210.52 150.093V160.133H208.479L203.857 153.253V160.133H201.816V150.093H203.857L208.479 156.987V150.093H210.52Z" fill="#007683"/>
<path d="M213.698 150.108H215.739V160.133H213.698V150.108Z" fill="#007683"/>
<path d="M228.349 153.124H226.002C225.536 152.276 224.69 151.831 223.611 151.831C221.789 151.831 220.52 153.109 220.52 155.106C220.52 157.146 221.803 158.409 223.699 158.409C225.273 158.409 226.28 157.519 226.585 156.097H223.087V154.56H228.597V156.312C228.189 158.352 226.337 160.219 223.626 160.219C220.666 160.219 218.421 158.108 218.421 155.106C218.421 152.104 220.666 149.978 223.611 149.978C225.886 149.978 227.693 151.113 228.349 153.124Z" fill="#007683"/>
<path d="M237.184 151.731H233.32V154.244H236.746V155.838H233.32V158.495H237.184V160.132H231.279V150.093H237.184V151.731Z" fill="#007683"/>
<path d="M243.948 151.774H242.242V154.718H243.948C245.085 154.718 245.596 154.129 245.596 153.224C245.596 152.334 245.085 151.774 243.948 151.774ZM244.021 150.107C246.47 150.107 247.695 151.501 247.695 153.181C247.695 154.402 247.01 155.637 245.377 156.068L247.812 160.132H245.45L243.204 156.226H242.242V160.132H240.201V150.107H244.021Z" fill="#007683"/>
<path d="M250.713 150.108H252.754V160.133H250.713V150.108Z" fill="#007683"/>
<path d="M260.145 152.42L258.672 156.614H261.617L260.145 152.42ZM262.171 158.222H258.118L257.447 160.133H255.304L258.963 150.093H261.34L264.999 160.133H262.842L262.171 158.222Z" fill="#007683"/>
</svg>
