<svg width="279" height="277" viewBox="0 0 279 277" fill="none" xmlns="http://www.w3.org/2000/svg">
<circle cx="139.5" cy="144.5" r="132.5" fill="#D1F1DA"/>
<path opacity="0.64" d="M172.231 186.111L177.541 183.348C179.351 182.309 186.681 179.618 188.249 180.52L191.603 180.705C192.338 180.286 196.088 181.672 197.026 181.672C197.834 181.672 200.889 183.187 201.479 183.525L225.029 196.988L230.048 199.864L258.625 216.203C259.507 216.746 260.337 217.366 261.107 218.056C261.582 218.572 261.955 219.174 262.206 219.829C262.683 221.561 261.697 223.422 259.426 224.727L254.108 227.491C252.305 228.53 244.967 231.229 243.407 230.327L240.045 230.134C239.31 230.561 235.568 229.167 234.631 229.167C233.693 229.167 230.759 227.66 230.177 227.322L206.619 213.851L201.6 210.983L173.023 194.643C172.145 194.101 171.317 193.48 170.55 192.79C170.075 192.272 169.7 191.671 169.443 191.018C168.974 189.286 169.952 187.417 172.231 186.111Z" fill="black"/>
<path opacity="0.73" d="M172.837 186.61L177.977 183.975C180.046 182.791 186.616 180.753 188.411 181.752L191.643 182.308C192.193 181.993 196.113 183.677 196.816 183.677C197.519 183.677 200.63 185.289 201.067 185.579L223.777 198.59L228.626 201.362L256.185 217.137C257.046 217.637 257.857 218.217 258.609 218.869C259.141 219.288 259.547 219.846 259.781 220.48C260.323 222.092 259.401 223.929 257.179 225.21L252.039 227.893C249.978 229.077 243.399 231.115 241.613 230.116L238.38 229.552C237.823 229.875 233.911 228.191 233.208 228.191C232.505 228.191 229.393 226.539 228.957 226.281L206.271 213.245L201.422 210.474L173.871 194.715C173.01 194.219 172.198 193.642 171.447 192.991C170.907 192.562 170.501 191.989 170.275 191.339C169.717 189.704 170.631 187.899 172.837 186.61Z" fill="black"/>
<path opacity="0.82" d="M173.492 187.118L178.462 184.604C180.79 183.266 186.601 181.832 188.613 182.993L191.733 183.911C192.096 183.702 196.186 185.675 196.655 185.675C198.045 186.238 199.395 186.895 200.695 187.641L222.565 200.186L227.228 202.86L253.769 218.08C254.611 218.563 255.421 219.102 256.193 219.691C256.743 220.077 257.172 220.61 257.43 221.23C258.044 222.777 257.195 224.533 255.005 225.798L250.035 228.304C247.707 229.641 241.897 231.075 239.884 229.915L236.765 228.997C236.401 229.206 232.312 227.24 231.843 227.24C230.452 226.675 229.102 226.015 227.802 225.266L205.933 212.722L201.253 210.023L174.721 194.804C173.878 194.32 173.068 193.782 172.296 193.192C171.746 192.807 171.317 192.273 171.059 191.654C170.461 190.131 171.31 188.374 173.492 187.118Z" fill="black"/>
<path opacity="0.91" d="M174.129 187.617L178.93 185.2C181.508 183.718 186.559 182.912 188.798 184.193L191.788 185.482C191.974 185.378 196.241 187.642 196.475 187.642C196.71 187.642 200.169 189.583 200.314 189.672L221.327 201.757L225.812 204.327L251.327 218.991C251.44 219.055 253.646 220.36 253.703 220.457C254.258 220.802 254.708 221.292 255.004 221.875C255.683 223.325 254.907 225.041 252.765 226.274L247.965 228.691C245.378 230.181 240.327 230.987 238.089 229.698L235.098 228.409C234.912 228.522 230.653 226.258 230.419 226.258C230.185 226.258 226.726 224.308 226.572 224.227L205.559 212.142L201.074 209.564L175.56 194.909C175.447 194.844 173.24 193.531 173.192 193.434C172.632 193.094 172.181 192.602 171.891 192.016C171.22 190.558 172.028 188.85 174.129 187.617Z" fill="black"/>
<path opacity="0.2" d="M236.344 229.479L205.205 211.561L174.074 193.635C171.649 192.225 171.924 189.751 174.761 188.116L179.392 185.86C182.228 184.249 186.528 184.047 188.985 185.465L220.116 203.383L251.231 221.302C253.655 222.72 253.38 225.193 250.544 226.829L245.913 229.084C243.1 230.72 238.801 230.897 236.344 229.479Z" fill="black"/>
<path style="mix-blend-mode:color-dodge" d="M250.678 83.1125C258.472 79.9193 261.467 69.2667 257.366 59.3191C253.265 49.3716 243.623 43.8961 235.828 47.0893C228.034 50.2825 225.039 60.9352 229.14 70.8827C233.24 80.8302 242.883 86.3057 250.678 83.1125Z" fill="url(#paint0_radial_241_100856)"/>
<path d="M236.383 225.18L181.936 193.839C175.794 190.302 170.808 180.819 170.808 172.65V28.0872C170.808 23.938 167.389 23.0195 169.458 21.529C169.539 21.4726 174.307 19.3053 174.412 19.2731C175.606 18.7267 176.917 18.4806 178.229 18.5564C179.54 18.6323 180.814 19.0277 181.936 19.7082L236.383 51.049C242.526 54.5859 247.504 64.0687 247.504 72.2302V216.793C247.504 221.135 246.098 224.229 243.859 225.655C243.73 225.744 237.968 228.475 237.822 228.523C235.874 229.168 239.107 226.727 236.383 225.18Z" fill="#19352A"/>
<path style="mix-blend-mode:color-dodge" d="M235.875 51.2163L181.428 19.8836C178.535 18.2159 232.877 52.2234 232.877 52.2234C239.019 55.7603 243.997 65.2432 243.997 73.4047C243.997 73.4047 247.004 221.311 247.004 216.968V72.3976C247.004 64.2361 242.025 54.7533 235.875 51.2163Z" fill="url(#paint1_radial_241_100856)"/>
<g style="mix-blend-mode:screen" opacity="0.6">
<path d="M232.158 227.104L177.687 195.763C171.545 192.226 166.566 182.743 166.566 174.582V30.0194C166.566 21.8499 171.545 18.1035 177.687 21.6323L232.142 52.9731C238.284 56.51 243.263 65.9928 243.263 74.1624V218.725C243.279 226.886 238.301 230.641 232.158 227.104Z" fill="#007683"/>
</g>
<path d="M231.189 227.627L176.734 196.326C170.592 192.789 165.613 183.307 165.613 175.145V30.5345C165.613 22.373 170.592 18.6185 176.734 22.1554L231.189 53.4962C237.331 57.0331 242.342 66.5159 242.342 74.6694V219.24C242.342 227.409 237.331 231.164 231.189 227.627Z" fill="#19352A"/>
<path d="M167.133 176.065V31.3251C167.133 24.1627 171.497 20.8513 176.879 23.9774L231.028 55.149C236.41 58.2508 240.774 66.5654 240.774 73.6795V218.459C240.774 225.614 236.41 228.933 231.028 225.807L176.879 194.636C171.497 191.534 167.133 183.219 167.133 176.065Z" fill="#19352A"/>
<path d="M169.297 176.944V32.9371C169.297 26.9429 172.95 24.1956 177.46 26.7898L230.468 57.2927C234.97 59.887 238.623 66.848 238.623 72.8423V216.849C238.623 222.835 234.97 225.59 230.468 222.996L177.46 192.485C172.95 189.883 169.297 182.938 169.297 176.944Z" fill="#19352A"/>
<path d="M178.075 28.3759C173.824 25.9589 170.381 27.8925 170.381 32.7507V178.377C170.381 183.211 173.824 189.157 178.075 191.606L229.855 221.416C234.098 223.833 237.541 221.899 237.541 217.041V71.4473C237.541 66.6133 234.098 60.6674 229.855 58.2181L178.075 28.3759Z" fill="#8DDCA4"/>
<path d="M243.771 108.129V98.3722C243.781 97.7399 243.939 97.1187 244.234 96.5588C244.529 95.999 244.952 95.5161 245.469 95.1495C246.406 94.6097 247.174 95.1495 247.174 96.4305V106.171C247.164 106.804 247.004 107.426 246.708 107.986C246.411 108.546 245.987 109.028 245.469 109.394C244.531 109.95 243.771 109.378 243.771 108.129Z" fill="#19352A"/>
<path d="M244.764 109.249C244.279 109.249 244.102 108.645 244.102 108.129V98.3726C244.113 97.8016 244.256 97.2408 244.519 96.7337C244.783 96.2265 245.16 95.7866 245.621 95.448C245.77 95.3578 245.94 95.3053 246.114 95.2949C246.599 95.2949 246.769 95.8992 246.769 96.4148V106.172C246.757 106.743 246.614 107.303 246.351 107.81C246.088 108.318 245.711 108.758 245.249 109.096C245.103 109.187 244.936 109.24 244.764 109.249Z" fill="#19352A"/>
<path style="mix-blend-mode:color-dodge" d="M244.636 108.379V98.6224C244.647 98.0513 244.79 97.4906 245.053 96.9834C245.317 96.4763 245.694 96.0364 246.155 95.6978C246.289 95.6197 246.438 95.5703 246.592 95.5527C246.545 95.4759 246.48 95.412 246.403 95.3669C246.325 95.3218 246.237 95.2971 246.147 95.2949C245.973 95.3053 245.804 95.3578 245.654 95.448C245.193 95.7866 244.816 96.2265 244.552 96.7337C244.289 97.2408 244.146 97.8016 244.135 98.3726V108.129C244.135 108.645 244.313 109.249 244.797 109.249H244.854C244.7 108.986 244.625 108.684 244.636 108.379Z" fill="url(#paint2_radial_241_100856)"/>
<g style="mix-blend-mode:multiply">
<path d="M229.855 58.1781L178.075 28.3681C173.824 25.9511 170.381 27.8847 170.381 32.7429V178.377C170.381 183.211 173.824 189.157 178.075 191.606L229.855 221.416C234.098 223.833 237.541 221.899 237.541 217.041V71.4476C237.541 66.549 234.098 60.6273 229.855 58.1781ZM236.878 217.033C236.945 218.31 236.581 219.572 235.844 220.618C235.54 220.996 235.153 221.299 234.713 221.504C234.273 221.708 233.791 221.807 233.306 221.795C232.2 221.744 231.126 221.411 230.186 220.828L178.406 191.018C174.365 188.681 171.052 183.009 171.052 178.369V32.7751C171.052 29.8425 172.417 28.0136 174.616 28.0136C175.721 28.0643 176.796 28.3972 177.735 28.9804L229.515 58.7904C233.556 61.1269 236.878 66.7988 236.878 71.4395V217.033Z" fill="#BCBEC0"/>
</g>
<path opacity="0.8" d="M216.011 208.219L197.415 183.275L185.89 158.984L181.889 139.68L170.381 124.605V152.812L175.198 157.308L182.544 171.52L181.615 177.152L184.589 181.631L186.819 180.366L203.637 206.317L218.201 214.696L216.011 208.219Z" fill="url(#paint3_linear_241_100856)"/>
<path opacity="0.8" d="M228.942 87.1903L237.542 92.1453V90.2842L228.942 85.3292V57.6543L227.326 56.7278V84.4027L221.984 81.325L216.973 68.3698L170.414 41.5488V43.4099L180.597 49.2753V73.5986L170.414 67.7413V69.6025L180.597 75.4597V92.0486L170.414 86.1671V88.0283L182.214 94.8362V76.3943L217.103 96.4717V133.283L212.763 130.785L197.747 135.305L170.414 119.57V121.399L188.816 131.994V156.164L170.414 164.39V166.155L189.447 157.711L206.281 186.377L190.344 198.664L191.855 199.534L218.8 178.723L227.326 183.557V218.959H228.942V184.516L237.412 189.35L237.542 189.116V187.561L228.942 182.631V158.904L237.542 163.85V161.989L228.942 157.042V141.976L237.542 146.931V145.07L228.942 140.115V103.304L237.542 108.259V106.398L228.942 101.443V87.1903ZM190.4 132.953L197.213 136.876L197.512 137.046L212.528 132.534L217.07 135.144V150.21L210.653 146.52L190.4 155.504V132.953ZM227.326 181.736L218.671 176.79L207.542 185.386L190.901 157.05L210.556 148.325L217.07 152.071V152.12H217.159L227.326 157.969V181.736ZM227.326 156.108L218.687 151.145V136.071L227.326 141.05V156.108ZM227.326 139.189L218.687 134.218V97.4063L227.326 102.377V139.189ZM227.326 100.516L182.181 74.5332V50.2018L215.672 69.4816L220.683 82.4369L227.326 86.2638V100.516Z" fill="#5FBB97"/>
<path opacity="0.8" d="M233.354 221.465L236.255 220.047L212.018 170.772V145.716L203.338 129.554V42.9275L200.105 41.0664V130.368L208.785 146.529V171.521L233.354 221.465Z" fill="#F49587"/>
<path style="mix-blend-mode:multiply" d="M217.441 218.079C217.441 218.079 227.859 211.699 234.413 205.592C240.475 199.952 244.111 191.492 244.111 191.492C244.111 191.492 247.344 216.871 242.495 221.302C237.646 225.733 217.441 218.079 217.441 218.079Z" fill="url(#paint4_linear_241_100856)"/>
<path d="M198.611 105.52V111.667C198.612 112.598 198.332 113.508 197.807 114.278C197.282 115.048 196.538 115.643 195.669 115.985C193.604 116.804 191.374 117.126 189.16 116.928C186.946 116.729 184.81 116.014 182.924 114.841L165.953 103.691C165.215 103.23 164.601 102.598 164.164 101.848C163.726 101.098 163.478 100.254 163.441 99.3873C163.403 98.5207 163.578 97.6581 163.949 96.8737C164.321 96.0893 164.878 95.4067 165.573 94.8848V77.4258L159.916 80.7935C157.254 82.3804 155.054 84.632 153.532 87.3259C152.01 90.0197 151.22 93.0627 151.239 96.1543C151.257 99.2458 152.085 102.279 153.639 104.954C155.193 107.63 157.421 109.855 160.101 111.409L176.847 121.077C180.361 123.121 184.379 124.144 188.446 124.032C192.514 123.919 196.468 122.676 199.864 120.441C200.81 119.821 201.596 118.987 202.158 118.007C202.719 117.027 203.041 115.928 203.097 114.801V108.001L198.611 105.52Z" fill="#007683"/>
<path d="M198.158 104.737V111.666C198.161 112.507 197.909 113.33 197.434 114.026C196.96 114.722 196.285 115.258 195.5 115.565C193.499 116.35 191.342 116.659 189.201 116.466C187.06 116.273 184.994 115.584 183.167 114.454L166.195 103.303C165.546 102.899 165.001 102.349 164.603 101.697C164.206 101.044 163.967 100.308 163.907 99.5478C163.846 98.7872 163.965 98.023 164.255 97.3166C164.544 96.6101 164.995 95.9811 165.573 95.48V94.3359C164.762 94.8721 164.1 95.6023 163.647 96.4597C163.193 97.3171 162.962 98.2743 162.976 99.2436C162.99 100.213 163.247 101.163 163.725 102.008C164.203 102.852 164.885 103.563 165.71 104.077L182.682 115.219C184.629 116.427 186.834 117.165 189.118 117.372C191.403 117.579 193.705 117.25 195.839 116.411C196.794 116.037 197.614 115.383 198.191 114.537C198.768 113.69 199.075 112.689 199.072 111.666V106.3L202.652 108.331V114.84C202.593 115.887 202.29 116.905 201.766 117.814C201.243 118.724 200.514 119.498 199.637 120.077C196.318 122.28 192.444 123.507 188.458 123.618C184.472 123.729 180.535 122.72 177.097 120.706L160.352 111.038C157.744 109.522 155.578 107.355 154.066 104.75C152.554 102.145 151.75 99.1924 151.732 96.1832C151.714 93.1739 152.483 90.212 153.964 87.5894C155.444 84.9668 157.584 82.7741 160.174 81.2276L165.589 78.0049V76.9414L159.705 80.4542C156.97 82.0799 154.708 84.3898 153.143 87.1551C151.579 89.9205 150.766 93.0453 150.786 96.2201C150.805 99.3949 151.656 102.51 153.255 105.256C154.853 108.001 157.144 110.283 159.899 111.875L176.637 121.544C180.221 123.644 184.326 124.696 188.482 124.581C192.637 124.465 196.677 123.187 200.139 120.891C201.138 120.231 201.969 119.346 202.564 118.308C203.159 117.27 203.502 116.107 203.565 114.913V107.847L198.158 104.737Z" fill="#5FBB97"/>
<path style="mix-blend-mode:color-dodge" d="M190.715 120.079L190.634 119.168C191.821 119.07 192.996 118.857 194.142 118.532L194.392 119.402C193.192 119.748 191.96 119.975 190.715 120.079ZM186.973 120.03C185.726 119.884 184.497 119.614 183.304 119.225L183.579 118.354C184.716 118.711 185.885 118.957 187.07 119.088L186.973 120.03ZM197.892 118.032L197.471 117.227C197.94 116.985 198.401 116.719 198.845 116.421C199.364 116.093 199.808 115.659 200.147 115.148L200.955 115.647C200.529 116.269 199.979 116.796 199.338 117.194C198.853 117.492 198.369 117.774 197.892 118.032ZM179.885 117.79L176.653 116.026L177.089 115.22L180.322 116.985L179.885 117.79ZM173.468 114.27L170.236 112.505L170.68 111.7L173.913 113.464L173.468 114.27ZM166.195 110.241L165.08 109.629C164.362 109.228 163.679 108.77 163.035 108.259L163.601 107.55C164.207 108.027 164.85 108.455 165.524 108.831L166.631 109.444L166.195 110.241ZM160.416 105.56C159.662 104.552 159.047 103.446 158.59 102.273L159.447 101.943C159.87 103.042 160.444 104.078 161.152 105.021L160.416 105.56ZM157.725 98.6073C157.676 98.174 157.652 97.7382 157.652 97.3021C157.65 96.4925 157.715 95.6841 157.846 94.8851L158.752 95.0382C158.629 95.7677 158.567 96.5061 158.566 97.2458C158.566 97.7372 158.566 98.1481 158.63 98.5509L157.725 98.6073ZM159.802 91.6544L158.994 91.2676C159.529 90.1276 160.217 89.0651 161.039 88.1094L161.734 88.6975C160.963 89.5991 160.316 90.5988 159.81 91.6705L159.802 91.6544Z" fill="url(#paint5_radial_241_100856)"/>
<path d="M255.682 143L247.778 136.555V158.147C253.964 163.421 257.829 170.902 258.544 178.985C259.258 187.068 256.766 195.108 251.601 201.379C242.699 212.196 230.221 219.495 216.407 221.965C202.593 224.436 188.348 221.916 176.23 214.858L83.3299 160.781L34.1602 189.826L136.468 248.519C157.191 260.406 181.584 264.255 204.977 259.328C228.37 254.402 249.117 241.046 263.247 221.819L265.405 218.887C273.837 207.401 277.529 193.129 275.72 179.011C273.911 164.893 266.74 152.004 255.682 143Z" fill="#007683"/>
<path style="mix-blend-mode:color-dodge" d="M75.4351 184.889L74.6289 186.285L77.4308 187.893L78.237 186.496L75.4351 184.889Z" fill="url(#paint6_radial_241_100856)"/>
<path style="mix-blend-mode:color-dodge" opacity="0.2" d="M197.285 242.717L197.229 241.105C199.306 241.033 201.407 240.864 203.484 240.622L203.67 242.233C201.561 242.475 199.411 242.636 197.285 242.717ZM190.885 242.717C188.759 242.62 186.609 242.443 184.5 242.177L184.702 240.565C186.771 240.823 188.872 241.009 190.949 241.097L190.885 242.717ZM210.014 241.218L209.699 239.607C211.744 239.196 213.788 238.704 215.793 238.132L216.237 239.679C214.176 240.292 212.083 240.799 210.014 241.218ZM178.204 241.113C176.119 240.678 174.026 240.155 171.989 239.558L172.442 238.011C174.446 238.6 176.483 239.107 178.527 239.534L178.204 241.113ZM222.315 237.705L221.749 236.199C223.705 235.466 225.652 234.652 227.536 233.782L228.222 235.24C226.283 236.126 224.295 236.956 222.299 237.705H222.315ZM165.92 237.512C163.94 236.755 161.96 235.901 160.036 234.998L160.739 233.54C162.622 234.434 164.554 235.272 166.502 236.013L165.92 237.512ZM233.904 232.291L233.096 230.889C234.906 229.858 236.7 228.746 238.414 227.578L239.327 228.907C237.565 230.1 235.739 231.236 233.888 232.291H233.904ZM154.379 232.017L148.883 228.859L149.692 227.465L155.187 230.615L154.379 232.017ZM143.388 225.709L137.892 222.559L138.7 221.165L144.196 224.315L143.388 225.709ZM244.475 225.105L243.465 223.856C245.081 222.551 246.697 221.165 248.185 219.739L249.3 220.907C247.732 222.365 246.116 223.783 244.459 225.105H244.475ZM132.396 219.408L126.901 216.25L127.709 214.856L133.205 218.007L132.396 219.408ZM253.761 216.339L252.557 215.259C253.955 213.712 255.297 212.093 256.598 210.425L257.883 211.408C256.541 213.108 255.167 214.76 253.745 216.339H253.761ZM121.405 213.116L115.91 209.966L116.718 208.564L122.213 211.722L121.405 213.116ZM110.398 206.8L104.951 203.641L105.759 202.248L111.254 205.398L110.398 206.8ZM261.463 206.268L260.121 205.39C261.26 203.713 262.267 201.951 263.136 200.121L264.566 200.797C263.671 202.696 262.634 204.524 261.463 206.268ZM99.4146 200.491L93.919 197.341L94.7272 195.939L100.223 199.097L99.4146 200.491ZM266.643 194.916L265.156 194.473C265.727 192.574 266.154 190.635 266.433 188.672L267.969 188.889C267.679 190.928 267.236 192.943 266.643 194.916ZM88.4234 194.191L82.9277 191.033L83.7359 189.639L89.2315 192.789L88.4234 194.191ZM266.829 182.75C266.815 180.769 266.65 178.793 266.336 176.837L267.864 176.595C268.189 178.626 268.362 180.678 268.381 182.734L266.829 182.75ZM264.97 171.06C264.368 169.173 263.626 167.333 262.748 165.557L264.162 164.904C265.078 166.75 265.85 168.662 266.474 170.625L264.97 171.06ZM259.717 160.441C258.704 159 257.598 157.628 256.404 156.332L255.951 155.937L256.986 154.785L257.495 155.236C258.757 156.597 259.924 158.042 260.986 159.563L259.717 160.441Z" fill="white"/>
<path style="mix-blend-mode:color-dodge" d="M253.357 153.248L251.296 151.419L251.215 149.438L254.278 152.225L253.357 153.248Z" fill="url(#paint7_radial_241_100856)"/>
<path d="M153.441 190.438L153.716 194.644C153.715 194.792 153.755 194.938 153.832 195.065C153.909 195.191 154.019 195.295 154.151 195.363C154.283 195.431 154.432 195.462 154.58 195.452C154.729 195.441 154.871 195.39 154.992 195.304L157.668 193.693C157.805 193.612 157.915 193.492 157.984 193.349C158.053 193.205 158.078 193.045 158.055 192.887L157.514 188.706C157.505 188.56 157.456 188.419 157.373 188.298C157.29 188.177 157.175 188.082 157.041 188.021C156.907 187.961 156.759 187.938 156.614 187.955C156.468 187.972 156.329 188.028 156.213 188.118L153.788 189.729C153.674 189.808 153.582 189.914 153.522 190.038C153.461 190.162 153.433 190.3 153.441 190.438Z" fill="url(#paint8_radial_241_100856)"/>
<path style="mix-blend-mode:color-dodge" d="M154.153 195.23L153.878 191.025C153.866 190.878 153.893 190.73 153.959 190.598C154.025 190.466 154.125 190.354 154.25 190.275L156.675 188.664C156.792 188.583 156.928 188.535 157.07 188.523C157.212 188.512 157.354 188.538 157.483 188.6C157.462 188.462 157.405 188.331 157.319 188.222C157.232 188.112 157.119 188.027 156.989 187.974C156.86 187.921 156.719 187.903 156.58 187.921C156.441 187.939 156.31 187.992 156.198 188.076L153.773 189.687C153.648 189.766 153.548 189.878 153.482 190.01C153.417 190.142 153.389 190.29 153.401 190.437L153.676 194.642C153.683 194.793 153.732 194.938 153.818 195.062C153.904 195.186 154.023 195.283 154.161 195.343C154.155 195.306 154.152 195.268 154.153 195.23Z" fill="url(#paint9_radial_241_100856)"/>
<path opacity="0.2" d="M38.155 189.198L115.926 233.978C120.951 236.835 126.639 238.331 132.424 238.316C138.209 238.302 143.889 236.779 148.9 233.897L162.881 225.84C163.205 225.655 163.475 225.387 163.662 225.064C163.849 224.742 163.948 224.376 163.948 224.003C163.948 223.631 163.849 223.265 163.662 222.942C163.475 222.62 163.205 222.352 162.881 222.166L70.0861 168.186C69.7615 168 69.3937 167.902 69.0194 167.902C68.645 167.902 68.2772 168 67.9526 168.186L38.1307 185.508C37.8041 185.695 37.533 185.965 37.3453 186.29C37.1577 186.616 37.0601 186.985 37.0625 187.36C37.065 187.736 37.1675 188.103 37.3594 188.426C37.5513 188.749 37.8259 189.016 38.155 189.198Z" fill="black"/>
<path d="M112.427 223.236L123.394 216.879L111.918 214.801L112.427 223.236Z" fill="#58595B"/>
<path d="M50.39 188.342L61.357 181.985L49.8809 179.906L50.39 188.342Z" fill="#58595B"/>
<path d="M67.8946 193.339C67.8946 195.378 67.1915 196.82 66.0439 197.521L62.3748 199.64C61.1786 200.308 61.9464 198.794 60.128 197.746C56.475 195.644 53.5171 190.552 53.5171 186.37C53.5171 184.308 51.5936 184.292 52.7736 183.599L56.6609 181.448C57.857 180.811 59.4815 180.924 61.2837 181.963C64.9367 184.066 67.8946 189.158 67.8946 193.339Z" fill="url(#paint10_linear_241_100856)"/>
<path d="M62.1561 199.72C64.7224 198.225 64.6955 193.419 62.096 188.986C59.4965 184.553 55.3088 182.171 52.7424 183.667C50.1761 185.163 50.203 189.969 52.8025 194.402C55.4021 198.835 59.5898 201.216 62.1561 199.72Z" fill="url(#paint11_linear_241_100856)"/>
<path style="mix-blend-mode:screen" d="M57.768 183.967C56.0142 182.96 54.4221 182.823 53.2422 183.411C53.9216 183.277 54.621 183.279 55.2995 183.417C55.9781 183.556 56.6222 183.828 57.1942 184.217C60.8472 186.32 63.8132 191.411 63.8132 195.585C63.8132 197.768 63.005 199.259 61.72 199.903C63.3364 199.452 64.3789 197.849 64.3789 195.367C64.3789 191.162 61.421 186.07 57.768 183.967Z" fill="url(#paint12_radial_241_100856)"/>
<path style="mix-blend-mode:multiply" d="M57.6719 185.975C54.8594 184.364 52.5723 185.653 52.5723 188.875C52.6725 190.632 53.1864 192.34 54.0724 193.862C54.9584 195.383 56.1916 196.675 57.6719 197.633C60.4844 199.244 62.7634 197.955 62.7634 194.733C62.6647 192.977 62.1523 191.269 61.2677 189.747C60.3831 188.226 59.1512 186.933 57.6719 185.975ZM59.6196 192.42L61.1955 192.283C61.4299 192.283 61.737 192.573 61.8098 192.92C61.9074 193.373 61.9588 193.834 61.9633 194.298C61.9657 194.705 61.9141 195.112 61.8098 195.506C61.737 195.764 61.4299 195.724 61.1955 195.434L59.6196 193.476C59.4834 193.322 59.4061 193.125 59.4014 192.92V192.727C59.3933 192.525 59.4822 192.404 59.6196 192.396V192.42ZM60.6217 190.809L59.0458 190.938C58.9571 190.935 58.8706 190.91 58.7943 190.865C58.718 190.82 58.6544 190.756 58.6094 190.68L58.4639 190.511C58.328 190.35 58.2486 190.149 58.2376 189.939V187.86C58.2376 187.546 58.5043 187.465 58.771 187.699C59.5419 188.399 60.1989 189.215 60.7187 190.116C60.9127 190.43 60.8642 190.777 60.6217 190.801V190.809ZM57.0981 187.2V189.286C57.0981 189.464 57.0173 189.592 56.8718 189.592H56.7344C56.6468 189.589 56.5613 189.565 56.4853 189.521C56.4093 189.478 56.345 189.416 56.298 189.343L54.6816 187.393C54.4472 187.095 54.3988 186.7 54.5927 186.587C54.8894 186.43 55.2147 186.335 55.5493 186.305C55.8839 186.276 56.221 186.315 56.5404 186.418C56.6987 186.479 56.8358 186.585 56.9348 186.722C57.0339 186.859 57.0906 187.023 57.0981 187.192V187.2ZM54.1401 188.207L55.7565 190.164C55.8898 190.32 55.9667 190.516 55.9747 190.72C55.9707 190.752 55.9707 190.785 55.9747 190.817C55.9703 190.846 55.9703 190.876 55.9747 190.906C55.9747 191.091 55.8939 191.212 55.7565 191.22L54.1401 191.357C53.9058 191.357 53.5986 191.059 53.5259 190.72C53.4308 190.267 53.3821 189.806 53.3804 189.343C53.375 188.935 53.4239 188.529 53.5259 188.134C53.5986 187.868 53.9058 187.909 54.1401 188.199V188.207ZM54.7139 192.815L56.3303 192.686C56.4188 192.69 56.505 192.715 56.5812 192.76C56.6574 192.805 56.7212 192.868 56.7667 192.944L56.9041 193.113C57.0415 193.27 57.1213 193.469 57.1304 193.677V195.764C57.1304 196.078 56.8718 196.159 56.6051 195.925C55.8296 195.229 55.1719 194.413 54.6574 193.508C54.4311 193.178 54.4796 192.831 54.7139 192.807V192.815ZM58.2376 196.416V194.338C58.2376 194.153 58.3265 194.032 58.4639 194.032H58.6094C58.6967 194.036 58.7816 194.061 58.8574 194.105C58.9333 194.148 58.9978 194.209 59.0458 194.281L60.6217 196.231C60.8642 196.529 60.9127 196.924 60.7187 197.037C60.4219 197.193 60.0966 197.289 59.762 197.318C59.4275 197.347 59.0905 197.309 58.771 197.206C58.6141 197.139 58.4802 197.028 58.3855 196.886C58.2908 196.745 58.2394 196.579 58.2376 196.408V196.416Z" fill="url(#paint13_linear_241_100856)"/>
<path d="M57.3494 186.102C54.5369 184.491 52.2578 185.78 52.2578 188.994C52.3553 190.752 52.8671 192.461 53.7518 193.985C54.6365 195.508 55.869 196.801 57.3494 197.76C60.1699 199.372 62.449 198.083 62.449 194.86C62.35 193.103 61.8366 191.394 60.9505 189.873C60.0644 188.351 58.8306 187.059 57.3494 186.102ZM59.2971 192.548L60.9134 192.419C61.1478 192.419 61.4549 192.709 61.5276 193.055C61.6231 193.508 61.6719 193.97 61.6731 194.433C61.678 194.838 61.6291 195.241 61.5276 195.633C61.4549 195.899 61.1478 195.859 60.9134 195.569L59.2971 193.611C59.165 193.455 59.0907 193.259 59.0869 193.055V192.862C59.0789 192.644 59.1597 192.531 59.2971 192.515V192.548ZM60.3073 190.936L58.7313 191.073C58.6418 191.07 58.5545 191.044 58.477 190.999C58.3995 190.954 58.3342 190.891 58.2869 190.815L58.1495 190.638C58.0126 190.481 57.9329 190.282 57.9232 190.074V187.995C57.9232 187.681 58.1899 187.601 58.4566 187.834C59.231 188.529 59.8862 189.346 60.3962 190.251C60.5902 190.558 60.5417 190.904 60.3073 190.92V190.936ZM56.7836 187.335V189.422C56.7836 189.599 56.6947 189.72 56.5573 189.728H56.4119C56.3247 189.727 56.2392 189.704 56.163 189.662C56.0868 189.62 56.0224 189.559 55.9754 189.486L54.3995 187.528C54.1651 187.238 54.1166 186.835 54.3106 186.722C54.6046 186.562 54.9288 186.464 55.2626 186.435C55.5965 186.406 55.9327 186.446 56.2502 186.553C56.4022 186.618 56.5329 186.724 56.6272 186.86C56.7215 186.995 56.7757 187.154 56.7836 187.319V187.335ZM53.8257 188.342L55.442 190.292C55.5753 190.45 55.6496 190.649 55.6522 190.856V191.041C55.6522 191.226 55.5794 191.347 55.442 191.355L53.8257 191.492C53.5913 191.492 53.2842 191.194 53.2115 190.856C53.1139 190.403 53.0624 189.941 53.0579 189.478C53.0602 189.069 53.1173 188.663 53.2276 188.269C53.2842 187.995 53.5913 188.028 53.8257 188.326V188.342ZM54.3995 192.95L55.9754 192.813C56.0633 192.82 56.1485 192.846 56.2243 192.891C56.3 192.936 56.3643 192.997 56.4119 193.071L56.5573 193.248C56.6926 193.407 56.7721 193.605 56.7836 193.812V195.899C56.7836 196.213 56.5169 196.294 56.2502 196.06C55.4795 195.362 54.8248 194.546 54.3106 193.643C54.1166 193.297 54.1651 192.95 54.3995 192.934V192.95ZM57.9232 196.552V194.473C57.9232 194.288 58.0121 194.167 58.1495 194.167H58.2869C58.3755 194.17 58.4621 194.195 58.5394 194.238C58.6167 194.282 58.6825 194.343 58.7313 194.417L60.3073 196.366C60.5417 196.656 60.5902 197.059 60.3962 197.172C60.1009 197.329 59.7769 197.425 59.4437 197.454C59.1104 197.483 58.7747 197.445 58.4566 197.341C58.2997 197.272 58.166 197.159 58.0715 197.016C57.9769 196.874 57.9254 196.707 57.9232 196.536V196.552Z" fill="url(#paint14_linear_241_100856)"/>
<path d="M130.658 229.206C130.658 231.253 129.955 232.695 128.808 233.396L125.155 235.507C123.959 236.176 124.726 234.661 122.908 233.622C119.255 231.519 116.297 226.427 116.297 222.245C116.297 220.175 114.382 220.159 115.553 219.474L119.441 217.323C120.637 216.678 122.269 216.799 124.064 217.83C127.7 219.933 130.658 225.025 130.658 229.206Z" fill="url(#paint15_linear_241_100856)"/>
<path d="M126.828 231.375C126.828 235.557 123.87 237.241 120.217 235.138C116.564 233.035 113.598 227.943 113.598 223.762C113.598 219.58 116.564 217.897 120.217 219.999C123.87 222.102 126.828 227.194 126.828 231.375Z" fill="url(#paint16_linear_241_100856)"/>
<path style="mix-blend-mode:screen" d="M120.532 219.844C118.778 218.829 117.186 218.7 116.006 219.288C116.685 219.153 117.385 219.155 118.063 219.293C118.742 219.432 119.386 219.704 119.958 220.094C123.611 222.197 126.577 227.289 126.577 231.47C126.577 233.646 125.769 235.144 124.484 235.789C126.1 235.337 127.151 233.734 127.151 231.253C127.151 227.039 124.185 221.947 120.532 219.844Z" fill="url(#paint17_radial_241_100856)"/>
<path style="mix-blend-mode:multiply" d="M120.435 221.85C117.623 220.239 115.344 221.528 115.344 224.743C115.442 226.499 115.954 228.207 116.839 229.729C117.723 231.25 118.956 232.542 120.435 233.5C123.248 235.112 125.527 233.831 125.527 230.608C125.428 228.852 124.916 227.144 124.031 225.622C123.146 224.101 121.915 222.808 120.435 221.85ZM122.383 228.296L123.959 228.167C124.201 228.167 124.5 228.457 124.573 228.803C124.671 229.256 124.723 229.718 124.727 230.181C124.729 230.586 124.678 230.99 124.573 231.381C124.5 231.639 124.201 231.607 123.959 231.309L122.383 229.359C122.249 229.204 122.172 229.008 122.165 228.803V228.553C122.157 228.392 122.246 228.279 122.383 228.263V228.296ZM123.385 226.684L121.809 226.821C121.721 226.815 121.636 226.789 121.56 226.744C121.485 226.699 121.42 226.637 121.373 226.563L121.235 226.386C121.095 226.231 121.015 226.031 121.009 225.822V223.719C121.009 223.397 121.268 223.325 121.534 223.558C122.311 224.253 122.969 225.069 123.482 225.975C123.676 226.306 123.628 226.652 123.385 226.668V226.684ZM119.862 223.083V225.17C119.862 225.347 119.781 225.468 119.635 225.476H119.498C119.411 225.475 119.325 225.452 119.249 225.41C119.173 225.368 119.108 225.307 119.061 225.234L117.445 223.276C117.211 222.986 117.162 222.583 117.356 222.471C117.654 222.315 117.979 222.221 118.314 222.194C118.648 222.166 118.985 222.205 119.304 222.309C119.46 222.369 119.595 222.472 119.694 222.607C119.793 222.741 119.851 222.901 119.862 223.067V223.083ZM116.912 224.09L118.488 226.04C118.623 226.197 118.7 226.396 118.706 226.604C118.706 226.604 118.706 226.66 118.706 226.692C118.706 226.725 118.706 226.757 118.706 226.789C118.706 226.974 118.625 227.095 118.488 227.103L116.912 227.24C116.669 227.24 116.362 226.942 116.297 226.596C116.195 226.143 116.144 225.681 116.144 225.218C116.137 224.812 116.189 224.408 116.297 224.017C116.362 223.719 116.669 223.776 116.912 224.074V224.09ZM117.477 228.698L119.094 228.561C119.182 228.568 119.267 228.594 119.343 228.639C119.418 228.684 119.483 228.745 119.53 228.819L119.668 228.997C119.806 229.153 119.886 229.352 119.894 229.56V231.647C119.894 231.961 119.635 232.042 119.368 231.8C118.592 231.106 117.934 230.289 117.421 229.383C117.194 229.045 117.243 228.698 117.477 228.682V228.698ZM121.009 232.3V230.221C121.009 230.036 121.09 229.915 121.235 229.915H121.373C121.46 229.917 121.545 229.941 121.621 229.983C121.697 230.025 121.761 230.084 121.809 230.157L123.385 232.114C123.628 232.405 123.676 232.807 123.482 232.92C123.185 233.077 122.86 233.172 122.525 233.201C122.191 233.23 121.854 233.192 121.534 233.089C121.378 233.02 121.246 232.907 121.153 232.764C121.06 232.621 121.01 232.454 121.009 232.284V232.3Z" fill="url(#paint18_linear_241_100856)"/>
<path d="M120.119 221.971C117.307 220.36 115.02 221.649 115.02 224.871C115.12 226.628 115.634 228.336 116.52 229.858C117.406 231.379 118.639 232.671 120.119 233.629C122.932 235.241 125.211 233.951 125.211 230.737C125.113 228.979 124.601 227.27 123.717 225.747C122.832 224.224 121.599 222.93 120.119 221.971ZM122.059 228.416L123.675 228.279C123.91 228.279 124.217 228.578 124.289 228.916C124.387 229.369 124.438 229.83 124.443 230.294C124.446 230.702 124.394 231.108 124.289 231.502C124.217 231.76 123.91 231.728 123.675 231.43L122.059 229.48C121.929 229.32 121.855 229.122 121.849 228.916V228.731C121.841 228.553 121.921 228.4 122.059 228.392V228.416ZM123.069 226.805L121.493 226.942C121.405 226.936 121.32 226.909 121.244 226.865C121.168 226.82 121.104 226.758 121.057 226.684L120.911 226.507C120.776 226.349 120.696 226.151 120.685 225.943V223.856C120.685 223.542 120.952 223.462 121.218 223.695C121.989 224.395 122.646 225.211 123.166 226.112C123.352 226.434 123.311 226.781 123.069 226.797V226.805ZM119.545 223.204V225.282C119.545 225.468 119.465 225.589 119.319 225.589H119.182C119.094 225.586 119.008 225.562 118.932 225.518C118.856 225.475 118.792 225.413 118.745 225.339L117.129 223.389C116.895 223.099 116.846 222.696 117.04 222.583C117.337 222.426 117.662 222.331 117.997 222.302C118.331 222.272 118.668 222.311 118.988 222.414C119.146 222.477 119.283 222.585 119.382 222.723C119.481 222.862 119.537 223.026 119.545 223.196V223.204ZM116.587 224.203L118.204 226.161C118.336 226.316 118.41 226.513 118.414 226.716V226.942C118.414 227.127 118.341 227.24 118.204 227.256L116.587 227.385C116.353 227.385 116.046 227.095 115.973 226.749C115.878 226.296 115.829 225.834 115.828 225.371C115.823 224.966 115.872 224.563 115.973 224.171C116.046 223.864 116.353 223.905 116.587 224.195V224.203ZM117.161 228.819L118.778 228.682C118.866 228.687 118.951 228.713 119.027 228.758C119.103 228.803 119.167 228.865 119.214 228.94L119.351 229.109C119.491 229.268 119.57 229.47 119.578 229.681V231.776C119.578 232.09 119.319 232.171 119.052 231.937C118.273 231.245 117.615 230.428 117.105 229.52C116.878 229.174 116.927 228.827 117.161 228.811V228.819ZM120.685 232.421V230.326C120.685 230.149 120.774 230.028 120.911 230.02H121.057C121.144 230.021 121.229 230.043 121.306 230.086C121.382 230.128 121.446 230.188 121.493 230.261L123.069 232.219C123.311 232.509 123.352 232.912 123.166 233.025C122.87 233.183 122.544 233.28 122.21 233.309C121.875 233.338 121.538 233.299 121.218 233.194C121.064 233.128 120.932 233.019 120.837 232.881C120.743 232.743 120.69 232.58 120.685 232.413V232.421Z" fill="url(#paint19_linear_241_100856)"/>
<path d="M163.139 208.067L137.641 168.75C137.269 168.185 136.771 167.714 136.186 167.372L68.1861 128.345C67.549 127.981 66.8293 127.786 66.0952 127.778C65.3611 127.769 64.637 127.948 63.9916 128.297L44.8135 138.771C43.9356 139.254 43.2529 140.025 42.882 140.954L37.0631 153.386C36.8756 153.855 36.7744 154.355 36.764 154.86L36.3034 177.798C36.2902 178.566 36.4851 179.325 36.8677 179.993C37.2502 180.66 37.8063 181.213 38.4774 181.592L50.4708 188.376C50.3635 187.742 50.3068 187.101 50.3011 186.459C50.3011 181.729 53.655 179.82 57.7848 182.205C61.9146 184.589 65.2766 190.35 65.2766 195.095C65.2798 195.623 65.2311 196.149 65.1312 196.666L112.418 223.254C112.418 222.932 112.377 222.609 112.377 222.295C112.377 217.566 115.731 215.664 119.861 218.041C123.991 220.418 127.353 226.186 127.353 230.932C127.353 231.19 127.353 231.439 127.353 231.681L130.149 233.292C130.762 233.641 131.451 233.833 132.156 233.853C132.86 233.873 133.559 233.719 134.19 233.405L161.531 219.942C162.247 219.589 162.849 219.044 163.27 218.368C163.692 217.692 163.915 216.912 163.915 216.115V210.476C163.908 209.613 163.637 208.773 163.139 208.067Z" fill="url(#paint20_radial_241_100856)"/>
<g style="mix-blend-mode:multiply">
<path d="M132.226 221.625L128.493 210.225L113.032 181.075C112.451 179.876 111.518 178.881 110.357 178.223L43.5285 139.873C43.2718 140.199 43.0623 140.56 42.9062 140.945L37.0631 153.384C36.8756 153.854 36.7744 154.353 36.764 154.859L36.3034 177.796C36.2902 178.565 36.4851 179.323 36.8677 179.991C37.2502 180.659 37.8063 181.212 38.4774 181.591L50.4708 188.375C50.3635 187.741 50.3068 187.1 50.3011 186.457C50.3011 181.728 53.655 179.818 57.7848 182.203C61.9146 184.588 65.2766 190.349 65.2766 195.094C65.2798 195.621 65.2311 196.147 65.1312 196.665L112.418 223.252C112.418 222.93 112.377 222.608 112.377 222.294C112.377 217.564 115.731 215.663 119.861 218.04C123.991 220.416 127.353 226.185 127.353 230.931C127.353 231.188 127.353 231.438 127.353 231.68L130.149 233.291C131.019 233.776 132.029 233.947 133.01 233.775V224.799C133 223.695 132.732 222.608 132.226 221.625Z" fill="#E6E7E8"/>
</g>
<path style="mix-blend-mode:color-dodge" d="M133.082 221.528L129.34 210.128L113.92 181.019C113.336 179.823 112.404 178.832 111.245 178.175L44.3758 139.816C44.1495 140.106 44.5213 140.3 44.3758 140.622L110.606 178.602C111.762 179.263 112.693 180.254 113.281 181.446L128.701 210.603L132.427 221.963C132.927 222.95 133.187 224.04 133.187 225.146V233.533C133.591 233.573 133.445 233.694 133.858 233.621V224.71C133.85 223.604 133.584 222.515 133.082 221.528Z" fill="url(#paint21_radial_241_100856)"/>
<path d="M123.32 192.08L129.842 189.728C134.097 188.189 138.102 186.036 141.73 183.339L143.452 182.066C143.63 181.926 143.835 181.825 144.054 181.769C144.274 181.713 144.502 181.704 144.726 181.742C144.949 181.78 145.162 181.864 145.35 181.989C145.539 182.114 145.699 182.278 145.82 182.469L154.799 195.948C154.923 196.126 155.01 196.328 155.054 196.54C155.098 196.753 155.099 196.973 155.056 197.186C155.013 197.398 154.927 197.601 154.804 197.78C154.68 197.959 154.522 198.111 154.338 198.228L149.764 201.289C146.217 203.655 142.392 205.578 138.376 207.018L131.208 209.58C130.819 209.715 130.394 209.703 130.014 209.545C129.633 209.388 129.325 209.096 129.147 208.726L122.383 194.328C122.279 194.122 122.222 193.895 122.214 193.665C122.206 193.434 122.248 193.204 122.337 192.991C122.426 192.778 122.559 192.586 122.729 192.429C122.899 192.272 123.1 192.153 123.32 192.08Z" fill="#007683"/>
<path d="M124.25 192.427L130.457 190.18C134.506 188.714 138.318 186.664 141.771 184.097L143.388 182.88C143.561 182.758 143.757 182.671 143.964 182.624C144.172 182.577 144.386 182.571 144.596 182.607C144.805 182.643 145.005 182.72 145.185 182.833C145.365 182.946 145.52 183.094 145.643 183.267L154.25 196.109C154.47 196.459 154.548 196.879 154.467 197.284C154.386 197.688 154.152 198.047 153.813 198.285L149.449 201.201C146.072 203.456 142.43 205.288 138.603 206.656L131.774 209.073C131.404 209.197 131.002 209.184 130.641 209.036C130.28 208.888 129.985 208.615 129.81 208.267L123.345 194.57C123.251 194.372 123.2 194.156 123.196 193.937C123.191 193.718 123.233 193.5 123.318 193.298C123.404 193.096 123.531 192.914 123.691 192.764C123.852 192.614 124.042 192.499 124.25 192.427Z" fill="#19352A"/>
<path d="M108.992 188.358L109.372 201.007C109.376 201.163 109.42 201.316 109.501 201.45C109.582 201.584 109.696 201.695 109.833 201.772L125.075 210.473V208.33L117.292 191.306L110.35 187.528C110.208 187.452 110.049 187.414 109.888 187.418C109.726 187.423 109.569 187.469 109.432 187.553C109.295 187.637 109.182 187.756 109.105 187.897C109.027 188.038 108.989 188.197 108.992 188.358Z" fill="#007683"/>
<path d="M109.799 188.027L110.187 200.838L121.259 207.235L120.96 200.894L117.048 191.967L109.799 188.027Z" fill="#19352A"/>
<path d="M126.625 226.37L132.201 229.351C133.206 229.83 134.299 230.096 135.411 230.133C136.524 230.171 137.632 229.978 138.667 229.569L142.91 227.877C149.513 225.234 155.631 221.133 161.393 217.403L164.076 215.252L164.933 215.316L164.812 220.956L163.955 221.762C156.416 227.737 147.838 232.279 138.651 235.16C137.614 235.485 136.522 235.599 135.44 235.494C134.359 235.388 133.309 235.067 132.355 234.548L126.981 231.398L126.625 226.37Z" fill="url(#paint22_linear_241_100856)"/>
<path d="M131.791 223.719C132.505 224.154 133.317 224.407 134.153 224.453C134.99 224.5 135.825 224.339 136.583 223.985C136.893 223.838 137.23 223.76 137.573 223.756C137.915 223.752 138.255 223.822 138.567 223.961C138.88 224.101 139.159 224.306 139.384 224.563C139.609 224.82 139.776 225.123 139.873 225.451L140.624 227.973L136.729 229.512C136.082 229.765 135.389 229.884 134.694 229.86C133.999 229.837 133.316 229.671 132.688 229.375L131.621 228.875L131.791 223.719Z" fill="url(#paint23_linear_241_100856)"/>
<path style="mix-blend-mode:multiply" d="M131.789 223.719C132.504 224.154 133.316 224.407 134.152 224.453C134.988 224.5 135.823 224.339 136.582 223.985C136.891 223.838 137.229 223.76 137.571 223.756C137.914 223.752 138.253 223.822 138.566 223.961C138.878 224.101 139.157 224.306 139.382 224.563C139.608 224.82 139.774 225.123 139.871 225.451L140.623 227.973L136.113 227.763C131.7 226.861 131.789 223.719 131.789 223.719Z" fill="url(#paint24_linear_241_100856)"/>
<path d="M161.24 213.591L160.893 217.273C160.893 217.273 164.053 215.316 164.247 214.558C164.307 212.758 164.263 210.956 164.117 209.16L163.204 210.264C162.651 210.64 162.188 211.133 161.848 211.709C161.509 212.284 161.301 212.927 161.24 213.591Z" fill="url(#paint25_linear_241_100856)"/>
<path style="mix-blend-mode:multiply" d="M161.24 213.591L160.893 217.273C161.712 215.924 162.452 214.528 163.107 213.092C163.293 212.343 164.117 209.16 164.117 209.16L163.204 210.264C162.651 210.64 162.188 211.133 161.848 211.709C161.509 212.284 161.301 212.927 161.24 213.591Z" fill="url(#paint26_linear_241_100856)"/>
<path d="M154.8 195.947L153.895 194.594C153.859 194.854 153.769 195.103 153.63 195.325C153.49 195.547 153.305 195.738 153.086 195.883L147.938 199.315C143.955 201.978 139.658 204.143 135.145 205.76L128.809 208.016L129.14 208.725C129.318 209.096 129.626 209.387 130.007 209.545C130.387 209.703 130.812 209.715 131.201 209.579L138.369 207.017C142.385 205.578 146.21 203.654 149.757 201.289L154.331 198.227C154.516 198.112 154.675 197.96 154.799 197.781C154.923 197.602 155.01 197.4 155.054 197.187C155.097 196.974 155.097 196.754 155.054 196.541C155.01 196.328 154.924 196.126 154.8 195.947Z" fill="#007683"/>
<path style="mix-blend-mode:color-dodge" d="M152.529 193.539L145.683 183.267C145.561 183.094 145.405 182.946 145.226 182.833C145.046 182.72 144.846 182.643 144.636 182.607C144.427 182.571 144.212 182.577 144.005 182.624C143.798 182.671 143.602 182.758 143.428 182.88L141.812 184.097C138.359 186.664 134.547 188.714 130.498 190.18L124.291 192.427C123.909 192.563 123.595 192.841 123.415 193.204C123.236 193.566 123.205 193.984 123.329 194.369C127.665 195.471 132.125 196.012 136.599 195.98C142.008 196.049 147.391 195.225 152.529 193.539Z" fill="url(#paint27_linear_241_100856)"/>
<path style="mix-blend-mode:color-dodge" opacity="0.7" d="M114.577 178.577L134.409 167.322L66.4656 128.625L46.6328 139.695L114.577 178.577Z" fill="url(#paint28_linear_241_100856)"/>
<path style="mix-blend-mode:multiply" d="M123.256 209.219C124.314 209.864 117.825 212.732 115.279 213.248C112.733 213.763 114.891 214.408 114.81 213.989C114.447 211.991 119.692 207.028 123.256 209.219Z" fill="url(#paint29_linear_241_100856)"/>
<path d="M115.635 205.689L116.055 210.708C116.071 210.886 116.129 211.057 116.225 211.208C116.32 211.359 116.45 211.486 116.604 211.577C116.757 211.668 116.931 211.722 117.109 211.733C117.288 211.745 117.467 211.714 117.631 211.643L123.103 210.032C123.328 209.932 123.515 209.762 123.635 209.546C123.755 209.331 123.8 209.083 123.765 208.839L121.963 204.142C121.939 203.98 121.881 203.826 121.791 203.689C121.701 203.553 121.582 203.437 121.442 203.351C121.303 203.265 121.146 203.211 120.984 203.191C120.821 203.172 120.656 203.189 120.5 203.24L116.411 204.561C116.174 204.636 115.969 204.788 115.828 204.992C115.688 205.196 115.62 205.442 115.635 205.689Z" fill="url(#paint30_radial_241_100856)"/>
<path style="mix-blend-mode:color-dodge" d="M117.114 211.312L116.693 206.301C116.672 206.043 116.741 205.786 116.888 205.573C117.035 205.36 117.252 205.204 117.501 205.133L121.591 203.811C121.683 203.784 121.778 203.768 121.874 203.763C121.754 203.526 121.552 203.339 121.306 203.238C121.06 203.136 120.785 203.125 120.532 203.207L116.443 204.528C116.194 204.599 115.977 204.753 115.83 204.964C115.683 205.176 115.614 205.432 115.635 205.689L116.055 210.708C116.082 210.999 116.22 211.268 116.442 211.458C116.663 211.649 116.95 211.747 117.243 211.731C117.174 211.601 117.131 211.459 117.114 211.312Z" fill="url(#paint31_radial_241_100856)"/>
<path style="mix-blend-mode:multiply" d="M114.94 217.274L63.0059 187.625C64.3975 189.868 65.1801 192.434 65.2768 195.069C65.28 195.597 65.2313 196.123 65.1314 196.641L112.418 223.228C112.418 222.906 112.378 222.583 112.378 222.269C112.378 219.691 113.372 217.975 114.94 217.274Z" fill="url(#paint32_linear_241_100856)"/>
<path style="mix-blend-mode:multiply" d="M50.2999 186.451C50.2999 184.034 51.1647 182.382 52.5467 181.617L36.383 172.359L36.278 177.774C36.2648 178.542 36.4597 179.301 36.8423 179.968C37.2249 180.636 37.7809 181.189 38.452 181.568L50.4454 188.352C50.3471 187.723 50.2985 187.087 50.2999 186.451Z" fill="url(#paint33_linear_241_100856)"/>
<path d="M126.771 226.941L132.348 229.914C133.352 230.392 134.445 230.659 135.558 230.696C136.67 230.734 137.779 230.541 138.813 230.132L143.056 228.44C149.667 225.798 155.887 222.275 161.548 217.966L164.958 215.219V220.319C164.959 220.704 164.872 221.085 164.704 221.433C164.536 221.78 164.291 222.085 163.988 222.325L163.536 222.687C155.551 227.94 148.18 232.315 138.805 235.796C137.768 236.12 136.676 236.232 135.594 236.125C134.512 236.019 133.463 235.696 132.51 235.175L127.135 232.033L126.771 226.941Z" fill="url(#paint34_linear_241_100856)"/>
<path d="M139.162 225.582L137.82 228.426C137.82 228.426 133.707 225.896 134.119 225.018C134.531 224.14 139.162 225.582 139.162 225.582Z" fill="url(#paint35_linear_241_100856)"/>
<path d="M137.375 227.603C137.375 228.32 137.884 228.61 138.515 228.247C138.843 228.032 139.117 227.742 139.313 227.402C139.51 227.062 139.624 226.681 139.646 226.289C139.646 225.572 139.137 225.29 138.515 225.645C138.184 225.859 137.908 226.148 137.71 226.488C137.512 226.828 137.398 227.21 137.375 227.603Z" fill="url(#paint36_linear_241_100856)"/>
<path d="M136.371 226.136L135.296 228.4C135.296 228.4 132.064 226.386 132.354 225.693C132.645 225 136.371 226.136 136.371 226.136Z" fill="url(#paint37_linear_241_100856)"/>
<path d="M134.949 227.748C134.949 228.32 135.353 228.554 135.846 228.256C136.11 228.088 136.329 227.86 136.487 227.591C136.644 227.322 136.735 227.02 136.751 226.709C136.751 226.137 136.347 225.903 135.846 226.193C135.586 226.365 135.369 226.595 135.213 226.865C135.057 227.135 134.967 227.437 134.949 227.748Z" fill="url(#paint38_linear_241_100856)"/>
<path d="M163.503 213.117L162.581 215.059C162.581 215.059 161.013 213.874 161.288 213.27C161.563 212.666 163.503 213.117 163.503 213.117Z" fill="url(#paint39_linear_241_100856)"/>
<path d="M162.281 214.495C162.281 214.987 162.629 215.188 163.089 214.938C163.32 214.797 163.514 214.602 163.655 214.371C163.795 214.14 163.879 213.879 163.898 213.609C163.898 213.118 163.55 212.916 163.089 213.166C162.859 213.308 162.665 213.503 162.525 213.734C162.384 213.965 162.301 214.226 162.281 214.495Z" fill="url(#paint40_linear_241_100856)"/>
<path d="M163.875 211.513L163.204 212.931C163.204 212.931 162.056 212.061 162.258 211.626C162.46 211.191 163.875 211.513 163.875 211.513Z" fill="url(#paint41_linear_241_100856)"/>
<path d="M162.984 212.521C162.984 212.884 163.235 213.021 163.55 212.843C163.716 212.738 163.854 212.594 163.952 212.425C164.05 212.255 164.107 212.064 164.116 211.869C164.116 211.514 163.865 211.369 163.55 211.546C163.386 211.653 163.249 211.797 163.151 211.967C163.052 212.136 162.995 212.326 162.984 212.521Z" fill="url(#paint42_linear_241_100856)"/>
<path d="M134.434 224.469C133.502 224.472 132.587 224.219 131.791 223.736L131.621 228.877L132.704 229.392C133.404 229.72 134.17 229.883 134.943 229.868L134.434 224.469Z" fill="url(#paint43_radial_241_100856)"/>
<path d="M141.149 223.093L141.699 224.543C141.803 224.82 141.963 225.072 142.171 225.283C142.379 225.494 142.628 225.66 142.904 225.769C143.179 225.879 143.475 225.929 143.771 225.918C144.067 225.906 144.358 225.833 144.624 225.703C146.645 224.704 149.772 223.109 152.383 221.562C155.292 219.846 157.684 218.283 158.905 217.469C159.177 217.293 159.404 217.055 159.566 216.775C159.729 216.495 159.824 216.181 159.842 215.858L160.004 213.183C160.011 213.072 159.986 212.962 159.933 212.864C159.88 212.766 159.801 212.685 159.705 212.63C159.608 212.575 159.498 212.547 159.387 212.551C159.275 212.555 159.167 212.59 159.075 212.651C157.369 213.779 153.781 216.124 150.726 217.848C147.315 219.782 142.951 221.715 141.464 222.36C141.33 222.422 141.224 222.531 141.166 222.666C141.107 222.801 141.101 222.954 141.149 223.093Z" fill="#007683"/>
<path style="mix-blend-mode:screen" d="M159.463 212.529C159.51 212.627 159.532 212.735 159.528 212.844L159.374 215.518C159.351 215.84 159.255 216.153 159.093 216.432C158.93 216.712 158.706 216.95 158.437 217.13C157.216 217.935 154.816 219.498 151.907 221.223C149.296 222.769 146.169 224.357 144.148 225.356C143.858 225.498 143.538 225.573 143.215 225.573C142.891 225.573 142.572 225.498 142.281 225.356C142.596 225.635 142.988 225.813 143.405 225.869C143.823 225.925 144.247 225.856 144.625 225.67C146.645 224.671 149.773 223.076 152.384 221.529C155.293 219.813 157.685 218.25 158.906 217.436C159.178 217.259 159.404 217.022 159.567 216.742C159.73 216.462 159.825 216.148 159.843 215.825L160.005 213.15C160.012 212.997 159.959 212.847 159.858 212.732C159.758 212.616 159.616 212.544 159.463 212.529Z" fill="url(#paint44_radial_241_100856)"/>
<path style="mix-blend-mode:color-dodge" d="M156.376 199.139C156.376 199.139 161.573 206.712 161.225 208.356C160.878 209.999 152.747 215.051 148.448 217.009C144.148 218.966 136.325 222.519 134.466 221.255C132.607 219.99 131.023 210.829 131.023 210.829C136.135 209.431 141.131 207.642 145.967 205.479C153.442 202.096 156.376 199.139 156.376 199.139Z" fill="url(#paint45_linear_241_100856)"/>
<path d="M154.16 201.008L154.111 200.935C154.062 200.865 153.998 200.806 153.924 200.763C153.849 200.72 153.766 200.694 153.68 200.687C153.594 200.681 153.508 200.693 153.427 200.723C153.347 200.753 153.274 200.801 153.214 200.863L153.077 200.968L149.804 203.151C147.271 204.846 144.538 206.221 141.665 207.244L138.109 208.517C138.051 208.539 137.998 208.572 137.953 208.616C137.908 208.659 137.873 208.711 137.849 208.768C137.824 208.825 137.812 208.887 137.813 208.949C137.813 209.011 137.826 209.072 137.851 209.129C137.963 209.365 138.159 209.551 138.401 209.652C138.642 209.753 138.912 209.762 139.16 209.677L143.718 208.066C146.283 207.153 148.726 205.93 150.992 204.424L153.901 202.474C154.016 202.396 154.114 202.296 154.19 202.179C154.265 202.063 154.317 201.932 154.341 201.795C154.365 201.659 154.361 201.519 154.33 201.383C154.299 201.248 154.241 201.12 154.16 201.008Z" fill="#007683"/>
<path style="mix-blend-mode:screen" d="M36.7968 162.191L123.911 211.193L126.561 217.791L36.7402 167.493L36.7968 162.191Z" fill="url(#paint46_linear_241_100856)"/>
<path d="M35.8747 172.85L38.9377 174.461V182.171C37.9698 181.739 37.1517 181.031 36.5865 180.137C36.0213 179.242 35.7343 178.201 35.7615 177.144L35.8747 172.85Z" fill="#007683"/>
<g style="mix-blend-mode:multiply">
<path d="M111.835 217.839L65.6797 191.445L65.9626 190.945L112.118 217.347L111.835 217.839Z" fill="#D1D3D4"/>
</g>
<path style="mix-blend-mode:color-dodge" d="M116.014 187.295L41.6208 144.635L41.3379 145.126L89.9661 173.011V204.48H90.5399V173.341L107.237 182.92V214.503H107.811V183.243L115.731 187.787L116.014 187.295Z" fill="url(#paint47_radial_241_100856)"/>
<path style="mix-blend-mode:multiply" d="M112.928 207.164C112.928 208.114 112.257 208.493 111.433 208.018C110.997 207.736 110.633 207.356 110.372 206.908C110.111 206.46 109.959 205.957 109.93 205.439C109.93 204.489 110.6 204.102 111.433 204.585C111.868 204.868 112.23 205.249 112.489 205.697C112.749 206.144 112.899 206.647 112.928 207.164Z" fill="url(#paint48_linear_241_100856)"/>
<path d="M112.903 207.097C113.234 207.758 112.636 207.863 111.578 207.331C110.564 206.845 109.696 206.1 109.064 205.172C108.733 204.511 109.331 204.366 110.39 204.938C111.405 205.422 112.273 206.168 112.903 207.097Z" fill="url(#paint49_radial_241_100856)"/>
<path style="mix-blend-mode:multiply" d="M105.524 203.184C105.524 204.134 104.853 204.513 104.029 204.038C103.592 203.756 103.229 203.376 102.968 202.928C102.707 202.48 102.555 201.977 102.525 201.459C102.525 200.509 103.196 200.13 104.029 200.605C104.463 200.888 104.825 201.269 105.085 201.716C105.345 202.164 105.495 202.667 105.524 203.184Z" fill="url(#paint50_linear_241_100856)"/>
<path d="M105.508 203.119C105.831 203.78 105.233 203.884 104.174 203.353C103.162 202.863 102.296 202.119 101.661 201.193C101.337 200.533 101.927 200.388 102.986 200.96C104.002 201.446 104.872 202.191 105.508 203.119Z" fill="url(#paint51_radial_241_100856)"/>
<g style="mix-blend-mode:multiply">
<path d="M104.951 198.945C104.725 198.945 104.503 198.889 104.304 198.784L93.6362 193.104C93.1621 192.85 92.7659 192.472 92.4899 192.011C92.2138 191.55 92.0682 191.023 92.0684 190.486V179.674C92.068 179.436 92.1307 179.203 92.2502 178.997C92.3696 178.792 92.5415 178.621 92.7484 178.503C92.9553 178.386 93.1898 178.324 93.428 178.326C93.6663 178.328 93.8999 178.393 94.105 178.513L104.821 184.741C105.271 185.004 105.645 185.379 105.904 185.83C106.163 186.281 106.3 186.792 106.3 187.311V197.592C106.302 197.773 106.266 197.952 106.196 198.118C106.125 198.285 106.02 198.435 105.888 198.559C105.636 198.801 105.301 198.94 104.951 198.945ZM93.4261 178.892C93.2118 178.892 93.0062 178.977 92.8546 179.128C92.7031 179.279 92.6179 179.484 92.6179 179.698V190.478C92.6212 190.911 92.7415 191.336 92.9662 191.708C93.1908 192.079 93.5116 192.383 93.8949 192.589L104.563 198.301C104.683 198.358 104.815 198.385 104.948 198.379C105.081 198.373 105.21 198.334 105.324 198.267C105.439 198.199 105.534 198.104 105.603 197.991C105.672 197.877 105.712 197.748 105.719 197.616V187.311C105.718 186.891 105.607 186.478 105.397 186.114C105.187 185.749 104.886 185.446 104.522 185.233L93.7979 179.005C93.6815 178.932 93.5472 178.893 93.4099 178.892H93.4261Z" fill="#D1D3D4"/>
</g>
<path style="mix-blend-mode:color-dodge" d="M105.054 199.381C104.831 199.383 104.611 199.328 104.416 199.22L93.7476 193.508C93.2735 193.255 92.8771 192.879 92.601 192.419C92.3248 191.959 92.1792 191.433 92.1797 190.897V180.117C92.1797 179.76 92.3216 179.417 92.5745 179.163C92.8274 178.909 93.1706 178.766 93.5293 178.764C93.7719 178.763 94.0099 178.83 94.2163 178.957L104.949 185.185C105.399 185.448 105.772 185.823 106.031 186.274C106.291 186.725 106.428 187.235 106.428 187.755V198.035C106.43 198.216 106.394 198.395 106.323 198.562C106.252 198.728 106.147 198.878 106.016 199.002C105.757 199.249 105.412 199.384 105.054 199.381ZM93.5293 179.336C93.315 179.336 93.1094 179.421 92.9579 179.572C92.8063 179.723 92.7212 179.928 92.7212 180.141V190.921C92.7237 191.354 92.8427 191.778 93.0659 192.15C93.2891 192.521 93.6083 192.826 93.99 193.032L104.658 198.744C104.806 198.82 104.974 198.848 105.139 198.825C105.304 198.802 105.458 198.729 105.579 198.616C105.654 198.544 105.714 198.457 105.754 198.362C105.795 198.266 105.815 198.163 105.814 198.06V187.755C105.813 187.335 105.702 186.922 105.492 186.558C105.282 186.193 104.981 185.889 104.618 185.676L93.9253 179.408C93.8016 179.351 93.6654 179.326 93.5293 179.336Z" fill="url(#paint52_radial_241_100856)"/>
<path d="M48.0143 158.863C48.0143 160.162 47.6911 160.968 47.0445 161.28C46.398 161.602 45.4282 161.409 44.2563 160.708L42.3086 159.588V151.732L44.4664 152.973C45.5437 153.571 46.4441 154.44 47.0769 155.495C47.6945 156.51 48.0189 157.675 48.0143 158.863ZM46.495 158.057C46.5488 157.325 46.3937 156.594 46.0475 155.946C45.7014 155.299 45.1784 154.762 44.5392 154.399L43.731 153.948V159.072L44.3614 159.427C45.7838 160.232 46.495 159.77 46.495 158.041V158.057Z" fill="#19352A"/>
<path d="M53.3895 165.969L49.4375 163.689V155.834L53.3895 158.106V159.476L50.8922 158.033V159.758L53.2198 161.103V162.489L50.8922 161.151V163.182L53.3895 164.616V165.969Z" fill="#19352A"/>
<path d="M54.8438 166.799V158.936L56.2985 159.741V166.227L59.0867 167.838V169.216L54.8438 166.799Z" fill="#19352A"/>
<path d="M60.2656 169.926V162.062L61.7204 162.868V170.732L60.2656 169.926Z" fill="#007683"/>
<path d="M67.3695 166.155L68.8404 166.961L66.5047 173.479L64.8884 172.56L62.5527 163.359L64.0236 164.205L65.3167 169.628C65.3894 169.95 65.4622 170.312 65.543 170.723C65.6238 171.134 65.6642 171.416 65.6804 171.529C65.7653 171.014 65.8841 170.505 66.036 170.006L67.3695 166.155Z" fill="#007683"/>
<path d="M73.6671 177.635L69.707 175.363V167.5L73.6671 169.78V171.142L71.1617 169.708V171.432L73.4893 172.769V174.131L71.1617 172.793V174.824L73.6671 176.258V177.635Z" fill="#19352A"/>
<path d="M76.5585 176.281V179.302L75.0957 178.496V170.633L77.1 171.785C77.9158 172.218 78.6251 172.826 79.177 173.565C79.6186 174.196 79.853 174.948 79.8478 175.717C79.8771 176.097 79.7552 176.473 79.5084 176.764C79.3864 176.883 79.2381 176.973 79.0752 177.024C78.9124 177.076 78.7396 177.089 78.5709 177.062C79.5973 179.431 80.2761 180.953 80.5913 181.654L78.975 180.72L77.3586 176.764L76.5585 176.281ZM76.5585 174.927L77.0273 175.201C77.3202 175.42 77.6793 175.534 78.0456 175.523C78.2638 175.475 78.3769 175.257 78.3769 174.887C78.3821 174.527 78.2622 174.177 78.0375 173.896C77.7424 173.566 77.389 173.293 76.9949 173.09L76.5585 172.84V174.927Z" fill="#19352A"/>
<path d="M83.5902 178.732L85.0287 176.315L86.5966 177.218L84.3175 180.706V183.768L82.8709 182.962V179.957L80.5918 173.77L82.1678 174.68L83.5902 178.732Z" fill="#19352A"/>
<path d="M42.1719 161.676V163.19L45.049 164.89V163.344L42.1719 161.676Z" fill="#007683"/>
<path d="M46.5742 164.156V165.671L49.4513 167.371V165.832L46.5742 164.156Z" fill="#007683"/>
<path d="M50.9883 166.646V168.153L53.8654 169.861V168.314L50.9883 166.646Z" fill="#19352A"/>
<path d="M55.3926 169.127V170.642L58.2697 172.342V170.795L55.3926 169.127Z" fill="#19352A"/>
<path d="M59.7969 171.609V173.124L62.674 174.824V173.285L59.7969 171.609Z" fill="#19352A"/>
<path d="M64.2109 174.098V175.604L67.0881 177.312V175.765L64.2109 174.098Z" fill="#19352A"/>
<path d="M68.6133 176.58V178.095L71.4904 179.795V178.248L68.6133 176.58Z" fill="#19352A"/>
<path d="M73.0195 179.062V180.577L75.8966 182.277V180.738L73.0195 179.062Z" fill="#19352A"/>
<path d="M77.4316 181.551V183.057L80.3088 184.765V183.219L77.4316 181.551Z" fill="#19352A"/>
<path d="M81.8359 184.031V185.546L84.7131 187.246V185.699L81.8359 184.031Z" fill="#19352A"/>
<path opacity="0.2" d="M0 203.974L24.9243 218.073L56.0392 200.751L33.1354 187.055L0 203.974Z" fill="black"/>
<path d="M32.28 189.319V203.096L18.9531 195.393V181.512L32.28 189.319Z" fill="url(#paint53_linear_241_100856)"/>
<path d="M32.2617 189.318V203.095L44.9178 195.804V181.922L32.2617 189.318Z" fill="url(#paint54_linear_241_100856)"/>
<path d="M44.92 181.921L32.2639 189.317L18.9531 181.51L31.6335 174.146L44.92 181.921Z" fill="url(#paint55_linear_241_100856)"/>
<path d="M26.6217 186.063V189.761L23.6152 188.037V184.234L26.6217 186.063Z" fill="url(#paint56_linear_241_100856)"/>
<path d="M39.2616 178.668L26.6055 186.064L23.6152 184.235L36.2956 176.879L39.2616 178.668Z" fill="url(#paint57_linear_241_100856)"/>
<path d="M29.7501 194.312L30.8007 197.575L30.1138 197.181V201.064L29.3783 200.637V196.754L28.6914 196.359L29.7501 194.312Z" fill="url(#paint58_linear_241_100856)"/>
<path d="M26.1211 194.886L27.1798 192.84L28.2385 196.103L27.5516 195.708V199.591L26.8081 199.164V195.281L26.1211 194.886Z" fill="url(#paint59_linear_241_100856)"/>
<path d="M13.1335 197.939V210.072L1.39062 203.297V191.066L13.1335 197.939Z" fill="url(#paint60_linear_241_100856)"/>
<path d="M13.1172 197.94V210.073L24.262 203.66V191.43L13.1172 197.94Z" fill="url(#paint61_linear_241_100856)"/>
<path d="M24.2622 191.428L13.1173 197.938L1.39062 191.066L12.5597 184.58L24.2622 191.428Z" fill="url(#paint62_linear_241_100856)"/>
<path d="M8.15502 195.07V198.325L5.49609 196.818V193.467L8.15502 195.07Z" fill="url(#paint63_linear_241_100856)"/>
<path d="M19.2837 188.56L8.13884 195.069L5.49609 193.466L16.6652 186.98L19.2837 188.56Z" fill="url(#paint64_linear_241_100856)"/>
<path d="M10.9021 202.346L11.8315 205.214L11.2253 204.867V208.292L10.5707 207.913V204.489L9.97266 204.142L10.9021 202.346Z" fill="url(#paint65_linear_241_100856)"/>
<path d="M7.71094 202.844L8.64034 201.039L9.56977 203.915L8.9717 203.569V206.993L8.31707 206.614V203.19L7.71094 202.844Z" fill="url(#paint66_linear_241_100856)"/>
<path d="M27.6719 202.466V214.6L39.4147 207.816V195.586L27.6719 202.466Z" fill="url(#paint67_linear_241_100856)"/>
<path d="M27.6878 202.467V214.601L16.543 208.179V195.949L27.6878 202.467Z" fill="url(#paint68_linear_241_100856)"/>
<path d="M16.543 195.95L27.6878 202.467L39.4145 195.587L28.2454 189.109L16.543 195.95Z" fill="url(#paint69_linear_241_100856)"/>
<path d="M32.6582 199.598V202.853L35.309 201.338V197.986L32.6582 199.598Z" fill="url(#paint70_linear_241_100856)"/>
<path d="M21.5215 193.079L32.6663 199.597L35.309 197.985L24.14 191.508L21.5215 193.079Z" fill="url(#paint71_linear_241_100856)"/>
<path d="M29.9021 206.865L28.9727 209.741L29.5788 209.395V212.811L30.2334 212.441V209.016L30.8396 208.67L29.9021 206.865Z" fill="url(#paint72_linear_241_100856)"/>
<path d="M33.0951 207.365L32.1657 205.568L31.2363 208.437L31.8425 208.09V211.514L32.4971 211.136V207.711L33.0951 207.365Z" fill="url(#paint73_linear_241_100856)"/>
<path d="M22.1445 186.184V196.416L32.0447 190.695V180.383L22.1445 186.184Z" fill="url(#paint74_linear_241_100856)"/>
<path d="M22.153 186.182V196.414L12.7539 191V180.688L22.153 186.182Z" fill="url(#paint75_linear_241_100856)"/>
<path d="M12.7539 180.689L22.153 186.184L32.0452 180.383L22.6218 174.912L12.7539 180.689Z" fill="url(#paint76_linear_241_100856)"/>
<path d="M26.3398 183.768V186.507L28.5785 185.234V182.406L26.3398 183.768Z" fill="url(#paint77_linear_241_100856)"/>
<path d="M16.957 178.263L26.3562 183.766L28.5787 182.404L19.1634 176.941L16.957 178.263Z" fill="url(#paint78_linear_241_100856)"/>
<path d="M24.0264 189.898L23.2344 192.315L23.7435 192.025V194.918L24.3012 194.596V191.711L24.8103 191.413L24.0264 189.898Z" fill="url(#paint79_linear_241_100856)"/>
<path d="M26.7185 190.316L25.9346 188.793L25.1426 191.218L25.6517 190.928V193.812L26.2094 193.498V190.606L26.7185 190.316Z" fill="url(#paint80_linear_241_100856)"/>
<path d="M63.6778 222.149V221.875H43.4732V222.375C43.4426 222.881 43.5689 223.384 43.8349 223.817C44.1009 224.249 44.4938 224.589 44.9603 224.792L49.5993 227.466C51.8218 228.747 55.7091 228.586 58.271 227.112L61.5927 225.194C63.0959 224.348 63.8071 223.204 63.6778 222.149Z" fill="#5FBB97"/>
<path d="M49.5743 226.693L44.9354 224.026C42.7129 222.745 42.9877 220.505 45.5577 219.031L48.8793 217.121C51.4412 215.647 55.3447 215.51 57.5511 216.759L62.19 219.434C64.4125 220.715 64.1377 222.946 61.5677 224.429L58.2461 226.338C55.6518 227.813 51.7968 227.974 49.5743 226.693Z" fill="#5FBB97"/>
<path style="mix-blend-mode:color-dodge" d="M61.567 224.236L58.2453 226.137C55.6834 227.612 51.7799 227.749 49.5736 226.492L44.9346 223.817C44.5378 223.633 44.1934 223.353 43.9323 223.003C43.6713 222.652 43.5019 222.243 43.4395 221.811C43.4373 222.299 43.5775 222.778 43.8429 223.188C44.1083 223.599 44.4875 223.923 44.9346 224.123L49.5736 226.798C51.7961 228.079 55.6834 227.918 58.2453 226.443L61.567 224.526C63.0459 223.68 63.7652 222.576 63.6844 221.545C63.6117 222.496 62.9247 223.462 61.567 224.236Z" fill="url(#paint81_radial_241_100856)"/>
<path opacity="0.2" d="M63.6763 223.317V223.043C63.5418 223.598 63.2829 224.115 62.9189 224.556C62.555 224.997 62.0955 225.35 61.5751 225.589L58.2535 227.498C55.6915 228.981 51.788 229.11 49.5817 227.861L44.9427 225.186C44.5524 225.003 44.2129 224.727 43.9538 224.383C43.6946 224.039 43.5236 223.637 43.4557 223.212V223.542C43.4251 224.049 43.5513 224.552 43.8173 224.984C44.0833 225.417 44.4762 225.757 44.9427 225.96L49.5817 228.634C51.8042 229.907 55.6915 229.754 58.2535 228.272L61.5751 226.362C63.0944 225.508 63.8056 224.364 63.6763 223.317Z" fill="#5FBB97"/>
<path d="M55.5933 206.422H51.6089L47.2852 220.997C47.2852 220.997 47.2852 220.997 47.2852 221.045C47.2852 223.067 50.1138 224.703 53.589 224.703C57.0642 224.703 59.8928 223.091 59.8928 221.045V220.997L55.5933 206.422Z" fill="#5FBB97"/>
<path d="M55.5951 206.429C55.5951 207.066 54.7061 207.582 53.607 207.582C52.5079 207.582 51.627 207.066 51.627 206.429C51.627 205.793 52.516 205.277 53.607 205.277C54.698 205.277 55.5951 205.793 55.5951 206.429Z" fill="#5FBB97"/>
<path d="M59.9106 220.997L59.0539 218.08C59.0579 218.112 59.0579 218.145 59.0539 218.177C59.0539 219.925 56.6294 221.343 53.5987 221.343C50.568 221.343 48.1516 219.925 48.1516 218.177V218.08L47.2949 220.972C47.2949 220.972 47.2949 220.972 47.2949 221.021C47.2949 223.043 50.1235 224.679 53.5987 224.679C57.0739 224.679 59.9026 223.067 59.9026 221.021V220.972L59.9106 220.997Z" fill="#007683"/>
<path d="M57.3237 212.254V212.319C57.3237 213.511 55.6589 214.478 53.6061 214.478C51.5533 214.478 49.8884 213.511 49.8884 212.319C49.8884 212.319 49.8884 212.27 49.8884 212.246L49.0156 215.203V215.259C49.0156 216.734 51.0684 217.926 53.598 217.926C56.1276 217.926 58.1885 216.734 58.1885 215.259V215.211L57.3237 212.254Z" fill="#007683"/>
<path d="M55.5949 206.422C55.5949 207.058 54.7059 207.574 53.6068 207.574C52.5077 207.574 51.6267 207.058 51.6267 206.422L50.7539 209.346C50.7539 210.265 52.0308 211.006 53.6068 211.006C55.1827 211.006 56.4597 210.265 56.4597 209.346L55.5949 206.422Z" fill="#007683"/>
<path d="M53.6052 207.195C54.5068 207.195 55.2377 206.823 55.2377 206.365C55.2377 205.907 54.5068 205.535 53.6052 205.535C52.7036 205.535 51.9727 205.907 51.9727 206.365C51.9727 206.823 52.7036 207.195 53.6052 207.195Z" fill="#5FBB97"/>
<path style="mix-blend-mode:multiply" d="M53.6052 207.195C54.5068 207.195 55.2377 206.823 55.2377 206.365C55.2377 205.907 54.5068 205.535 53.6052 205.535C52.7036 205.535 51.9727 205.907 51.9727 206.365C51.9727 206.823 52.7036 207.195 53.6052 207.195Z" fill="url(#paint82_linear_241_100856)"/>
<path style="mix-blend-mode:color-dodge" d="M55.2632 205.906L53.9863 206.148L55.3522 220.731C55.3522 220.731 55.3522 220.731 55.3522 220.779C55.7401 222.761 56.9685 224.195 58.0838 224.002C59.1991 223.808 59.8133 222.004 59.4335 220.022V219.965L55.2632 205.906Z" fill="url(#paint83_radial_241_100856)"/>
<path style="mix-blend-mode:color-dodge" d="M52.2256 205.906L53.5106 206.148L52.1448 220.731C52.141 220.747 52.141 220.763 52.1448 220.779C51.7568 222.761 50.5284 224.195 49.405 224.002C48.2816 223.808 47.6836 222.004 48.0634 220.022V219.965L52.2256 205.906Z" fill="url(#paint84_radial_241_100856)"/>
<path d="M203.621 66.33C199.92 64.203 196.614 64.1385 194.319 65.7338L191.66 66.9664L191.991 68.6664C191.366 70.1832 191.06 71.8124 191.094 73.4521C191.094 78.8743 194.004 87.4226 197.01 94.8348L200.154 111.182L203.621 109.458C203.621 109.458 216.148 99.121 216.148 87.8737C216.148 79.9539 210.539 70.31 203.621 66.33Z" fill="#007683"/>
<path d="M212.681 89.598C212.681 100.877 200.154 111.182 200.154 111.182C200.154 111.182 187.627 86.4317 187.627 75.1764C187.627 67.2647 193.236 64.0742 200.154 68.0623C207.072 72.0504 212.681 81.6863 212.681 89.598Z" fill="#5FBB97"/>
<path style="mix-blend-mode:color-dodge" d="M200.945 67.6282C197.333 65.5496 194.092 65.4368 191.805 66.9273C194.019 65.9283 196.945 66.2102 200.153 68.0633C207.071 72.0433 212.68 81.6873 212.68 89.599C212.68 99.2671 203.491 108.202 200.856 110.547L200.945 110.732C200.945 110.732 213.472 100.395 213.472 89.1398C213.472 81.2522 207.863 71.6083 200.945 67.6282Z" fill="url(#paint85_radial_241_100856)"/>
<path d="M201.518 89.5059C203.28 88.4847 203.268 85.1875 201.492 82.1415C199.715 79.0955 196.847 77.454 195.085 78.4752C193.323 79.4964 193.335 82.7935 195.111 85.8396C196.888 88.8856 199.756 90.527 201.518 89.5059Z" fill="url(#paint86_linear_241_100856)"/>
<g style="mix-blend-mode:multiply">
<path d="M201.56 86.9557C200.236 86.0977 199.134 84.9409 198.342 83.5789C197.55 82.217 197.091 80.6882 197.002 79.1165C196.942 78.1849 197.252 77.2671 197.867 76.5625C196.509 76.6834 195.596 77.8355 195.596 79.7852C195.685 81.358 196.143 82.8879 196.935 84.2512C197.727 85.6144 198.83 86.7727 200.154 87.6325C201.673 88.5026 203.023 88.4382 203.847 87.5922C203.037 87.6183 202.239 87.3961 201.56 86.9557Z" fill="#D1D3D4"/>
</g>
<path style="mix-blend-mode:multiply" d="M255.683 142.999L247.504 136.344V157.654C247.504 157.654 258.034 144.908 255.683 142.999Z" fill="url(#paint87_linear_241_100856)"/>
<path style="mix-blend-mode:color-dodge" d="M187.612 56.1211C197.961 50.8851 201.034 36.1996 194.477 23.32C187.919 10.4405 174.215 4.24424 163.866 9.48027C153.518 14.7163 150.445 29.4019 157.002 42.2814C163.559 55.1609 177.264 61.3572 187.612 56.1211Z" fill="url(#paint88_radial_241_100856)"/>
<defs>
<radialGradient id="paint0_radial_241_100856" cx="0" cy="0" r="1" gradientUnits="userSpaceOnUse" gradientTransform="translate(245.01 69.3499) rotate(-22.2775) scale(15.2946 19.3695)">
<stop stop-color="#972A74"/>
<stop offset="0.04" stop-color="#8A266A"/>
<stop offset="0.19" stop-color="#601B4A"/>
<stop offset="0.35" stop-color="#3D112F"/>
<stop offset="0.51" stop-color="#230A1B"/>
<stop offset="0.67" stop-color="#0F040C"/>
<stop offset="0.83" stop-color="#040103"/>
<stop offset="1"/>
</radialGradient>
<radialGradient id="paint1_radial_241_100856" cx="0" cy="0" r="1" gradientUnits="userSpaceOnUse" gradientTransform="translate(263.369 75.0805) scale(133.479 133.065)">
<stop stop-color="#711F56"/>
<stop offset="0.16" stop-color="#6C1E52"/>
<stop offset="0.36" stop-color="#5C1946"/>
<stop offset="0.58" stop-color="#431233"/>
<stop offset="0.82" stop-color="#200918"/>
<stop offset="1"/>
</radialGradient>
<radialGradient id="paint2_radial_241_100856" cx="0" cy="0" r="1" gradientUnits="userSpaceOnUse" gradientTransform="translate(1640.9 2145.32) scale(15.2821 86.7957)">
<stop stop-color="#711F56"/>
<stop offset="0.16" stop-color="#6C1E52"/>
<stop offset="0.36" stop-color="#5C1946"/>
<stop offset="0.58" stop-color="#431233"/>
<stop offset="0.82" stop-color="#200918"/>
<stop offset="1"/>
</radialGradient>
<linearGradient id="paint3_linear_241_100856" x1="171.181" y1="232.187" x2="204.939" y2="140.264" gradientUnits="userSpaceOnUse">
<stop stop-color="#112A6C"/>
<stop offset="0.14" stop-color="#114280"/>
<stop offset="0.43" stop-color="#1380B4"/>
<stop offset="0.48" stop-color="#138BBD"/>
<stop offset="0.71" stop-color="#169AC7"/>
<stop offset="1" stop-color="#1CB5D7"/>
</linearGradient>
<linearGradient id="paint4_linear_241_100856" x1="231.463" y1="205.527" x2="247.974" y2="224.109" gradientUnits="userSpaceOnUse">
<stop stop-color="white"/>
<stop offset="1"/>
</linearGradient>
<radialGradient id="paint5_radial_241_100856" cx="0" cy="0" r="1" gradientUnits="userSpaceOnUse" gradientTransform="translate(19522 5697.43) scale(1928.25 1423.59)">
<stop stop-color="white"/>
<stop offset="1"/>
</radialGradient>
<radialGradient id="paint6_radial_241_100856" cx="0" cy="0" r="1" gradientUnits="userSpaceOnUse" gradientTransform="translate(1022.31 1468.89) scale(250.779 500.002)">
<stop stop-color="white"/>
<stop offset="1"/>
</radialGradient>
<radialGradient id="paint7_radial_241_100856" cx="0" cy="0" r="1" gradientUnits="userSpaceOnUse" gradientTransform="translate(2045.21 1667.9) scale(475.232 591.249)">
<stop stop-color="white"/>
<stop offset="1"/>
</radialGradient>
<radialGradient id="paint8_radial_241_100856" cx="0" cy="0" r="1" gradientUnits="userSpaceOnUse" gradientTransform="translate(154.992 190.825) scale(3.11958 3.10991)">
<stop stop-color="#EEEBF2"/>
<stop offset="0.58" stop-color="#D4D1D8"/>
<stop offset="0.94" stop-color="#A5A6B9"/>
<stop offset="1" stop-color="#9D9EB3"/>
</radialGradient>
<radialGradient id="paint9_radial_241_100856" cx="0" cy="0" r="1" gradientUnits="userSpaceOnUse" gradientTransform="translate(2023.05 2125.56) scale(15.1526 27.5618)">
<stop stop-color="white"/>
<stop offset="1"/>
</radialGradient>
<linearGradient id="paint10_linear_241_100856" x1="66.3672" y1="197.416" x2="54.8079" y2="181.872" gradientUnits="userSpaceOnUse">
<stop offset="0.06" stop-color="#2D2F32"/>
<stop offset="0.15" stop-color="#43464A"/>
<stop offset="0.25" stop-color="#5D6066"/>
<stop offset="0.48" stop-color="#1E1F21"/>
<stop offset="1" stop-color="#46484D"/>
</linearGradient>
<linearGradient id="paint11_linear_241_100856" x1="50.8332" y1="191.697" x2="64.0632" y2="191.697" gradientUnits="userSpaceOnUse">
<stop offset="0.04" stop-color="#1E1F21"/>
<stop offset="0.31" stop-color="#2C2E30"/>
<stop offset="0.84" stop-color="#515359"/>
<stop offset="1" stop-color="#5D6066"/>
</linearGradient>
<radialGradient id="paint12_radial_241_100856" cx="0" cy="0" r="1" gradientUnits="userSpaceOnUse" gradientTransform="translate(3827.59 4594.85) scale(98.4486 148.873)">
<stop stop-color="white"/>
<stop offset="1"/>
</radialGradient>
<linearGradient id="paint13_linear_241_100856" x1="52.5723" y1="191.8" x2="62.7634" y2="191.8" gradientUnits="userSpaceOnUse">
<stop stop-color="#BCBEC0"/>
<stop offset="1" stop-color="#E6E7E8"/>
</linearGradient>
<linearGradient id="paint14_linear_241_100856" x1="52.2578" y1="191.927" x2="62.449" y2="191.927" gradientUnits="userSpaceOnUse">
<stop offset="0.04" stop-color="#9D9EB3"/>
<stop offset="0.58" stop-color="#D4D1D8"/>
<stop offset="1" stop-color="#EEEBF2"/>
</linearGradient>
<linearGradient id="paint15_linear_241_100856" x1="6710.33" y1="6100.86" x2="6430.95" y2="5791.5" gradientUnits="userSpaceOnUse">
<stop offset="0.06" stop-color="#2D2F32"/>
<stop offset="0.15" stop-color="#43464A"/>
<stop offset="0.25" stop-color="#5D6066"/>
<stop offset="0.48" stop-color="#1E1F21"/>
<stop offset="1" stop-color="#46484D"/>
</linearGradient>
<linearGradient id="paint16_linear_241_100856" x1="5494.2" y1="5418.93" x2="5710.77" y2="5418.93" gradientUnits="userSpaceOnUse">
<stop offset="0.04" stop-color="#1E1F21"/>
<stop offset="0.31" stop-color="#2C2E30"/>
<stop offset="0.84" stop-color="#515359"/>
<stop offset="1" stop-color="#5D6066"/>
</linearGradient>
<radialGradient id="paint17_radial_241_100856" cx="0" cy="0" r="1" gradientUnits="userSpaceOnUse" gradientTransform="translate(4758.6 5383.81) scale(98.5202 148.964)">
<stop stop-color="white"/>
<stop offset="1"/>
</radialGradient>
<linearGradient id="paint18_linear_241_100856" x1="4278.8" y1="4223.07" x2="4407.11" y2="4223.07" gradientUnits="userSpaceOnUse">
<stop stop-color="#BCBEC0"/>
<stop offset="1" stop-color="#E6E7E8"/>
</linearGradient>
<linearGradient id="paint19_linear_241_100856" x1="4277.71" y1="4227.23" x2="4406.22" y2="4227.23" gradientUnits="userSpaceOnUse">
<stop offset="0.04" stop-color="#9D9EB3"/>
<stop offset="0.58" stop-color="#D4D1D8"/>
<stop offset="1" stop-color="#EEEBF2"/>
</linearGradient>
<radialGradient id="paint20_radial_241_100856" cx="0" cy="0" r="1" gradientUnits="userSpaceOnUse" gradientTransform="translate(50413.8 22437.9) scale(15397.7 12799.3)">
<stop stop-color="#EEEBF2"/>
<stop offset="0.58" stop-color="#D4D1D8"/>
<stop offset="0.94" stop-color="#A5A6B9"/>
<stop offset="1" stop-color="#9D9EB3"/>
</radialGradient>
<radialGradient id="paint21_radial_241_100856" cx="0" cy="0" r="1" gradientUnits="userSpaceOnUse" gradientTransform="translate(33749 24166.2) scale(5090.41 5333.16)">
<stop stop-color="white"/>
<stop offset="1"/>
</radialGradient>
<linearGradient id="paint22_linear_241_100856" x1="17718.3" y1="6572.35" x2="17612.8" y2="6382.47" gradientUnits="userSpaceOnUse">
<stop offset="0.04" stop-color="#1E1F21"/>
<stop offset="0.31" stop-color="#2C2E30"/>
<stop offset="0.84" stop-color="#515359"/>
<stop offset="1" stop-color="#5D6066"/>
</linearGradient>
<linearGradient id="paint23_linear_241_100856" x1="3993.98" y1="2102.83" x2="4094.27" y2="2102.83" gradientUnits="userSpaceOnUse">
<stop stop-color="#BCBEC0"/>
<stop offset="1" stop-color="#E6E7E8"/>
</linearGradient>
<linearGradient id="paint24_linear_241_100856" x1="136.299" y1="228.827" x2="136.09" y2="222.18" gradientUnits="userSpaceOnUse">
<stop stop-color="#9D9D9D"/>
<stop offset="0.31" stop-color="#C7C7C7"/>
<stop offset="0.59" stop-color="#E6E6E6"/>
<stop offset="0.83" stop-color="#F8F8F8"/>
<stop offset="1" stop-color="white"/>
</linearGradient>
<linearGradient id="paint25_linear_241_100856" x1="1733.41" y1="2553.62" x2="1747.67" y2="2553.62" gradientUnits="userSpaceOnUse">
<stop stop-color="#BCBEC0"/>
<stop offset="1" stop-color="#E6E7E8"/>
</linearGradient>
<linearGradient id="paint26_linear_241_100856" x1="1661.07" y1="2553.62" x2="1673.93" y2="2553.62" gradientUnits="userSpaceOnUse">
<stop stop-color="#9D9D9D"/>
<stop offset="0.31" stop-color="#C7C7C7"/>
<stop offset="0.59" stop-color="#E6E6E6"/>
<stop offset="0.83" stop-color="#F8F8F8"/>
<stop offset="1" stop-color="white"/>
</linearGradient>
<linearGradient id="paint27_linear_241_100856" x1="123.216" y1="189.269" x2="152.529" y2="189.269" gradientUnits="userSpaceOnUse">
<stop stop-color="#9C9C9C"/>
<stop offset="0.01" stop-color="#999999"/>
<stop offset="0.26" stop-color="#636363"/>
<stop offset="0.49" stop-color="#383838"/>
<stop offset="0.7" stop-color="#191919"/>
<stop offset="0.88" stop-color="#070707"/>
<stop offset="1"/>
</linearGradient>
<linearGradient id="paint28_linear_241_100856" x1="160.926" y1="191.218" x2="79.6145" y2="147.501" gradientUnits="userSpaceOnUse">
<stop stop-color="#D1D3D4"/>
<stop offset="0.19" stop-color="#979899"/>
<stop offset="0.4" stop-color="#616263"/>
<stop offset="0.59" stop-color="#373838"/>
<stop offset="0.76" stop-color="#191919"/>
<stop offset="0.9" stop-color="#070707"/>
<stop offset="1"/>
</linearGradient>
<linearGradient id="paint29_linear_241_100856" x1="122.738" y1="208.446" x2="114.824" y2="213.383" gradientUnits="userSpaceOnUse">
<stop stop-color="#696969"/>
<stop offset="0.24" stop-color="#9C9C9C"/>
<stop offset="0.48" stop-color="#C7C7C7"/>
<stop offset="0.69" stop-color="#E6E6E6"/>
<stop offset="0.87" stop-color="#F8F8F8"/>
<stop offset="1" stop-color="white"/>
</linearGradient>
<radialGradient id="paint30_radial_241_100856" cx="0" cy="0" r="1" gradientUnits="userSpaceOnUse" gradientTransform="translate(3472.08 2601.06) scale(42.2671 44.3846)">
<stop stop-color="#EEEBF2"/>
<stop offset="0.58" stop-color="#D4D1D8"/>
<stop offset="0.94" stop-color="#A5A6B9"/>
<stop offset="1" stop-color="#9D9EB3"/>
</radialGradient>
<radialGradient id="paint31_radial_241_100856" cx="0" cy="0" r="1" gradientUnits="userSpaceOnUse" gradientTransform="translate(2681.69 2572.16) scale(37.4571 51.4833)">
<stop stop-color="white"/>
<stop offset="1"/>
</radialGradient>
<linearGradient id="paint32_linear_241_100856" x1="19358.4" y1="10315.2" x2="19494.8" y2="9987.53" gradientUnits="userSpaceOnUse">
<stop stop-color="#9D9D9D"/>
<stop offset="0.31" stop-color="#C7C7C7"/>
<stop offset="0.59" stop-color="#E6E6E6"/>
<stop offset="0.83" stop-color="#F8F8F8"/>
<stop offset="1" stop-color="white"/>
</linearGradient>
<linearGradient id="paint33_linear_241_100856" x1="5196.41" y1="4213.23" x2="5264.32" y2="4099.61" gradientUnits="userSpaceOnUse">
<stop stop-color="#9D9D9D"/>
<stop offset="0.31" stop-color="#C7C7C7"/>
<stop offset="0.59" stop-color="#E6E6E6"/>
<stop offset="0.83" stop-color="#F8F8F8"/>
<stop offset="1" stop-color="white"/>
</linearGradient>
<linearGradient id="paint34_linear_241_100856" x1="16279.7" y1="6592.5" x2="18084.8" y2="6592.5" gradientUnits="userSpaceOnUse">
<stop offset="0.06" stop-color="#2D2F32"/>
<stop offset="0.15" stop-color="#43464A"/>
<stop offset="0.25" stop-color="#5D6066"/>
<stop offset="0.48" stop-color="#1E1F21"/>
<stop offset="1" stop-color="#46484D"/>
</linearGradient>
<linearGradient id="paint35_linear_241_100856" x1="2325.48" y1="1352.68" x2="2357.34" y2="1352.68" gradientUnits="userSpaceOnUse">
<stop stop-color="#BCBEC0"/>
<stop offset="1" stop-color="#E6E7E8"/>
</linearGradient>
<linearGradient id="paint36_linear_241_100856" x1="139.646" y1="226.95" x2="137.375" y2="226.95" gradientUnits="userSpaceOnUse">
<stop stop-color="#BCBEC0"/>
<stop offset="0.69" stop-color="#E9EAEA"/>
<stop offset="1" stop-color="white"/>
</linearGradient>
<linearGradient id="paint37_linear_241_100856" x1="1866.98" y1="1122.36" x2="1887.16" y2="1122.36" gradientUnits="userSpaceOnUse">
<stop stop-color="#BCBEC0"/>
<stop offset="1" stop-color="#E6E7E8"/>
</linearGradient>
<linearGradient id="paint38_linear_241_100856" x1="1046.38" y1="935.975" x2="1050.42" y2="935.975" gradientUnits="userSpaceOnUse">
<stop stop-color="#BCBEC0"/>
<stop offset="0.69" stop-color="#E9EAEA"/>
<stop offset="1" stop-color="white"/>
</linearGradient>
<linearGradient id="paint39_linear_241_100856" x1="1207.49" y1="822.874" x2="1213.74" y2="822.874" gradientUnits="userSpaceOnUse">
<stop stop-color="#BCBEC0"/>
<stop offset="1" stop-color="#E6E7E8"/>
</linearGradient>
<linearGradient id="paint40_linear_241_100856" x1="925.528" y1="789.373" x2="928.632" y2="789.373" gradientUnits="userSpaceOnUse">
<stop stop-color="#BCBEC0"/>
<stop offset="0.69" stop-color="#E9EAEA"/>
<stop offset="1" stop-color="white"/>
</linearGradient>
<linearGradient id="paint41_linear_241_100856" x1="928.01" y1="652.339" x2="931.339" y2="652.339" gradientUnits="userSpaceOnUse">
<stop stop-color="#BCBEC0"/>
<stop offset="1" stop-color="#E6E7E8"/>
</linearGradient>
<linearGradient id="paint42_linear_241_100856" x1="696.854" y1="628.6" x2="698.438" y2="628.6" gradientUnits="userSpaceOnUse">
<stop stop-color="#BCBEC0"/>
<stop offset="0.69" stop-color="#E9EAEA"/>
<stop offset="1" stop-color="white"/>
</linearGradient>
<radialGradient id="paint43_radial_241_100856" cx="0" cy="0" r="1" gradientUnits="userSpaceOnUse" gradientTransform="translate(133.803 217.618) scale(1.72951 2.87935)">
<stop stop-color="#FEECA8"/>
<stop offset="1" stop-color="#FFA98C"/>
</radialGradient>
<radialGradient id="paint44_radial_241_100856" cx="0" cy="0" r="1" gradientUnits="userSpaceOnUse" gradientTransform="translate(8284.69 4255.86) scale(311.056 234.448)">
<stop stop-color="white"/>
<stop offset="1"/>
</radialGradient>
<linearGradient id="paint45_linear_241_100856" x1="14867.9" y1="6699.25" x2="13002.7" y2="6390.1" gradientUnits="userSpaceOnUse">
<stop stop-color="#D1D3D4"/>
<stop offset="0.19" stop-color="#979899"/>
<stop offset="0.4" stop-color="#616263"/>
<stop offset="0.59" stop-color="#373838"/>
<stop offset="0.76" stop-color="#191919"/>
<stop offset="0.9" stop-color="#070707"/>
<stop offset="1"/>
</linearGradient>
<linearGradient id="paint46_linear_241_100856" x1="32791.8" y1="14858.9" x2="32993.5" y2="14320.6" gradientUnits="userSpaceOnUse">
<stop stop-color="#9C9C9C"/>
<stop offset="0.01" stop-color="#999999"/>
<stop offset="0.26" stop-color="#636363"/>
<stop offset="0.49" stop-color="#383838"/>
<stop offset="0.7" stop-color="#191919"/>
<stop offset="0.88" stop-color="#070707"/>
<stop offset="1"/>
</linearGradient>
<radialGradient id="paint47_radial_241_100856" cx="0" cy="0" r="1" gradientUnits="userSpaceOnUse" gradientTransform="translate(27185.3 17416.1) scale(3345.48 3130.1)">
<stop stop-color="white"/>
<stop offset="1"/>
</radialGradient>
<linearGradient id="paint48_linear_241_100856" x1="1319.58" y1="1282.63" x2="1330.71" y2="1282.63" gradientUnits="userSpaceOnUse">
<stop stop-color="#9D9D9D"/>
<stop offset="0.31" stop-color="#C7C7C7"/>
<stop offset="0.59" stop-color="#E6E6E6"/>
<stop offset="0.83" stop-color="#F8F8F8"/>
<stop offset="1" stop-color="white"/>
</linearGradient>
<radialGradient id="paint49_radial_241_100856" cx="0" cy="0" r="1" gradientUnits="userSpaceOnUse" gradientTransform="translate(1732.24 1066.43) scale(14.4784 11.1183)">
<stop stop-color="#EEEBF2"/>
<stop offset="0.58" stop-color="#D4D1D8"/>
<stop offset="0.94" stop-color="#A5A6B9"/>
<stop offset="1" stop-color="#9D9EB3"/>
</radialGradient>
<linearGradient id="paint50_linear_241_100856" x1="1284.71" y1="1258.67" x2="1295.84" y2="1258.67" gradientUnits="userSpaceOnUse">
<stop stop-color="#9D9D9D"/>
<stop offset="0.31" stop-color="#C7C7C7"/>
<stop offset="0.59" stop-color="#E6E6E6"/>
<stop offset="0.83" stop-color="#F8F8F8"/>
<stop offset="1" stop-color="white"/>
</linearGradient>
<radialGradient id="paint51_radial_241_100856" cx="0" cy="0" r="1" gradientUnits="userSpaceOnUse" gradientTransform="translate(1688.55 1047.22) scale(14.4834 11.1182)">
<stop stop-color="#EEEBF2"/>
<stop offset="0.58" stop-color="#D4D1D8"/>
<stop offset="0.94" stop-color="#A5A6B9"/>
<stop offset="1" stop-color="#9D9EB3"/>
</radialGradient>
<radialGradient id="paint52_radial_241_100856" cx="0" cy="0" r="1" gradientUnits="userSpaceOnUse" gradientTransform="translate(5634.76 5451.64) scale(203.323 294.209)">
<stop stop-color="white"/>
<stop offset="1"/>
</radialGradient>
<linearGradient id="paint53_linear_241_100856" x1="53.3493" y1="198.495" x2="-3.33576" y2="185.755" gradientUnits="userSpaceOnUse">
<stop offset="0.04" stop-color="#FFA98C"/>
<stop offset="0.32" stop-color="#FFB892"/>
<stop offset="0.86" stop-color="#FEE1A3"/>
<stop offset="1" stop-color="#FEECA8"/>
</linearGradient>
<linearGradient id="paint54_linear_241_100856" x1="85597.4" y1="5785.82" x2="86022.6" y2="5709.7" gradientUnits="userSpaceOnUse">
<stop offset="0.04" stop-color="#FFA98C"/>
<stop offset="0.32" stop-color="#FFB892"/>
<stop offset="0.86" stop-color="#FEE1A3"/>
<stop offset="1" stop-color="#FEECA8"/>
</linearGradient>
<linearGradient id="paint55_linear_241_100856" x1="176358" y1="3467.59" x2="176167" y2="4091.53" gradientUnits="userSpaceOnUse">
<stop offset="0.04" stop-color="#FFA98C"/>
<stop offset="0.32" stop-color="#FFB892"/>
<stop offset="0.86" stop-color="#FEE1A3"/>
<stop offset="1" stop-color="#FEECA8"/>
</linearGradient>
<linearGradient id="paint56_linear_241_100856" x1="25.7408" y1="187.183" x2="17.5258" y2="184.712" gradientUnits="userSpaceOnUse">
<stop offset="0.04" stop-color="#C97052"/>
<stop offset="0.34" stop-color="#D47E61"/>
<stop offset="0.92" stop-color="#F2A48A"/>
<stop offset="1" stop-color="#F7AA90"/>
</linearGradient>
<linearGradient id="paint57_linear_241_100856" x1="106089" y1="2389.02" x2="106058" y2="2489.28" gradientUnits="userSpaceOnUse">
<stop offset="0.04" stop-color="#C97052"/>
<stop offset="0.34" stop-color="#D47E61"/>
<stop offset="0.92" stop-color="#F2A48A"/>
<stop offset="1" stop-color="#F7AA90"/>
</linearGradient>
<linearGradient id="paint58_linear_241_100856" x1="-8341.36" y1="8879.5" x2="-8355.33" y2="8881.16" gradientUnits="userSpaceOnUse">
<stop offset="0.04" stop-color="#C97052"/>
<stop offset="0.34" stop-color="#D47E61"/>
<stop offset="0.92" stop-color="#F2A48A"/>
<stop offset="1" stop-color="#F7AA90"/>
</linearGradient>
<linearGradient id="paint59_linear_241_100856" x1="-8396.44" y1="8846.3" x2="-8410.46" y2="8847.97" gradientUnits="userSpaceOnUse">
<stop offset="0.04" stop-color="#C97052"/>
<stop offset="0.34" stop-color="#D47E61"/>
<stop offset="0.92" stop-color="#F2A48A"/>
<stop offset="1" stop-color="#F7AA90"/>
</linearGradient>
<linearGradient id="paint60_linear_241_100856" x1="79548.1" y1="5513.48" x2="80295.8" y2="5409.93" gradientUnits="userSpaceOnUse">
<stop offset="0.04" stop-color="#FFA98C"/>
<stop offset="0.32" stop-color="#FFB892"/>
<stop offset="0.86" stop-color="#FEE1A3"/>
<stop offset="1" stop-color="#FEECA8"/>
</linearGradient>
<linearGradient id="paint61_linear_241_100856" x1="75641.3" y1="5313.5" x2="75971.1" y2="5254.41" gradientUnits="userSpaceOnUse">
<stop offset="0.04" stop-color="#FFA98C"/>
<stop offset="0.32" stop-color="#FFB892"/>
<stop offset="0.86" stop-color="#FEE1A3"/>
<stop offset="1" stop-color="#FEECA8"/>
</linearGradient>
<linearGradient id="paint62_linear_241_100856" x1="155814" y1="3294.74" x2="155666" y2="3778.58" gradientUnits="userSpaceOnUse">
<stop offset="0.04" stop-color="#FFA98C"/>
<stop offset="0.32" stop-color="#FFB892"/>
<stop offset="0.86" stop-color="#FEE1A3"/>
<stop offset="1" stop-color="#FEECA8"/>
</linearGradient>
<linearGradient id="paint63_linear_241_100856" x1="18097.1" y1="1493.87" x2="18122.4" y2="1489.73" gradientUnits="userSpaceOnUse">
<stop offset="0.04" stop-color="#C97052"/>
<stop offset="0.34" stop-color="#D47E61"/>
<stop offset="0.92" stop-color="#F2A48A"/>
<stop offset="1" stop-color="#F7AA90"/>
</linearGradient>
<linearGradient id="paint64_linear_241_100856" x1="93787.4" y1="2239.56" x2="93763.4" y2="2317.37" gradientUnits="userSpaceOnUse">
<stop offset="0.04" stop-color="#C97052"/>
<stop offset="0.34" stop-color="#D47E61"/>
<stop offset="0.92" stop-color="#F2A48A"/>
<stop offset="1" stop-color="#F7AA90"/>
</linearGradient>
<linearGradient id="paint65_linear_241_100856" x1="-6802.12" y1="8114.43" x2="-6812.97" y2="8115.72" gradientUnits="userSpaceOnUse">
<stop offset="0.04" stop-color="#C97052"/>
<stop offset="0.34" stop-color="#D47E61"/>
<stop offset="0.92" stop-color="#F2A48A"/>
<stop offset="1" stop-color="#F7AA90"/>
</linearGradient>
<linearGradient id="paint66_linear_241_100856" x1="-6805.47" y1="8129.15" x2="-6816.32" y2="8130.43" gradientUnits="userSpaceOnUse">
<stop offset="0.04" stop-color="#C97052"/>
<stop offset="0.34" stop-color="#D47E61"/>
<stop offset="0.92" stop-color="#F2A48A"/>
<stop offset="1" stop-color="#F7AA90"/>
</linearGradient>
<linearGradient id="paint67_linear_241_100856" x1="3606.43" y1="5514.75" x2="4076.97" y2="5427.71" gradientUnits="userSpaceOnUse">
<stop offset="0.04" stop-color="#FFA98C"/>
<stop offset="0.32" stop-color="#FFB892"/>
<stop offset="0.86" stop-color="#FEE1A3"/>
<stop offset="1" stop-color="#FEECA8"/>
</linearGradient>
<linearGradient id="paint68_linear_241_100856" x1="3025.98" y1="5499.85" x2="3577.48" y2="5425.91" gradientUnits="userSpaceOnUse">
<stop offset="0.04" stop-color="#FFA98C"/>
<stop offset="0.32" stop-color="#FFB892"/>
<stop offset="0.86" stop-color="#FEE1A3"/>
<stop offset="1" stop-color="#FEECA8"/>
</linearGradient>
<linearGradient id="paint69_linear_241_100856" x1="7241.89" y1="3374.22" x2="7093.53" y2="3858.25" gradientUnits="userSpaceOnUse">
<stop offset="0.04" stop-color="#FFA98C"/>
<stop offset="0.32" stop-color="#FFB892"/>
<stop offset="0.86" stop-color="#FEE1A3"/>
<stop offset="1" stop-color="#FEECA8"/>
</linearGradient>
<linearGradient id="paint70_linear_241_100856" x1="847.816" y1="1527.89" x2="873.034" y2="1523.77" gradientUnits="userSpaceOnUse">
<stop offset="0.04" stop-color="#C97052"/>
<stop offset="0.34" stop-color="#D47E61"/>
<stop offset="0.92" stop-color="#F2A48A"/>
<stop offset="1" stop-color="#F7AA90"/>
</linearGradient>
<linearGradient id="paint71_linear_241_100856" x1="4231.14" y1="2289.55" x2="4207.13" y2="2367.34" gradientUnits="userSpaceOnUse">
<stop offset="0.04" stop-color="#C97052"/>
<stop offset="0.34" stop-color="#D47E61"/>
<stop offset="0.92" stop-color="#F2A48A"/>
<stop offset="1" stop-color="#F7AA90"/>
</linearGradient>
<linearGradient id="paint72_linear_241_100856" x1="-23.8655" y1="-7116.58" x2="-12.9685" y2="-7115.28" gradientUnits="userSpaceOnUse">
<stop offset="0.04" stop-color="#C97052"/>
<stop offset="0.34" stop-color="#D47E61"/>
<stop offset="0.92" stop-color="#F2A48A"/>
<stop offset="1" stop-color="#F7AA90"/>
</linearGradient>
<linearGradient id="paint73_linear_241_100856" x1="-14.6496" y1="-7123.37" x2="-3.79545" y2="-7122.08" gradientUnits="userSpaceOnUse">
<stop offset="0.04" stop-color="#C97052"/>
<stop offset="0.34" stop-color="#D47E61"/>
<stop offset="0.92" stop-color="#F2A48A"/>
<stop offset="1" stop-color="#F7AA90"/>
</linearGradient>
<linearGradient id="paint74_linear_241_100856" x1="2964.68" y1="4331.15" x2="3299.33" y2="4269.25" gradientUnits="userSpaceOnUse">
<stop offset="0.04" stop-color="#FFA98C"/>
<stop offset="0.32" stop-color="#FFB892"/>
<stop offset="0.86" stop-color="#FEE1A3"/>
<stop offset="1" stop-color="#FEECA8"/>
</linearGradient>
<linearGradient id="paint75_linear_241_100856" x1="2531.06" y1="4313.54" x2="2923.42" y2="4260.97" gradientUnits="userSpaceOnUse">
<stop offset="0.04" stop-color="#FFA98C"/>
<stop offset="0.32" stop-color="#FFB892"/>
<stop offset="0.86" stop-color="#FEE1A3"/>
<stop offset="1" stop-color="#FEECA8"/>
</linearGradient>
<linearGradient id="paint76_linear_241_100856" x1="5928.03" y1="2700.27" x2="5822.48" y2="3044.64" gradientUnits="userSpaceOnUse">
<stop offset="0.04" stop-color="#FFA98C"/>
<stop offset="0.32" stop-color="#FFB892"/>
<stop offset="0.86" stop-color="#FEE1A3"/>
<stop offset="1" stop-color="#FEECA8"/>
</linearGradient>
<linearGradient id="paint77_linear_241_100856" x1="696.907" y1="1221.73" x2="714.866" y2="1218.8" gradientUnits="userSpaceOnUse">
<stop offset="0.04" stop-color="#C97052"/>
<stop offset="0.34" stop-color="#D47E61"/>
<stop offset="0.92" stop-color="#F2A48A"/>
<stop offset="1" stop-color="#F7AA90"/>
</linearGradient>
<linearGradient id="paint78_linear_241_100856" x1="3476.72" y1="1826.33" x2="3459.63" y2="1881.68" gradientUnits="userSpaceOnUse">
<stop offset="0.04" stop-color="#C97052"/>
<stop offset="0.34" stop-color="#D47E61"/>
<stop offset="0.92" stop-color="#F2A48A"/>
<stop offset="1" stop-color="#F7AA90"/>
</linearGradient>
<linearGradient id="paint79_linear_241_100856" x1="32.4956" y1="-5923.64" x2="40.2474" y2="-5922.71" gradientUnits="userSpaceOnUse">
<stop offset="0.04" stop-color="#C97052"/>
<stop offset="0.34" stop-color="#D47E61"/>
<stop offset="0.92" stop-color="#F2A48A"/>
<stop offset="1" stop-color="#F7AA90"/>
</linearGradient>
<linearGradient id="paint80_linear_241_100856" x1="37.899" y1="-5928" x2="45.6509" y2="-5927.08" gradientUnits="userSpaceOnUse">
<stop offset="0.04" stop-color="#C97052"/>
<stop offset="0.34" stop-color="#D47E61"/>
<stop offset="0.92" stop-color="#F2A48A"/>
<stop offset="1" stop-color="#F7AA90"/>
</linearGradient>
<radialGradient id="paint81_radial_241_100856" cx="0" cy="0" r="1" gradientUnits="userSpaceOnUse" gradientTransform="translate(6748.97 2076.62) scale(145.403 43.928)">
<stop stop-color="white"/>
<stop offset="1"/>
</radialGradient>
<linearGradient id="paint82_linear_241_100856" x1="1137.5" y1="669.686" x2="1137.5" y2="682.367" gradientUnits="userSpaceOnUse">
<stop stop-color="white"/>
<stop offset="1"/>
</linearGradient>
<radialGradient id="paint83_radial_241_100856" cx="0" cy="0" r="1" gradientUnits="userSpaceOnUse" gradientTransform="translate(63.7757 210.186) rotate(-10.5875) scale(1.93113 5.90381)">
<stop stop-color="#10054D"/>
<stop offset="0.1" stop-color="#0D043D"/>
<stop offset="0.32" stop-color="#070222"/>
<stop offset="0.54" stop-color="#03010F"/>
<stop offset="0.76" stop-color="#010004"/>
<stop offset="1"/>
</radialGradient>
<radialGradient id="paint84_radial_241_100856" cx="0" cy="0" r="1" gradientUnits="userSpaceOnUse" gradientTransform="translate(-24374.6 11748.9) rotate(-169.413) scale(13.2888 132.728)">
<stop stop-color="#972A74"/>
<stop offset="0.04" stop-color="#8A266A"/>
<stop offset="0.19" stop-color="#601B4A"/>
<stop offset="0.35" stop-color="#3D112F"/>
<stop offset="0.51" stop-color="#230A1B"/>
<stop offset="0.67" stop-color="#0F040C"/>
<stop offset="0.83" stop-color="#040103"/>
<stop offset="1"/>
</radialGradient>
<radialGradient id="paint85_radial_241_100856" cx="0" cy="0" r="1" gradientUnits="userSpaceOnUse" gradientTransform="translate(11491.8 5700.78) scale(473.215 978.65)">
<stop stop-color="white"/>
<stop offset="1"/>
</radialGradient>
<linearGradient id="paint86_linear_241_100856" x1="454.398" y1="31216.3" x2="347.588" y2="31173.1" gradientUnits="userSpaceOnUse">
<stop offset="0.04" stop-color="#9D9EB3"/>
<stop offset="0.58" stop-color="#D4D1D8"/>
<stop offset="1" stop-color="#EEEBF2"/>
</linearGradient>
<linearGradient id="paint87_linear_241_100856" x1="5190.78" y1="4633.2" x2="4893.3" y2="4567.54" gradientUnits="userSpaceOnUse">
<stop stop-color="white"/>
<stop offset="1"/>
</linearGradient>
<radialGradient id="paint88_radial_241_100856" cx="0" cy="0" r="1" gradientUnits="userSpaceOnUse" gradientTransform="translate(-47426.5 -111654) rotate(-26.8383) scale(1076.89 1707.99)">
<stop stop-color="#972A74"/>
<stop offset="0.04" stop-color="#8A266A"/>
<stop offset="0.19" stop-color="#601B4A"/>
<stop offset="0.35" stop-color="#3D112F"/>
<stop offset="0.51" stop-color="#230A1B"/>
<stop offset="0.67" stop-color="#0F040C"/>
<stop offset="0.83" stop-color="#040103"/>
<stop offset="1"/>
</radialGradient>
</defs>
</svg>
