<svg width="20" height="20" viewBox="0 0 20 20" fill="none" xmlns="http://www.w3.org/2000/svg">
<path d="M10 0C8.02219 0 6.08879 0.58649 4.4443 1.6853C2.79981 2.78412 1.51809 4.3459 0.761209 6.17317C0.00433284 8.00043 -0.193701 10.0111 0.192152 11.9509C0.578004 13.8907 1.53041 15.6725 2.92894 17.0711C4.32746 18.4696 6.10929 19.422 8.0491 19.8079C9.98891 20.1937 11.9996 19.9957 13.8268 19.2388C15.6541 18.4819 17.2159 17.2002 18.3147 15.5557C19.4135 13.9112 20 11.9778 20 10C20 8.68678 19.7413 7.38642 19.2388 6.17317C18.7363 4.95991 17.9997 3.85752 17.0711 2.92893C16.1425 2.00035 15.0401 1.26375 13.8268 0.761205C12.6136 0.258658 11.3132 0 10 0ZM11 15C11 15.2652 10.8946 15.5196 10.7071 15.7071C10.5196 15.8946 10.2652 16 10 16C9.73479 16 9.48043 15.8946 9.2929 15.7071C9.10536 15.5196 9 15.2652 9 15V9C9 8.73478 9.10536 8.48043 9.2929 8.29289C9.48043 8.10536 9.73479 8 10 8C10.2652 8 10.5196 8.10536 10.7071 8.29289C10.8946 8.48043 11 8.73478 11 9V15ZM10 6C9.70333 6 9.41332 5.91203 9.16665 5.7472C8.91998 5.58238 8.72772 5.34811 8.61419 5.07403C8.50065 4.79994 8.47095 4.49834 8.52883 4.20736C8.5867 3.91639 8.72957 3.64912 8.93934 3.43934C9.14912 3.22956 9.4164 3.0867 9.70737 3.02882C9.99834 2.97094 10.2999 3.00065 10.574 3.11418C10.8481 3.22771 11.0824 3.41997 11.2472 3.66664C11.412 3.91332 11.5 4.20333 11.5 4.5C11.5 4.89782 11.342 5.27936 11.0607 5.56066C10.7794 5.84196 10.3978 6 10 6Z" fill="#5FBB97"/>
</svg>
