<svg width="24" height="26" viewBox="0 0 24 26" fill="none" xmlns="http://www.w3.org/2000/svg">
<path opacity="0.8" d="M11.3002 0.5C8.09568 0.50914 5.01706 1.74864 2.7002 3.9625V1.75C2.7002 1.41848 2.5685 1.10054 2.33408 0.866116C2.09966 0.631696 1.78172 0.5 1.4502 0.5C1.11867 0.5 0.800732 0.631696 0.566312 0.866116C0.331891 1.10054 0.200195 1.41848 0.200195 1.75V7.375C0.200195 7.70652 0.331891 8.02446 0.566312 8.25888C0.800732 8.4933 1.11867 8.625 1.4502 8.625H7.0752C7.40672 8.625 7.72466 8.4933 7.95908 8.25888C8.1935 8.02446 8.3252 7.70652 8.3252 7.375C8.3252 7.04348 8.1935 6.72554 7.95908 6.49112C7.72466 6.2567 7.40672 6.125 7.0752 6.125H4.0752C5.21483 4.92126 6.63583 4.0197 8.21036 3.50142C9.78488 2.98314 11.4636 2.8644 13.0954 3.15588C14.7272 3.44736 16.2609 4.13991 17.5587 5.17124C18.8564 6.20257 19.8774 7.54032 20.5298 9.06416C21.1823 10.588 21.4457 12.2501 21.2963 13.901C21.147 15.5519 20.5896 17.1398 19.6743 18.5218C18.759 19.9038 17.5145 21.0366 16.0527 21.8183C14.591 22.6 12.9578 23.0061 11.3002 23C10.9687 23 10.6507 23.1317 10.4163 23.3661C10.1819 23.6005 10.0502 23.9185 10.0502 24.25C10.0502 24.5815 10.1819 24.8995 10.4163 25.1339C10.6507 25.3683 10.9687 25.5 11.3002 25.5C14.6154 25.5 17.7948 24.183 20.139 21.8388C22.4832 19.4946 23.8002 16.3152 23.8002 13C23.8002 9.68479 22.4832 6.50537 20.139 4.16117C17.7948 1.81696 14.6154 0.5 11.3002 0.5ZM11.3002 8C10.9687 8 10.6507 8.1317 10.4163 8.36612C10.1819 8.60054 10.0502 8.91848 10.0502 9.25V13C10.0502 13.3315 10.1819 13.6495 10.4163 13.8839C10.6507 14.1183 10.9687 14.25 11.3002 14.25H13.8002C14.1317 14.25 14.4497 14.1183 14.6841 13.8839C14.9185 13.6495 15.0502 13.3315 15.0502 13C15.0502 12.6685 14.9185 12.3505 14.6841 12.1161C14.4497 11.8817 14.1317 11.75 13.8002 11.75H12.5502V9.25C12.5502 8.91848 12.4185 8.60054 12.1841 8.36612C11.9497 8.1317 11.6317 8 11.3002 8Z" fill="#5FBB97"/>
</svg>
