<svg width="21" height="20" viewBox="0 0 21 20" fill="none" xmlns="http://www.w3.org/2000/svg">
<path d="M18.4406 11.0004C18.2206 11.0004 17.9906 10.9304 17.7706 10.8804C17.3251 10.7822 16.8873 10.6518 16.4606 10.4904C15.9967 10.3216 15.4867 10.3304 15.0289 10.515C14.5711 10.6996 14.1977 11.047 13.9806 11.4904L13.7606 11.9404C12.7866 11.3985 11.8916 10.7256 11.1006 9.94036C10.3154 9.14937 9.64241 8.25435 9.10059 7.28036L9.52059 7.00036C9.96395 6.78327 10.3114 6.40989 10.496 5.95205C10.6806 5.49421 10.6894 4.98427 10.5206 4.52036C10.3618 4.09278 10.2315 3.65515 10.1306 3.21036C10.0806 2.99036 10.0406 2.76036 10.0106 2.53036C9.88915 1.82598 9.52021 1.1881 8.97021 0.731596C8.42021 0.275093 7.72529 0.0299652 7.01059 0.0403564H4.01059C3.57962 0.0363098 3.15284 0.12517 2.7593 0.300887C2.36576 0.476604 2.0147 0.735052 1.73002 1.05864C1.44534 1.38222 1.23372 1.76335 1.10958 2.17607C0.985431 2.58879 0.951668 3.02342 1.01059 3.45036C1.54333 7.63974 3.45662 11.5322 6.44824 14.513C9.43987 17.4938 13.3393 19.3929 17.5306 19.9104H17.9106C18.648 19.9114 19.36 19.6409 19.9106 19.1504C20.227 18.8674 20.4797 18.5205 20.6521 18.1327C20.8244 17.7448 20.9126 17.3248 20.9106 16.9004V13.9004C20.8983 13.2057 20.6454 12.5369 20.1949 12.008C19.7445 11.4791 19.1244 11.123 18.4406 11.0004ZM18.9406 17.0004C18.9404 17.1423 18.91 17.2827 18.8514 17.412C18.7927 17.5413 18.7073 17.6566 18.6006 17.7504C18.4892 17.8474 18.3586 17.9198 18.2173 17.9629C18.076 18.0059 17.9272 18.0187 17.7806 18.0004C14.0355 17.5202 10.5568 15.8068 7.89331 13.1306C5.22978 10.4545 3.533 6.96769 3.07059 3.22036C3.05467 3.07387 3.06862 2.92569 3.11159 2.78475C3.15456 2.64381 3.22566 2.51304 3.32059 2.40036C3.4143 2.29369 3.52965 2.2082 3.65897 2.14957C3.78829 2.09095 3.9286 2.06054 4.07059 2.06036H7.07059C7.30314 2.05518 7.53021 2.13124 7.71273 2.27543C7.89525 2.41962 8.0218 2.62293 8.07059 2.85036C8.11059 3.12369 8.16059 3.39369 8.22059 3.66036C8.33611 4.1875 8.48985 4.70554 8.68059 5.21036L7.28059 5.86036C7.16089 5.91528 7.05321 5.9933 6.96375 6.08995C6.87428 6.1866 6.80479 6.29997 6.75926 6.42355C6.71373 6.54713 6.69306 6.67849 6.69844 6.81008C6.70381 6.94167 6.73513 7.0709 6.79059 7.19036C8.22979 10.2731 10.7078 12.7512 13.7906 14.1904C14.0341 14.2904 14.3071 14.2904 14.5506 14.1904C14.6753 14.1457 14.7899 14.0768 14.8878 13.9875C14.9856 13.8983 15.0648 13.7905 15.1206 13.6704L15.7406 12.2704C16.2576 12.4552 16.7852 12.6088 17.3206 12.7304C17.5873 12.7904 17.8573 12.8404 18.1306 12.8804C18.358 12.9291 18.5613 13.0557 18.7055 13.2382C18.8497 13.4207 18.9258 13.6478 18.9206 13.8804L18.9406 17.0004Z" fill="#007683"/>
</svg>
