<svg width="28" height="29" viewBox="0 0 28 29" fill="none" xmlns="http://www.w3.org/2000/svg">
<path d="M14 9.5C11.2375 9.5 9 11.7375 9 14.5C9 17.2625 11.2375 19.5 14 19.5C16.7625 19.5 19 17.2625 19 14.5C19 11.7375 16.7625 9.5 14 9.5ZM25.175 13.25C24.6 8.0375 20.4625 3.9 15.25 3.325V0.75H12.75V3.325C7.5375 3.9 3.4 8.0375 2.825 13.25H0.25V15.75H2.825C3.4 20.9625 7.5375 25.1 12.75 25.675V28.25H15.25V25.675C20.4625 25.1 24.6 20.9625 25.175 15.75H27.75V13.25H25.175ZM14 23.25C9.1625 23.25 5.25 19.3375 5.25 14.5C5.25 9.6625 9.1625 5.75 14 5.75C18.8375 5.75 22.75 9.6625 22.75 14.5C22.75 19.3375 18.8375 23.25 14 23.25Z" fill="#5FBB97"/>
</svg>
