<svg width="16" height="16" viewBox="0 0 16 16" fill="none" xmlns="http://www.w3.org/2000/svg">
<path d="M12.8937 10.7819L10.5609 10.3147C10.3135 10.2656 10.1332 10.0459 10.1332 9.792V9.25653C10.2868 9.0432 10.4308 8.7584 10.5801 8.4608C10.6943 8.23573 10.866 7.89653 10.9428 7.81653C11.3951 7.37387 11.8772 6.82453 12.0244 6.1088C12.1577 5.46027 12.0244 5.1232 11.8697 4.85653C11.8697 4.33493 11.8697 3.38027 11.6884 2.69227C11.6703 1.86133 11.5177 1.392 11.1348 0.973867C10.8639 0.6816 10.4649 0.613333 10.1449 0.558933C10.018 0.5376 9.84414 0.507733 9.78334 0.474667C9.22974 0.168533 8.6676 0.0170667 7.9796 0C6.5716 0.0533333 4.8436 0.946133 4.26547 2.55147C4.08947 3.03893 4.10654 3.83893 4.11934 4.48213L4.1044 4.85653C3.96894 5.1232 3.8356 5.46027 3.97 6.10773C4.1172 6.82667 4.59934 7.37493 5.04947 7.81547C5.12734 7.89653 5.3012 8.23787 5.4164 8.46293C5.56787 8.75947 5.71294 9.04427 5.86654 9.2576V9.792C5.86654 10.0459 5.68627 10.2656 5.43774 10.3147L3.10494 10.7819C1.6148 11.0795 0.533203 12.3989 0.533203 13.9189V14.9333C0.533203 15.5211 1.01214 16 1.59987 16H14.3999C14.9876 16 15.4665 15.5211 15.4665 14.9333V13.9189C15.4665 12.3989 14.3849 11.0795 12.8937 10.7819Z" fill="#85948E"/>
</svg>
