<svg width="24" height="16" viewBox="0 0 24 16" fill="none" xmlns="http://www.w3.org/2000/svg">
<path d="M19.7998 11.5205C18.6749 11.5205 17.7598 12.4359 17.7598 13.5605C17.7598 14.6854 18.6749 15.6005 19.7998 15.6005C20.9244 15.6005 21.8398 14.6854 21.8398 13.5605C21.8398 12.4359 20.9244 11.5205 19.7998 11.5205ZM19.7998 14.1605C19.4688 14.1605 19.1998 13.8914 19.1998 13.5605C19.1998 13.2296 19.4688 12.9605 19.7998 12.9605C20.1307 12.9605 20.3998 13.2296 20.3998 13.5605C20.3998 13.8914 20.1307 14.1605 19.7998 14.1605Z" fill="#5FBB97"/>
<path d="M19.6042 3.04004H16.0796C15.8144 3.04004 15.5996 3.2551 15.5996 3.52004V12.88C15.5996 13.145 15.8144 13.36 16.0796 13.36H16.5887C16.8263 13.36 17.0367 13.1889 17.0675 12.9533C17.2558 11.5099 18.4071 10.6147 19.7998 10.6147C21.1926 10.6147 22.3438 11.5099 22.5322 12.9533C22.5629 13.1889 22.7732 13.36 23.011 13.36H23.5196C23.7845 13.36 23.9996 13.145 23.9996 12.88V8.20004C23.9996 8.08725 23.96 7.97827 23.8877 7.89212L19.9724 3.21212C19.8812 3.10318 19.7463 3.04004 19.6042 3.04004ZM16.5596 6.88004V4.48004C16.5596 4.2151 16.7744 4.00004 17.0396 4.00004H19.154C19.2963 4.00004 19.4315 4.06341 19.5226 4.17282L21.5226 6.57282C21.7829 6.88553 21.5607 7.36004 21.1537 7.36004H17.0396C16.7744 7.36004 16.5596 7.14525 16.5596 6.88004Z" fill="#5FBB97"/>
<path d="M0.48 13.3604H1.70906C1.94667 13.3604 2.15714 13.1892 2.18784 12.9536C2.37624 11.5102 3.52753 10.615 4.92024 10.615C6.31294 10.615 7.46424 11.5103 7.65263 12.9536C7.68333 13.1893 7.89357 13.3604 8.13141 13.3604H14.16C14.425 13.3604 14.64 13.1453 14.64 12.8804V0.88039C14.64 0.615449 14.4249 0.400391 14.16 0.400391H0.48C0.214784 0.400391 0 0.615449 0 0.88039V12.8804C0 13.1454 0.214784 13.3604 0.48 13.3604Z" fill="#5FBB97"/>
<path d="M4.91988 11.5205C3.79502 11.5205 2.87988 12.4359 2.87988 13.5605C2.87988 14.6854 3.79502 15.6005 4.91988 15.6005C6.04451 15.6005 6.95988 14.6854 6.95988 13.5605C6.95988 12.4359 6.04451 11.5205 4.91988 11.5205ZM4.91988 14.1605C4.58894 14.1605 4.31988 13.8914 4.31988 13.5605C4.31988 13.2296 4.58894 12.9605 4.91988 12.9605C5.25082 12.9605 5.51988 13.2296 5.51988 13.5605C5.51988 13.8914 5.25082 14.1605 4.91988 14.1605Z" fill="#5FBB97"/>
</svg>
