<svg width="127" height="121" viewBox="0 0 127 121" fill="none" xmlns="http://www.w3.org/2000/svg">
<path d="M80.4993 -26.583C43.6035 -26.583 13.416 3.60449 13.416 40.5003C13.416 77.3962 43.6035 107.584 80.4993 107.584C117.395 107.584 147.583 77.3962 147.583 40.5003C147.583 3.60449 117.395 -26.583 80.4993 -26.583ZM80.4993 94.167C50.9156 94.167 26.8327 70.0841 26.8327 40.5003C26.8327 10.9166 50.9156 -13.1663 80.4993 -13.1663C110.083 -13.1663 134.166 10.9166 134.166 40.5003C134.166 70.0841 110.083 94.167 80.4993 94.167ZM83.8535 6.95866H73.791V47.2087L108.674 68.6753L114.041 59.9545L83.8535 41.842V6.95866Z" fill="url(#paint0_linear_7_9326)"/>
<defs>
<linearGradient id="paint0_linear_7_9326" x1="80.4993" y1="-26.583" x2="80.4993" y2="107.584" gradientUnits="userSpaceOnUse">
<stop stop-color="#323232" stop-opacity="0"/>
<stop offset="1" stop-color="#323232"/>
</linearGradient>
</defs>
</svg>
