<svg width="24" height="24" viewBox="0 0 24 24" fill="none" xmlns="http://www.w3.org/2000/svg">
<path d="M23.5863 3.70235V20.1966C23.5863 22.2408 21.9504 23.8984 19.9319 23.8984H3.65439C1.63615 23.8984 0 22.2408 0 20.1966V3.70235C0 1.65796 1.63615 0.000331879 3.65439 0.000331879H19.9319C21.9504 0.000331879 23.5863 1.65796 23.5863 3.70235Z" fill="#007683"/>
<path d="M23.5864 4.84081V11.5641C23.4585 11.5958 23.3364 11.6297 23.2171 11.6698C19.0176 13.0955 15.9331 15.8315 14.1084 19.9114C13.7525 20.7061 13.5312 21.6041 13.4254 22.4961C13.3902 22.8014 13.3677 23.1059 13.3581 23.4048C13.3526 23.5692 13.3485 23.7341 13.3444 23.8984H6.21094V18.1881C6.22326 18.1984 6.23696 18.2087 6.24909 18.219V0.882671H6.21094V0.000331879H13.4254V0.77622H13.401V10.0411C13.4092 10.0341 13.4174 10.0266 13.4254 10.0197C16.4483 7.35402 19.7994 5.71007 23.5864 4.84081Z" fill="#FFE081"/>
<path d="M13.4254 23.8984V22.4961V10.0197V0.776218V0.000131607H6.21094V0.882669V18.1879V23.8984H13.3444H13.4254Z" fill="#8DDCA4"/>
</svg>
